<svg id="圖層_1" data-name="圖層 1" xmlns="http://www.w3.org/2000/svg" viewBox="0 0 2336.06 714.83"><defs><style>.cls-1{fill:#5d3425;}.cls-2{fill:#9a4c2e;}</style></defs><path class="cls-1" d="M841.09,390.49c-1.51-1.38-3.59-1.43-5.47-2-4.64-1.32-5.83-2.77-3.85-7,2.46-5.29,3.55-11.07,6.21-16.2,3.39-6.52,7.12-12.93,12.12-18.38,3.53-3.85,7.58-7.1,13.43-3.89,1.6.88,3.59.53,5.27,0,6.68-2.1,13.84-2.71,19.89-6.76,4.63-3.1,9.44-5.95,14.14-8.95,1.12-.72,2.65-1.35,3.12-2.41,1.58-3.54,3.34-5.5,7.55-3.36,1,.49,3.57-.41,4.22-1.43,2.75-4.33,7.5-6,11.11-9.12a11.58,11.58,0,0,0,1.32-1.78c-1.37-1.85-3.88,1.22-5-1.12.39-1.34,1.71-1.5,2.67-1.59,4.59-.45,8.5-2.51,12.38-4.73a9.67,9.67,0,0,1,7.61-1A104.45,104.45,0,0,0,963,303c6.42.59,11.77,3.58,16.91,7,4.71,3.13,7.23,7.92,8.11,13.34,1.28,7.84,3.08,15.79,2.88,23.65-.29,11.25,2,22.19,2.4,33.31.55,14,1.5,28,1,42.05-.59,16.9-.4,33.85.29,50.78.25,6.1,2.5,11.69,3.84,17.49a16,16,0,0,1,.52,7c-1.65,8.89-.31,17.72,1.43,26.46.77,3.91,2.25,7.68,2.92,11.6,1.72,10.15-1.13,18.95-8.58,26.11-1.75,1.69-3.71,3.35-6.23,3.75-3.63.59-6.63,2.3-9.68,4.27-4.56,2.94-9.93,2.44-15,2.08a244.33,244.33,0,0,0-34,0c-8.12.56-16.1,3-24.18,4.39-7.6,1.3-14.63,5-22.68,4.66-6.48-.26-12.89-1-19.28-1.77-2.42-.3-4.85-.54-7.27-.86-5.37-.69-9.81.11-13.61,4.78-4.41,5.43-10.94,4-16.92,3.39-6.19-.61-11.39-4.18-17.17-6.07-2.48-.81-2.13-3.14-2-5.12.62-7.31,1-14.65,2.08-21.9a80.55,80.55,0,0,0,.79-12.66c-.23-12.33,2.34-24.34,3.49-36.51,1.48-15.79,5.57-31.12,8-46.74,1.87-11.86,4.52-23.63,7.52-35.26,2.57-9.94,7.07-19.24,11.36-28.56C840.47,392.64,841.31,391.8,841.09,390.49ZM830.91,539.68c0,3.11-.23,6.26.05,9.35.47,5,2.66,7,7.73,7.06a20.56,20.56,0,0,0,5.22-.94c6.34-1.63,12.63-2.53,19-.17,2.94,1.08,6.11,1,9.26,1,15.54.12,30.2-5.13,45.28-7.72,9.42-1.62,18.53-4.18,28.26-3.22,3.44.35,7-.91,10.56-1.35a3.88,3.88,0,0,0,3.41-3.61c.93-5.53,3.5-10.56,4.65-16a19,19,0,0,0-1.39-13c-2.46-5-4.15-10.88-3.05-16.18,2.34-11.19-.24-22.19.07-33.26.25-8.93-2.18-17.67-3.18-26.52-2.4-21-4.65-42.1-9.31-62.75-2.25-9.94-2.56-20.25-6-30-.66-1.88.89-4.43-2-5.67-2.26-1-4.38-2-7-1.86a22.11,22.11,0,0,0-5.12,1.3c-9.68,3-18.06,8.33-26.64,13.57-14.11,8.61-24.83,20.85-36.68,31.89-1.63,1.52-2.5,3.24-2,5.35a34.52,34.52,0,0,1-1.65,21.59,4.8,4.8,0,0,0-.17,1.33c-.38,4.56.22,5.49,4.93,6a28.42,28.42,0,0,0,15.53-3.14c7.82-3.8,15.44-8,23.4-11.53,10.75-4.71,21.81-7.59,33.75-4.21,6.66,1.89,6.51,2.85,6.32,9.39-.18,5.93-3.37,10.95-4,16.69-.54,5.08-1.51,6-6.81,6.27-11.18.53-21.23,4.86-31.13,9.36-8.5,3.87-16.59,8.71-25.87,10.52-4.56.89-6.76,4.9-10.45,6.89-4.91,2.64-9.55,5.92-15.53,5.17-6.89-.86-7.14-.72-8.26,5.9-1,6.16.16,7.41,6.55,7.53a45,45,0,0,0,21.16-5c10-4.89,20.24-9.13,31.94-3.94,6.34,2.82,8.1,7.17,5,13-2.39,4.54-6.79,7.85-7.85,13-.66,3.21-2.55,3.72-5.32,3.59-5.59-.28-11.25-.47-16.31,2.45a45.35,45.35,0,0,1-22.38,5.9c-6.85.12-12.19,3.94-17.9,6.8-3.24,1.63-4.62,4.77-4.69,8.32C832.23,525.93,830.53,532.73,830.91,539.68Z"/><path class="cls-1" d="M828.6,112.93a32.15,32.15,0,0,0,11.92-.08,20.61,20.61,0,0,1,9.91.72,17.2,17.2,0,0,0,5.87,1.21c8.35-.4,11.42,5.54,14.45,11.6.89,1.79,1.6,3.68,2.41,5.51.93,2.15,4.13,3.34,3.07,6.27-1.81,5-1.75,10.89-5.79,14.71-3.13,2.95-7.58,3.62-11.92,3.13-4-.46-8-.71-12,.33-2.53.67-3.94,1.77-2.4,4.71,1.25,2.4,1.46,5.16,1.6,7.83A23.88,23.88,0,0,0,851.64,184c2.65,3.09,3.89,7.46,5.44,11.39a6.23,6.23,0,0,1,0,5.24c-3,5.37-4.49,11.69-9.65,15.8-3.93,3.14-5,7.78-5.91,12.39a3.21,3.21,0,0,0,.69,3.14c1.19,1.05,2.66.53,3.7-.21a53.81,53.81,0,0,1,8.77-4.82c7.54-3.48,10.54-3,15.83,3,3.2,3.66,4.68,8.52,8,12.1a1,1,0,0,1,.21.62c-.29,5.18-2.66,9.75-4.42,14.47-1.16,3.11-4.43,3.32-7.3,3.9a88.68,88.68,0,0,1-14,1.41,50.72,50.72,0,0,0-15.61,3.37,15.76,15.76,0,0,0-9.68,9.45c-2,5-4.36,9.78-6.27,14.77-4.43,11.58-12,21.35-18.28,31.87-4.55,7.65-8.46,15.66-13.46,23.1-9.26,13.77-20.22,26.09-31.53,38.07-6.91,7.32-13.09,15.21-19.86,22.62-11.14,12.17-21.45,25.07-33.17,36.75-9.47,9.44-17.44,20.25-26.12,30.42q-8.45,9.9-17.22,19.55c-7.33,8.1-14.09,16.71-21.43,24.77-6.6,7.25-11.61,15.65-18.35,22.8-6.2,6.58-11.28,14.3-16.41,21.82-11,16.19-20.93,33.11-33.34,48.41-7,8.62-12.57,18.4-18.71,27.71-1.75,2.65-3.24,5-7.16,5-3.43,0-5-1-5.11-4.38-.05-2.19-.38-4-3.2-4a1.51,1.51,0,0,1-1.66-1.64c.09-3-1.59-4.74-3.86-6.5-1.87-1.44-2.17-3.85-.59-6,2.23-3.07,4.18-6.39,6.77-9.12a185.17,185.17,0,0,0,19.43-23.74c9.16-13.67,20.65-25.49,30.09-39,3.4-4.85,7.51-9.09,9.34-14.9a5,5,0,0,1,1.76-1.95c7.92-6.41,12.65-15.31,18.66-23.25,6.13-8.11,11.26-16.82,16.85-25.25.25-.37.43-.87.78-1.07,7.1-4,9.69-11.67,14.36-17.64,2.73-3.49,6.3-6.21,9-9.82a281.7,281.7,0,0,1,30-33.94c11.85-11.36,22.82-23.58,33.69-35.92a143,143,0,0,1,19.12-18.66c3.57-2.79,5.78-6.68,8.5-10.17,4.92-6.34,10.15-12.43,15.05-18.8,10.25-13.31,18.64-27.73,26.17-42.66,5.66-11.22,4.72-13.41-6.71-18.82-1.21-.57-2.43-1.12-3.63-1.71-6.31-3.07-6.93-10.81-1.16-14.92.9-.65,2.15-.94,2.84-1.74,7.12-8.23,16.58-12.26,26.7-15.22a9.45,9.45,0,0,0,5.73-5.36c1.91-4,3.66-8.13,5.53-12.18,1.3-2.83.85-5-1.79-6.95a21.11,21.11,0,0,0-6.45-3.42c-5.19-1.57-9.68-4.55-14.32-7.19-4.4-2.5-5.88-6.79-5-11.5a9.22,9.22,0,0,1,8.7-7.94,28.51,28.51,0,0,0,8.24-2.67,16.2,16.2,0,0,1,6.45-1.49,18.14,18.14,0,0,0,16.57-11.94c1.87-5,1.16-10.15.79-15.22-.16-2.3-2-3.91-4.07-5a19.12,19.12,0,0,0-9.56-2.76c-4.93.15-8.45-2.25-12-5.09a48.24,48.24,0,0,0-4.8-3.62c-2.41-1.49-4.28-3.12-3.75-6.34.14-.83.08-2.22-.42-2.55-5.62-3.75-.55-7.61.23-11s4.77-4.7,8-5.12C814.93,113.81,822.07,113.46,828.6,112.93ZM642.92,496c1.61-1,3-2.29,2.6-4.8C644,492.64,643,494,642.92,496ZM776.31,346.34c.81-.37,1.57-.84,1.35-1.88a1.19,1.19,0,0,0-1-.51c-.87.22-1.62.74-1.33,1.81C775.36,346,776,346.15,776.31,346.34ZM632.83,508.86c2.13-1.27,3.68-1.94,3.59-4.95C634.38,505,633,505.78,632.83,508.86Z"/><path class="cls-2" d="M1875.17,559c-.16-1.85-.25-3.12-.38-4.38-.1-1-.57-2-1.59-1.9-3.18.25-4.47-3-7.17-3.64-1.55-.37-2.24-1.83-2.6-3.3s-.74-3.21-2.08-4.38c-.39-.34-.89-1-.8-1.36,1.07-4.46-.93-9.4,1.43-13.48,4.11-7.1,4.26-15.07,5.64-22.74,1.71-9.53,2.89-19.17,4.11-28.78,1-8.14,1.49-16.36,2.73-24.46,1.37-8.95.71-17.93,1.25-26.89.22-3.64.8-7.27.86-10.91.16-11.32,1.17-22.64-1-33.92a34.07,34.07,0,0,0-3.83-10.23c-2.23-4-3.13-7.49.83-11.3,2.9-2.81,2.18-7.2,2.54-11,.34-3.45.25-6.95.27-10.42,0-9.54,1.21-19,1.62-28.52.24-5.77,2-11.52,1.94-17.41,0-1.65,0-3.3-.1-4.94a2.62,2.62,0,0,0-2.24-2.74c-8.48-1.44-13.32-7.89-18.72-13.56a25,25,0,0,1-2.8-3.38c-1.12-1.7-.48-3,1.54-2.76a76.2,76.2,0,0,1,9.74,1.66c2,.47,3.86,1.09,5.91.38a6.61,6.61,0,0,1,4.78.57,26.17,26.17,0,0,0,15.56,1.39c9-1.79,18.23-1.3,27.39-1.11,5.3.11,10.61.21,15.91.43,3.73.16,7.27-.88,10.84-1.61s4.19-2.2,2.4-5.43a97.49,97.49,0,0,0-6.21-10.38c-8.76-12-13.94-25.75-19.45-39.31-4-10-6.88-20.4-9.68-30.8-1.55-5.76-1.15-5.59,4.47-6.23,8.58-1,12,4.77,15.23,10.81,2.08,3.86,3.64,8,5.47,12,.69,1.5,1.2,3.25,2.31,4.35,5.21,5.16,7.57,12,11.19,18.1a54.4,54.4,0,0,1,5.87,14.73,56.46,56.46,0,0,0,11.2,22.36,7.68,7.68,0,0,0,8,3c8.29-1.3,16.73-1.62,25-3,11.6-1.95,23.32-2.28,35-3.35,3.81-.35,7.73-.4,11.29,1.44,2.9,1.49,3.23,2.44,1.54,5.1-2.22,3.51-3.89,7.56-8.36,9.09-.76.26-1.38,1.2-1.87,2a4.68,4.68,0,0,1-4.68,2.2,63.67,63.67,0,0,0-18,1.82,12.29,12.29,0,0,1-5.46,0c-7.79-1.89-15.31.27-22.89,1.31-3.08.43-3.59,1.89-1.66,4.54,2.47,3.39,5.12,6.66,7.82,9.89,6.58,7.85,14.35,14.58,20.72,22.65,2.49,3.15,6.54,5.29,10.23,7.21,4.83,2.52,7.64,6.63,9.93,11.16.68,1.34,1.19,2.29,2.57,2.16,2.68-.24,4.49,1.15,6.32,2.75a254.1,254.1,0,0,0,24.51,19.32c3.88,2.62,7.67,5.71,9.89,10.15a6.67,6.67,0,0,0,2.49,2.88c4.53,2.68,7.54,6.83,10.71,10.86a25.52,25.52,0,0,0,5,5.07c3.9,2.76,6.37,2.55,8.56-.48,1.28-1.77,3.34-3,4.41-4.87,5.77-10,14.36-17.5,21.88-25.95,3.7-4.17,7.29-8.29,7.36-14.29,0-1.68,1.07-2,2.55-2.12,8-.46,15.39,6.85,15.61,14.93a22.48,22.48,0,0,1-7.05,17.75c-7.25,7-12.72,15.58-18.94,23.49a54,54,0,0,1-7.88,8.37c-3.4,2.82-2.93,6.52-.29,9,4.88,4.64,9.06,9.92,14.09,14.5,4.24,3.86,9.29,7.58,12,12.51,2.91,5.26,7.37,8.89,10.7,13.57,3.19,4.5,6.53,8.69,11,12.07,4,3,5.65,8,9.24,11.47,9.86,9.59,17.15,21.28,25.53,32.07,7.05,9.09,14.25,18,21.78,26.71,2,2.33,3.64,5,5.46,7.52.79,1.1,1.84,1.94,3.24,1.62a3.14,3.14,0,0,0,2.52-3.19,15.15,15.15,0,0,0,.28-2.73c-1.21-8.82,1.32-17.47,1.18-26.24-.06-3.3-.25-6.6-.12-9.89s.67-3.54,4.08-3.39c1.83.08,3.77.5,5.46,0,4.3-1.17,7.08.92,9.46,3.92a27.27,27.27,0,0,1,3.82,6c3.92,9.27,8.13,18.52,7.56,28.94-.23,4.2-.77,8.4-1.31,12.57-.48,3.64-1,7.26-.51,10.95a7.39,7.39,0,0,1-.17,3.28c-3.12,9-3.6,18.49-5.88,27.63a5.73,5.73,0,0,1-2.52,3.46c-4.07,2.73-7.93,5.69-13.17,6.31-2.79.33-5.47,1.95-8.1,3.19a5.31,5.31,0,0,1-5.21-.08,64.44,64.44,0,0,1-23.61-21.65,20.58,20.58,0,0,1-3.42-10.85,13.09,13.09,0,0,0-3.34-9,36.8,36.8,0,0,1-6.41-10.14,30.43,30.43,0,0,0-7.52-10.65c-.53-.5-1.39-1.13-1.36-1.66.26-4.6-3.55-6.48-6-9.17-4.1-4.43-6.89-9.83-10.85-14.35-2.52-2.88-1.35-7.54-4.17-9.85s-5.28-4.41-6.79-7.63a4.78,4.78,0,0,0-1.52-2.23c-2.68-1.76-4.07-4-3.27-7.41.42-1.8-.38-3.46-2.48-3.45-2.27,0-3-1.54-4.19-3a197,197,0,0,1-16-22.94,16,16,0,0,0-2.7-3.44,53.28,53.28,0,0,1-8.54-11.31,111.19,111.19,0,0,0-16.31-20.59c-2-2.08-3.75-2-5.47.46a38,38,0,0,1-11,10.57,6.24,6.24,0,0,0-1.89,2c-5.67,9.37-14.39,15.83-22,23.38-4.9,4.88-10.05,9.5-13.64,15.65-4.72,8.06-10,15.77-15.05,23.64a14,14,0,0,1-5.84,5.64c-3.74,1.73-6.24,1.14-9.25-1.79-5-4.85-7.67-10.51-7.22-17.58a7.23,7.23,0,0,1,.78-3.12c2.93-5.31,6-10.49,10.62-14.59,2.35-2.09,4.49-4.26,8-4.2a3.14,3.14,0,0,0,3.47-3.44c-.14-2.55,1.27-4.25,2.87-5.64,6.15-5.38,12.21-10.91,19.32-15.06a5.67,5.67,0,0,0,2.55-3.47,16,16,0,0,1,5.73-7.88c6.4-5.21,11.13-12.05,17.21-17.59,3-2.75,2.79-5.54.31-8.83-.55-.72-1.24-1.35-1.84-2-4.56-5.25-9.13-10.49-13.53-15.89a144.32,144.32,0,0,0-19.47-19.21c-8.94-7.45-18.25-14.59-25.47-23.92-3-3.84-7.49-5.82-11.09-8.92-2.58-2.21-5-4.8-8.79-5.33-1.11-.16-2.18-1.32-3.09-2.2-7.71-7.56-15.88-14.64-23.17-22.66-4.19-4.62-7.87-9.62-11.79-14.43-3.39-4.16-4.76-4.43-9.79-2.66s-10.13,1.25-15.22,1.06c-9.51-.35-19-1-28.48-2.14a14.76,14.76,0,0,0-2.2-.13c-3.87.17-4.92,1.48-4.15,5.22a5.3,5.3,0,0,0,.65,2.07c5,6.54,3.45,14,2.82,21.21a58.41,58.41,0,0,0,0,13.15c.74,5.43,1.34,10.89,2,16.34a23.79,23.79,0,0,0,.79,4.3c1.65,5.19,2.83,5.95,8.34,5.51,6.92-.55,13.77-1.8,20.78-1.33,6.43.43,12,2.94,17.47,6,1.76,1,2.44,2.64,3.15,4.35,3.7,8.9,5.2,18.24,5.66,27.82a108.81,108.81,0,0,1-2.09,26.23c-1.23,6.27-1.51,12.61-2.8,18.82a13.87,13.87,0,0,1-4.79,8.38c-2.75,2.25-4,2.31-6.59-.11a9.38,9.38,0,0,1-2.42-2.94c-2.42-5.77-5.71-11.08-8.82-16.45-3.36-5.79-1.46-11.47-.25-17a22.91,22.91,0,0,0-2.42-16.8,32.57,32.57,0,0,1-2.49-5.48,40.91,40.91,0,0,0-4.07-8.39c-2.86-4.68-4.44-4.82-9.38-2.41-6,2.93-8.61,7.38-8.23,14.09a180.59,180.59,0,0,1-.94,26.8c-.52,5.59.84,11.27.69,17-.24,8.4.11,16.82.2,25.23.07,5.88-.75,11.67-1.41,17.5-.82,7.26-2.87,14.33-2.87,21.72,0,8.29-2.54,16.18-4.66,24.12a197.19,197.19,0,0,0-5.32,31.85,22.55,22.55,0,0,1-2.58,8.9c-.84,1.5-2.27,4-4.19.44-.75-1.41-2-1.13-3.09.12-3.77,4.24-5.23,4.64-9.3,1.31C1879.12,557.66,1877.49,558.68,1875.17,559Z"/><path class="cls-2" d="M1717,408.48a31.7,31.7,0,0,1,.71-12.26c2.1-8.08,0-15.85-2.77-23.07a115.42,115.42,0,0,1-5.39-19.47c-.9-4.72-3.42-8.4-5.85-12.21-1.34-2.09-4.17-1.77-4.43.62-.46,4.45-3.19,4.91-6.51,4.7a43.62,43.62,0,0,0-16.62,2.44c-3.72,1.23-7.59,1.19-11.4,1.58-5.31.54-8.65-2-9.94-7.25a38.54,38.54,0,0,1-1-4.85c-.23-1.94-.72-3.57-2.78-4.31-2.77-1-3.41-3.11-2.76-5.74s.36-5-2-6.92c-2-1.63-1.23-3,.65-4.35,4.13-2.95,4.69-3,8.32,1.2,1.63,1.89,3.12,2.62,5.68,1.57,6.58-2.71,13.3-5,19.66-8.28a90.34,90.34,0,0,1,12.69-5.19c5-1.64,7.73-4.69,5.74-8.95-3.08-6.58-3.19-13.81-5.75-20.49-1.65-4.34-2.83-9-4.56-13.36-1.67-4.18-3.26-8.36-4.71-12.63-1.24-3.65-2.66-7.23-1.84-11.19.52-2.52-.85-4.16-2.46-5.76-2.36-2.35-3.73-5-2.29-8.4.92-2.17-.09-4.34-.12-6.51,0-2.34.38-4.29,2.18-5.92s3.45-3.7,3.55-6.55a6.17,6.17,0,0,1,4.67-5.6c4-1,6.53-3.88,9.78-5.78,4.67-2.71,6-2.81,9.56.84,2.63,2.65,6.2,3.87,8.82,6.5,3.92,3.93,6.83,8.6,9.84,13.18,1.94,3,3.92,5.64,7.24,7.24,2.84,1.38,4.55,3.49,3.58,7.11-.82,3.08.53,5.94,2.52,8.1a9.9,9.9,0,0,1,2.55,6.45c.38,5.47.62,10.9-.67,16.36a61.44,61.44,0,0,0-1,10.35c-.18,2.94-.33,5.83-1.85,8.49a7.27,7.27,0,0,0-.29,6.37,11.9,11.9,0,0,1,1,2.56c.64,5.57,3.84,7.94,9.28,7.83a7.44,7.44,0,0,1,2.64.69c4.71,1.75,4.86,2.43,3,7.1-1.47,3.73-2.62,7.65-2.14,11.73.39,3.38-.8,5.87-3.76,7.21-5.89,2.66-7.51,7.18-7.23,13.36.42,9.14.16,18.32.16,27.48,0,6.26,2.3,12.2,2.4,18.49.05,3.07,1.78,4.05,4.84,3.86a5.93,5.93,0,0,0,1.63-.28c11.12-4.23,23.33-4.75,34.17-9.92a10.92,10.92,0,0,1,6.4-.9c4.75.6,13.36,7.89,14.19,12.48a16,16,0,0,0,3.18,7.44c1.36,1.68,1.33,3-.08,4.81-4.87,6.3-10.86,10.81-18.6,12.92-10.37,2.84-19.49,8.4-28.66,13.71a14.18,14.18,0,0,0-7,10.12c-.56,3.78-2.88,5.73-5.9,7.31-4.69,2.47-9.59,1.83-14.49.94a2.66,2.66,0,0,1-1.45-.74c-4.76-5.8-11.6-9.9-12.56-18.64C1718.15,420.15,1716,414.37,1717,408.48Z"/><path class="cls-2" d="M2072.17,226c.63-5.61,1.18-11.22,1.93-16.81.44-3.24,1.36-6.42,1.76-9.67.53-4.14,2.73-7.53,4.51-11.13,1.05-2.12,2.47-2.07,4.53-1.29,7.76,3,13,7.89,14.21,16.5.43,3.12,2,5.85,3.61,8.56,3.55,6.06,6.38,12.19,4.58,19.67-.78,3.29-.18,6.8-1.92,10.09-2.23,4.22-7.84,7.7-12.48,6.6-6.16-1.46-11.54-4.21-15.38-9.66C2074.74,234.93,2071.44,231.38,2072.17,226Z"/><path class="cls-1" d="M208,277.19c0-10.34.69-19.55.33-28.81a31.15,31.15,0,0,0-3.92-13.51,16.52,16.52,0,0,1,0-16.32A20.48,20.48,0,0,0,206,202.67c-2-7-1.22-14.17-1.44-21.22a16.09,16.09,0,0,1,4.23-11.78,7.45,7.45,0,0,0,2.06-4.29c.9-5.41,4.54-8.17,9.56-6.27,6.63,2.5,14.14,3.32,18.46,10.78,2.35,4.06,6.86,6.91,9.83,11,2.49,3.4,6.71,2.29,9.92.94,15.05-6.32,30.85-10.71,45.59-17.84a55.82,55.82,0,0,1,31.07-5.28c15.76,1.69,31.31.16,45.81-7.2,4.27-2.17,8.38-4.49,11.34-8.39,5.89-7.77,14.37-8.13,23-8.05a4.85,4.85,0,0,1,4.12,2.43,73.45,73.45,0,0,1,10.2,22.16c.91,3.49-.23,5.62-3.77,6.15-10,1.52-17.95,7.05-26,12.51-17,11.53-36.27,16.89-56.28,19.86a46.61,46.61,0,0,0-15.38,5.13c-11.94,6.41-24.77,10.64-37.39,15.43-9.56,3.64-19.85,4.51-29.23,8.29a33.48,33.48,0,0,0-18.94,18.24c-3.87,9.07-5.83,18.14-4.4,28.17A232.1,232.1,0,0,1,240.24,304c.11,11-2.16,21.7-3.18,32.55-1.26,13.46-1.2,27.16-5,40.22-4.84,16.75-6.16,34.62-15.6,49.94C210,437.18,205,448.47,199.55,459.55c-5.72,11.71-11.32,23.49-16.31,35.52-2.22,5.35-2.92,11.37-4.08,17.13a127.2,127.2,0,0,1-3.7,13.71,17.85,17.85,0,0,1-4.77,7c-1.3,1.32-2.41,2-4.28.74-2.24-1.46-4.93-1.53-7.57-1.52-1.65,0-3.51.29-4.74-1-2.46-2.63-5.86-2.89-9-3.86-6.56-2-7.42-3.31-6.45-10.24a50.19,50.19,0,0,1,6.21-17.34c11.19-20.18,18.1-42.3,28.62-62.77,3.69-7.17,7.3-14.39,11.09-21.5,7-13.15,10.25-27.44,13.59-41.79,4-17.4,4.9-35.13,6.86-52.77C206.71,305.91,207.37,291,208,277.19Z"/><path class="cls-1" d="M373.51,348.85c.58-6.78,2.72-13.34,3.91-20.07a6.33,6.33,0,0,1,3.18-4.54c7.25-4,13-10.14,20.66-13.64,21-9.59,43-15.66,65.66-19.53,3.93-.67,5.58-2.44,6.1-6.42,1.87-14.09,3.56-28.23,7.46-41.95,3.26-11.45,6.94-22.71,16.18-31.09,4-3.65,4.91-3.74,8.53.46,8.85,10.25,8.84,21.82,5.37,34.12-2.89,10.25-6,20.51-6.74,31.22-.22,3.1-1.82,7.09,1.92,9.1s6.71-.85,9.29-3.31c5.9-5.62,12.79-4.4,19.3-2.2,5.57,1.87,10.68,5.09,16,7.66,1.65.8,1.79,1.8,1,3.39-1.56,3.21-.3,5.79,1.81,8.41,5,6.18,3.44,13.44,2.9,20.47-.11,1.38-1.39,1.92-2.55,2.14-4.2.79-8,2.75-12.3,3.45-11,1.79-21.89,4.05-32.82,6.1-4.7.88-7.68,3.46-8.49,8.3a59.81,59.81,0,0,0-1.07,6.31c-.83,15.44-4.42,30.38-7.71,45.42-3.54,16.18-6.42,32.54-4.62,49.32a57.89,57.89,0,0,1-1.22,17.68c-1.33,6.47-2.77,12.92-3.81,19.43a52.78,52.78,0,0,0,0,16.26c2.08,13.89,1.34,27.93,1.65,41.92.51,23.54-1.68,46.89-4.71,70.18a23.48,23.48,0,0,1-5.81,12.74c-2.54,2.87-5.49,3.82-8.88,2-5.58-3-11.64-3.93-17.77-4.6a15.57,15.57,0,0,1-6-2.21c-10.31-5.87-19.35-13.41-27.78-21.7a4.23,4.23,0,0,1-1.57-3.79,3.25,3.25,0,0,1,1-1.71,1.2,1.2,0,0,1,1.82.47c3.91,7.7,11.65,6.23,18.14,7.37,3.93.69,8.05.38,12.08.28,5.08-.14,5.94-.89,7.56-5.81,1.79-5.46,2.09-11.21,2.71-16.83,1.28-11.54,3-23,3.64-34.66.38-7,2.76-13.8,2.54-21-.19-6.17-.38-12.32-.85-18.46-.8-10.43-.89-20.79,2-31,1.27-4.44-.08-9-.34-13.43-.92-16-2.26-32,1-47.94,1.6-7.87,1.46-16.18,4.16-23.75,3.94-11.07,3.67-22.53,4.71-33.89a43.89,43.89,0,0,0-.26-9.93c-.5-3.62-2.81-5.17-6.53-4.83a24.43,24.43,0,0,0-8.12,2.48c-10.7,5-21.94,8.61-33,12.71-9.79,3.64-18.37,2.92-27.53.33-5-1.4-9.92-.39-14.87-.69C378.3,349.47,375.88,350.48,373.51,348.85Zm93.28,147.47a32.52,32.52,0,0,0,.57-11.24c-.17-1.17-.92-1.54-2-1.44s-1,.66-1.4,1.6C461.69,490.68,461.6,490.94,466.79,496.32Zm-.51,11.18a1.51,1.51,0,0,0-1.62,1.74,2.07,2.07,0,0,0,2.2,2.14,1.81,1.81,0,0,0,1.92-2.25C468.59,507.66,467.53,507.4,466.28,507.5Z"/><path class="cls-1" d="M323.8,346.69a26.17,26.17,0,0,0,.59,4.09c.79,4,.89,7.76-2.66,11.06-2,1.85-4.52,3.71-5,6.84a1.91,1.91,0,0,1-1.23,1.37c-2.79,1.24-3.08,3.69-2.63,6.14a5,5,0,0,1-2.11,5.51,57.56,57.56,0,0,0-5.91,5.67c-1.41,1.39-1.22,3.86-3.2,4.89-.38,2.7-2.82,3.81-4.32,5.64-.67.81-1.48,1.45-1.28,2.72s-.84,1.91-1.61,2.57a19.92,19.92,0,0,0-4.52,5.62,21,21,0,0,1-4.79,6.11c-4.91,4.19-8.15,9.54-11.19,15.08a11.3,11.3,0,0,0-.48,2.12,7,7,0,0,1-1.49,3.09c-2.16,1.9-3.12,4.44-4.35,6.87a20.37,20.37,0,0,1-3.87,5.74,6.86,6.86,0,0,0-2,3.86c-.31,2.8-2,4.85-3.21,7.13-.65,1.2-1.57,2.22-2.22,3.45a4.91,4.91,0,0,1-3.84,2.44c-1.14.17-2.26.49-3.39.74s-2.12,1.65-3.17.77c-1.66-1.4-3.84-3-3.68-5.24s-.61-4.12-.92-6.16c-.14-.94-.35-1.87-.53-2.79-.39-2,.25-3.25,1.93-4.55a13.78,13.78,0,0,0,5.49-9.13,4.79,4.79,0,0,1,2.28-3.47c3.19-2.31,6.16-5,7.41-9,.43-1.4,1.6-2.21,2.56-3.16,1.69-1.67,3.21-3.38,3.21-5.95a3.41,3.41,0,0,1,1.88-2.76c2.56-1.75,4.37-3.83,4.33-7.21a5.52,5.52,0,0,1,2.5-4.59c2.57-1.73,3.16-4.46,3.66-7.06a19.8,19.8,0,0,1,1.59-4.71c.78-1.66,2.46-3,2-5.14a1.3,1.3,0,0,1,.65-1c3.61-1.66,4-5.73,6.34-8.37,1.5-1.71,1.59-4.08,1.64-6.32a5.48,5.48,0,0,1,2-4.4c2.22-1.9,2.28-3,.75-5.73-.48-.84-.22-1.23.27-1.9,2.12-2.87,2.13-4.9-.25-7.74a3.75,3.75,0,0,1-.81-3.77,8.61,8.61,0,0,0-.28-6.46,2.67,2.67,0,0,1,.68-3.45,6.81,6.81,0,0,0,2.83-5.37,9.17,9.17,0,0,1,1.46-3.77,2.9,2.9,0,0,1,2.48-1.17,10.11,10.11,0,0,1,4.05.57,7,7,0,0,0,4,.11c2.18-.6,4.38.35,6.58.15a1.08,1.08,0,0,1,.78.45c1.13,1.7,3,2.29,4.71,3,1.05.47,1.85,1,1.64,2.33a2.11,2.11,0,0,0,.7,2,3.66,3.66,0,0,1,1.5,3,1.63,1.63,0,0,0,.36.85C323.72,341.48,324.08,342.83,323.8,346.69Z"/><path class="cls-1" d="M333.37,470.82c0-6.91,0-13.24,1-19.53.86-5.19,1.36-10.45,2.19-15.65a27.07,27.07,0,0,1,1.75-5.73c2.27-5.56,4.36-11.2,7-16.62,1-2,1.52-4.11,2.42-6.13a4.77,4.77,0,0,0-1.29-5.79,4.9,4.9,0,0,1-1.71-3.83,33.7,33.7,0,0,0-1.16-5.24,9.84,9.84,0,0,1-.35-1.86c-.05-1.36.51-1.9,1.69-1.42a26.83,26.83,0,0,1,8.75,5.58c1.5,1.46,1.37,3.51,1,5.38a15.22,15.22,0,0,0-.21,6.58,8.72,8.72,0,0,1-.54,4.67,27.27,27.27,0,0,0-1.14,9.68,62.78,62.78,0,0,1-1.49,14.75c-1.44,6.69-2.42,13.49-3.6,20.24-1,5.85-1.05,11.76-1.17,17.67a210.53,210.53,0,0,1-3,33,141.87,141.87,0,0,0-2.06,33.12c.07,1.15-.1,2.31-.13,3.47-.08,2.92-.52,5.79-.06,8.77s-1,6-1.54,8.95a5.6,5.6,0,0,1-2.12,3.07c-2.34,2-2.26,2-4.6-.17a42.18,42.18,0,0,0-3.74-2.92c-3.33-2.44-5.45-6.83-3.64-11.1a7.81,7.81,0,0,0,.18-3.76c-.27-3.21.88-6.38.18-9.62a5.19,5.19,0,0,1,.54-3.09c1.87-3.92,2.14-8.17,2.4-12.35.43-7,.69-14,2-20.79C332.84,490.29,333,480.27,333.37,470.82Z"/><path class="cls-1" d="M300.05,83.1c.4,2.9-.67,5.62-.93,8.44a8.64,8.64,0,0,1-5.08,7.2c-4.39,2.24-8.59,4.46-13.93,4.57-5.55.11-11.05,1.85-16.59,2.82-2.07.36-4.39,1.4-6.23.15-2.28-1.55-5.89.33-7.13-2.26-1.8-3.77-5-6.78-5.58-11.28-.58-4.87-2.06-9.47,1.35-14.2,1.43-2,1.82-5.25.95-8.2-.64-2.18-.31-4.45,2.29-5.21,3.19-.95,5.16-3.1,6.93-5.73A8.46,8.46,0,0,1,262,55.86c8.84-1.49,16.74-1,24.85,4.54,6.19,4.25,9,9.85,12.23,15.75C300.28,78.34,299.82,80.77,300.05,83.1Z"/><path class="cls-1" d="M393.21,445.05a5.18,5.18,0,0,1,.16-1.61c3.49-7.25,7.18-14.39,13.22-19.94a2.8,2.8,0,0,1,4.38.34,12.84,12.84,0,0,0,9.36,4.41c2.46.16,3.5,2,4.59,3.95,3.47,6.17,5.86,12.91,10.07,18.7,1.2,1.64,1.92,4.22-1.56,4.79-2.37.39-2.65,2.45-3.51,4.07a14.52,14.52,0,0,1-4.31,5.52c-7.19,5.09-14.23,4.55-20.94-1.91-2.38-2.3-4.41-5-7-7C393.7,453.3,394.06,448.91,393.21,445.05Z"/><path class="cls-2" d="M1181.88,248.92c-1.34-9-1-18.29-3.23-27.23-1.48-5.83.78-9.4,6.52-11a40.86,40.86,0,0,0,4.59-1.81c2.1-.89,4.39-1.57,6.33-.26,2.63,1.76,4.88,1,7.16-.33,5.54-3.21,11-6.5,16.57-9.74,10.74-6.29,21.77-11.63,34.62-12,6.94-.23,13.83-1.4,20.78-1.9a63.88,63.88,0,0,0,12.8-2.71c5.48-1.57,11.25-1.25,16.72-3,2.47-.8,5.25.26,8.08-.22,8.26-1.4,16.46-3.25,25-3.36,9.7-.11,19.21-2.46,28.65-4.52,8.47-1.85,17.1-1.8,25.6-3.1,6.33-1,12.84-.58,19-2.59,2.45-.79,5.11-1.43,5-4.89-.08-1.68,1.13-1.54,2.24-1.59,2.31-.09,4.15,1.39,6.27,1.88,8.09,1.85,14.85,6.06,20.84,11.61,4.08,3.78,6.69,8.7,8.91,13.64,2,4.34.41,8.27-3.75,10.91a88.47,88.47,0,0,0-15.09,11.8c-5.81,5.75-13,6.61-20.4,4.94-8.62-2-17.18-.46-25.75-.61-6.2-.11-12.41,1.09-18.62,1.29-7.23.23-13.92,3-21,3.89a61.5,61.5,0,0,1-7.05.76,43.16,43.16,0,0,0-14.6,2.22,11.77,11.77,0,0,1-3.21.67c-13.51.8-26.55,4.74-40.08,5.67-7.55.51-15,3.08-22.4,5.08a12.39,12.39,0,0,0-7.78,6.56A69.15,69.15,0,0,0,1249.4,251c-4.43,15.23-11.48,29.31-18.84,43.24-4.46,8.44-8.86,16.88-12.92,25.51-1.33,2.81-2.9,5.52-4.5,8.19-4.14,6.92-8.39,13.75-10.53,21.68a67.21,67.21,0,0,1-6.47,15.09,83.35,83.35,0,0,0-8.38,21.41c-2.21,9.5-6.66,18.23-10.44,27.16-3.85,9.1-7.67,18.28-12.41,26.93-7.39,13.45-14.66,27-24.1,39.25-5.8,7.54-10.37,15.9-14.61,24.47-5,10.17-10.7,20-16.28,29.88-2.44,4.32-4,4.55-8.38,2.21a18.33,18.33,0,0,1-3.08-2.26c-4.56-3.92-4.27-3.72-1.49-9.14,6.07-11.88,13.32-23.05,20.26-34.4,5.14-8.4,10-17,15.92-24.92a43.11,43.11,0,0,0,3.63-6.16c6.49-12.53,14.91-24,20.9-36.78,7.06-15.12,12.82-30.76,18.53-46.41a310.5,310.5,0,0,1,18.91-42c.61-1.13,1.05-2.34,1.58-3.51,2.27-5,4.54-9.9,8.35-14.08s6.26-9.47,9-14.4c8.72-15.43,18.9-30.06,25.66-46.56,1.6-3.89,3-7.89,4.22-11.9,1.14-3.64.16-5.23-3.41-4.84-11.52,1.27-22.32,4.38-30,13.93-3.62,4.49-8.52,6.83-13.75,8.69a6.75,6.75,0,0,1-4.83-.4,24.6,24.6,0,0,0-4.15-1.37c-4.59-.91-5.85-2.27-5.95-6.74C1181.85,251.48,1181.88,250.2,1181.88,248.92Zm107.76-41.17c-4.8,0-8.64-.64-12.52,0a1.48,1.48,0,0,0-1.42,1.39,1,1,0,0,0,.89,1.13C1280.71,210.25,1285.1,211.78,1289.64,207.75Zm65.27-6c.1,1,.86,1,1.51,1,1,0,2.28.07,2.48-1.3.13-.89-.74-1.06-1.45-1.08C1356.36,200.34,1355.32,200.46,1354.91,201.72ZM1348,214.19a1.7,1.7,0,0,0-2.08-1.84c-.73,0-1.43.28-1.47,1.22a2.07,2.07,0,0,0,1.85,2.26C1347.34,216,1347.9,215.21,1348,214.19Z"/><path class="cls-2" d="M1359.92,347.62c.12-1.83.25-3.65.34-5.48a3,3,0,0,1,1-2.45c.85-.65,1.64-1.59,2.88-1.14s.9,1.42,1,2.31c.62,4.59.83,4.68,4.83,2.73,4.22-2.06,7.32-5.46,10.61-8.64,2.1-2,4-4.31,6.09-6.32,1.11-1.05,2.81-3.59,3.29.56.12,1,1.12.58,1.76.3a18.37,18.37,0,0,0,6.14-3.57,23.87,23.87,0,0,1,7.54-5.36c1-.44,2.26-1.07,2.43-2.09.59-3.53,2.57-3.65,5.74-3.68,4.91,0,9.92-1.11,13.39-5.18,1.06-1.25,2.22-.85,3.38-1.17,3.68-1,7.6-.82,10.05-5.29,1.5-2.71,5.9-3.22,9.38-3.7,3.71-.52,4.22-.85,3.89-4.37-1.05-11.19-3-22.13-9.91-31.49-1.14-1.55-3.14-3.43-1.64-5.32s3.84-.81,5.64,0c3.28,1.5,6.68,1.72,10.19,1.8,9,.2,17.64,3,26.42,4.75a10.42,10.42,0,0,1,7.85,6.31c1.18,2.8,3.23,3.42,5.73,1.79,3.4-2.23,6.88-2.13,10.48-.76a8,8,0,0,0,4.84.52c5.34-1.28,10.51-.37,15.66,1.14,1.81.54,3.14,1.17,1.86,3.42a4.74,4.74,0,0,0-.45,2.1c-.25,6.78-.31,7.25-6.71,8-4.66.55-8.68,2.72-13.08,3.87a4.66,4.66,0,0,0-2.28,1.42c-1.92,2.35-4.44,3.68-7.14,4.93s-3,2.72-1,5.1c1.18,1.39,2.64,2.56,3.76,4,1.88,2.39,1.57,3.56-1.16,5.51a8.2,8.2,0,0,0-3.15,9.75c.71,1.7.08,2.7-.65,4-2.32,4.15-2.7,8.12.67,12.12a8.2,8.2,0,0,1,2,7.85c-.9,3.34-2.33,7.29,2.3,9.5-.68,6.08,4.95,10.05,5.33,15.69.44,6.35,1.2,12.85-3.12,18.43a1.63,1.63,0,0,0-.14,2c2.49,4.28.88,8.38-.42,12.6-2.1,6.8-6.06,12.76-8.42,19.42-.84,2.33-2.66,4.67.32,6.86.91.67.4,1.63.17,2.52a10.63,10.63,0,0,1-1.74,4,31.37,31.37,0,0,0-5.43,12.28,36.32,36.32,0,0,1-4.18,10.11c-.92,1.54-1.46,3.13,1.62,3,1.89-.1,1.91,1.86,1.18,2.81-1.89,2.45-2.19,5.41-3.15,8.15-.8,2.32-2,3.48-4.69,3.68-4.08.3-4.84,1.48-4.44,5.78.29,3.18.69,6.24-2.4,8.43a3.06,3.06,0,0,0-1.19,2.94c.47,4-1.08,7.55-2,11.27-.7,2.75-.64,5.77-1.17,8.4-1.11,5.49-1.18,11.77-6.43,15.72a8.8,8.8,0,0,0-2.14,2.48c-1.62,2.77-3.47,4.08-6.68,2.11-2.57-1.57-4.84.7-7.25,1s-3.19-4.21-5.9-3.13c-5,2-8.55-2.58-13.07-2.49a2.06,2.06,0,0,1-2-2.21c.24-2.82-1.22-4.19-3.49-5.54-3-1.77-4.36-5.32-7.32-7.34-1.33-.91-.16-2.3.7-3.28,1.8-2.05,3.66-4.05,5.43-6.12,4.49-5.24,7.09-11.53,10.63-17.29a11.69,11.69,0,0,0,1.3-3.59c1.91-8.64,6-16.48,9.09-24.68,5.25-13.84,12-27.08,16.68-41.15,3.43-10.23,5.38-20.75,7.62-31.24,1.38-6.48-.25-12.74-1.24-19-.93-5.91-4.1-11.42-3-17.68a3.33,3.33,0,0,0-.81-2c-1.88-2.77-2-5.95-1.7-9,.63-6-.67-11.67-1.83-17.4-.89-4.34-2.66-5.35-7.12-4.22a92.14,92.14,0,0,0-25.58,11c-4.18,2.58-8.6,4.75-12,8.53-1.62,1.77-4.44,2.44-6.69,3.64-5.25,2.78-8.19,7.6-11.15,12.46-3.8,6.23-7,7.42-13.6,4.58a29.63,29.63,0,0,0-16.12-1.88c-5.57.74-5.89.49-6.22-5.13-.06-1.09,0-2.19,0-3.29ZM1461,497.35c-.82,2.57,1,4.77,2.44,7,1,1.68,2.44,1.6,3.48.08,2.32-3.35,3.88-7,1.73-11-.88-1.66-.68-2.7,1-3.53a17.21,17.21,0,0,0,2.37-1.34,2,2,0,0,0,1-2.32c-.39-1.09-1.36-1-2.27-.89C1464.36,486,1461.14,489.84,1461,497.35Zm33.48-102.69c.94-.12,1-.87,1-1.57s-.18-1.47-1.1-1.49-1.08.77-1,1.5S1493.56,394.54,1494.5,394.66Z"/><path class="cls-2" d="M1229.94,457a13,13,0,0,0-3.93,4.94c-2.11,5.43-6.25,9.42-9.7,13.89-2.72,3.52-3.27,3.52-7.47,2.32-2.8-.79-5.65-2-8.48-2-6.48,0-9.64-4.88-13.28-8.75-2-2.09-.64-5.39.38-7.85,2.9-7.05,5.93-13.93,11.28-19.78a84.33,84.33,0,0,0,14.1-20.74c1.05-2.22,2.86-3.79,4.4-5.59,3.8-4.43,4-5.81,1.29-10.71a87.14,87.14,0,0,0-7.08-10.45,41.94,41.94,0,0,1-8.47-22.8c-.35-5,2.14-8.33,5.45-11.37,1.29-1.19,2.93-1.16,4.67-.95,5.89.71,10,3.83,13.28,8.65,2.85,4.25,5.91,8.38,9.11,12.38,2.83,3.52,4.22,3.69,6.91.21,5-6.45,10.36-12.65,11.51-21.41.56-4.28,1.72-8.51,2-12.89.26-3.56,2.22-6.61,4.09-9.51,3.64-5.65,8.06-10.71,10-17.49,1.35-4.76,7.54-5.15,10.46-1.13a8.18,8.18,0,0,1,1.82,3.95,13.65,13.65,0,0,0,2.31,6.1,5.81,5.81,0,0,1,1.3,3.56c-.26,3.16,1,5.6,3.12,7.87,2.6,2.72,2.51,5.7.64,9-5.09,9.11-9.94,18.34-14.88,27.53a40,40,0,0,0-2.5,6c-2.67,7.76-5.37,15.52-9.37,22.76-1.65,3-4.52,4.72-6.53,7.34a10.53,10.53,0,0,0-2.14,9.25c2.08,9.07,3.31,18.36,8.06,26.68,3.37,5.91,4.07,12.88,6.84,19.07a9.5,9.5,0,0,1,.46,4.33c-.42,6.07.43,12.1.87,18.1.35,4.8,2.33,9.5,3.71,14.21a58.36,58.36,0,0,1,1.9,9.1c.63,4.94,2.79,9.43,5.35,13.67,1.47,2.42,2.35,4.63,1.55,7.69a15.28,15.28,0,0,0,.43,8.69c.93,2.66-.07,4.28-2.15,5.5a17.89,17.89,0,0,1-7,2.8c-5.17.67-10.24,2-15.52,2.3-2.28.13-4.09.59-6-1.06a5.66,5.66,0,0,0-3.63-1c-3.53.13-5.34-1.71-6.53-4.76-.62-1.58-.91-3.52-3.47-3.64-1.49-.07-1.14-1.62-.64-2.58,2.29-4.44.83-8.6-1.18-12.52-.91-1.78-1-3.81-2.19-5.51a1.65,1.65,0,0,1,1.42-2.72c1.75-.1,2.23-1.13,1.69-2.62-2-5.32-1.14-10.88-1.54-16.33-.1-1.4.74-3.12-2-3.63-2.38-.44-1.22-3.11-.29-3.9,4.33-3.67,2.51-8.37,2.39-12.71a17.91,17.91,0,0,0-1.67-6.34c-1.87-4.35-3.94-8.59-3.9-13.5C1231.14,458.36,1230.56,457.91,1229.94,457Z"/><path class="cls-2" d="M1351.62,153.61c-.07,4.67-4.3,10.75-9,12.11-5.53,1.62-11,4.1-17,1.34a11.7,11.7,0,0,0-5.43-.5,11.32,11.32,0,0,1-11.09-5.71c-2.83-4.74-6.88-7.75-11.49-10.59-4.21-2.6-6.09-7.51-8.61-11.68a2.93,2.93,0,0,1-.13-.53c-3-8.54-2.95-8.51,4.27-14.15A37.12,37.12,0,0,0,1297,120c2.28-2.39,5-3.33,7.85-1.42,2.34,1.55,4.22,1.37,6.56.07s5.51-1.19,8-1c10.14.94,18.94,4.31,24.48,14,3.5,6.09,6.62,12.13,7.38,19.19Z"/><path class="cls-2" d="M1379.75,441.92c.6,7-.26,12.54-6.8,15.4a3.18,3.18,0,0,0-1.92,2.51c-.4,3.23-2.62,4.08-5.32,4.48-3,.44-5.2,2.58-7.83,3.84-4.31,2.06-4.26,2.17-7.61-.78-.41-.36-.72-1-1.18-1.12-6.56-1.75-10.68-7.36-16.45-10.35-5.31-2.74-5.31-3.69-3.34-9.53,2.61-7.77,7.35-14.17,11.79-20.86,2.92-4.41,5.37-9.06,9.54-12.55,3.8-3.18,5.59-3.31,9.39.08s7.14,2.14,8.15-2.7c.11-.52-.09-1.12,0-1.63.58-2.06,2.11-2.49,3.67-1.08a6.71,6.71,0,0,1,2.06,5.46c0,2.05.08,4.17,1.36,5.77,2.73,3.39,3,7.27,3.13,11.36S1380,438.48,1379.75,441.92Z"/><path class="cls-2" d="M1295.63,177.1c0,1-.72,1.12-1.39,1.15-.48,0-1.31-.13-1.4-.4-.25-.75.31-1.27,1-1.43A1.37,1.37,0,0,1,1295.63,177.1Z"/></svg>