<svg id="BG" xmlns="http://www.w3.org/2000/svg" viewBox="0 0 1593.64 889.66"><defs><style>.cls-1{fill:#9a4c2e;}</style></defs><path class="cls-1" d="M381.92,716.14c-1.89,2.72-5.19,3.23-7.86,4.18-5.55,2-11.44,3.09-17.24,4.32s-9.56,3.43-12.29,7.61l8.27-2.16c.17.38.35.75.52,1.13-2.24,1.36-4.32,3.27-6.76,4-3.74,1.08-5.35,3.73-6.77,6.83-4,.1-8.07.37-12.1.25s-8-.21-12,1.44c-1.44-3.79-1-7.9-5.29-9.36.94-3.88.38-7.39-.48-11.06a24.35,24.35,0,0,1,0-10.51c1.56-7.06-1.4-10.66-8.66-9.68-.59.08-1.2,0-2.95,0l3.16-2.46a4,4,0,0,0,0-1.5c-1.32-4,1.05-7.42,2-11,1.27-4.74,5.35-6.72,9.78-7.39a162.4,162.4,0,0,1,16.33-1.49c5.15-.23,9-2.45,14.51-8.12-1.19-1.22-2.35-2.49-3.6-3.68-1.08-1-2.81-1.62-1.47-3.75.28-.44-.52-1.83-1.12-2.52-5.53-6.3-12.39-10.3-20.81-11-6.54-.52-7.1-.59-10.75-5.8a3.88,3.88,0,0,0-.91-.3c-1.66-.12-3.5,1.31-4.94-.62a9.13,9.13,0,0,1-1.91-7.27c1.14-6.65,5.82-9.82,11.73-11.47a48.85,48.85,0,0,1,9.55-1.59c5.68-.42,10.56-2.76,15.28-5.67,3.15-1.94,6.41-3.71,9.51-5.73a114.1,114.1,0,0,0,10.67-7.5,14,14,0,0,0,3.67-5.46c2.77-6.85,7.26-12.54,11.77-18.26,1.46-1.85,2.41-4.12,3.92-5.91a72.82,72.82,0,0,1,5.5-5.32c1.12-1.07,2.22-2.17,4-3.92-9.37.8-17.69,1.47-26,2.26-1.92.18-3.88.67-4.86,2.7,2.19,1.74-1.53,2.08-.73,3.63l14.27-3.56c.1.27.19.54.28.8-2.18.89-4.42,1.68-6.54,2.7-3,1.44-5.88,3-8.8,4.6-.7.38-1.31,1.22-2,1.25-4.76.22-8.26,3.4-11.63,5.88-4.21,3.1-9,4.89-13.27,7.69a34.2,34.2,0,0,0-4.07,3.76c-5.53-1.18-11.53-1.75-17-3.81-5-1.89-10.45-3.34-14.95-7.29l3.14-3.48c-1.6-2.35-.3-4,1-6.3,2.6-4.43,6.09-8.75,4.51-14.71-.76-2.9.37-5.64,2.81-7.77a12.19,12.19,0,0,0,4-8c.61-4.88,2.91-9.6.78-15l3.17.53c.81-1.72,1.78-3.2,3.81-3.71,3.74-.95,7.45-2,11.19-3,2.64-.68,5.33-1.17,7.93-2a6.21,6.21,0,0,0,2.69-1.95c3.11-3.68,6.12-7.46,9.7-11.85-2.32-.14-4.15-.38-6-.31-2.57.09-5.14.5-7.71.63a4.85,4.85,0,0,1-3.68-1.22c-1.6-1.3-4.61-1.54-6.86-1.22-5,.73-8.7-1-11.76-4.78-1.19-1.49-2.85-2.61-4-4.13a5.62,5.62,0,0,1-1.19-3.45c.36-4.73-2.72-7.8-5.22-11.09-.53-.7-2.27-.78-3.41-.67-5.72.56-10.67,3.47-15.78,5.7-8,3.47-15.84,7.23-23.47,11.37-5.77,3.14-11.1,7.06-16.81,10.74,1.19,7.74-3.09,15.64,1.33,23-5.49,6.31-12.33,10.31-19.58,13.68a15.73,15.73,0,0,1-8.93,1.29c-5.11-.66-10.26-1-15.4-1.3-1.91-.09-3.5-.37-4.69-1.93-2.23-2.93-4.86-5-8.75-5.49-1.38-.17-2.59-1.7-4.28-2.89l-4.73,2.2c-5.11-2.4-8.27-7-11.22-11.82-3.67-6-7.39-12-11.38-17.85-6-8.82-11.57-17.88-15.07-28a9.07,9.07,0,0,1-.32-1.55c10-10.77,16.58-22.81,17.72-37.55,1.84-.11,3.2.09,4.31-.34a5.86,5.86,0,0,0,2.67-2.28c1.28-2.11,2.23-4.42,3.42-6.58a2.5,2.5,0,0,1,1.55-1.1c1.94-.36,2.83-1.53,3.69-3.27a4.22,4.22,0,0,1,5.74-2,8,8,0,0,0,9.55-2.05c2.95-3.22,6.24-4,10.33-3.84,2.51.1,5-.85,7.58-1.08,2.14-.19,4.31,0,6.76,0-.18,2.52,0,4.27,1.35,6.2,1,1.34.4,4.5-.5,6.36a32.33,32.33,0,0,0-3,14.56c0,5.59.17,11.17.4,16.76.12,3.15,1.48,4,4.43,2.84,13.32-5.31,26.69-10.5,39.87-16.11,7.54-3.21,14.71-7.26,22.14-10.74,11.8-5.54,23.68-10.93,35.54-16.33,2.94-1.34,6-2.43,8.95-3.7,1.13-.49,2.17-1.18,3.67-2-3.39-2.5-4.76-6.66-9.5-6.67-1.06,0-2.66-1.56-3.06-2.73-1-2.81-3.23-3.93-5.43-5.22-3.87-2.28-7-5.14-8.58-9.52a9.32,9.32,0,0,0-2.15-3.19c-5-5.18-8-11.92-13-17.11-3.86-4-3.41-9.33-3.63-14.18a175.51,175.51,0,0,1,.56-20.5c.31-4.34,2.84-7.84,6-10.74,4-3.72,7.51-8,12.6-10.52,1-.48,2.27-1.39,2.41-2.26.64-4,4.11-5.64,6.63-7.7,3-2.45,3.5-5.06,3.11-8.43a52.14,52.14,0,0,1-.66-8.62c.19-3.54-1.15-5.52-4.57-6.25a14.78,14.78,0,0,1-2.46-1.2c2.52-.73,4.4-1.52,2.93-3.93a24.13,24.13,0,0,0,3.91-1.89,7,7,0,0,1,6.37-1.31,6.28,6.28,0,0,0,3.23-.25c3.22-1,6.41-2,9.55-3.23a10.58,10.58,0,0,0,2.43-1.89c-6.78-.35-13.2-.65-19.63-1a5.59,5.59,0,0,1-3.18-.87c-4.06-3.72-9.19-3.91-14.18-4.77-1.84-.31-3.49-1.66-5.33-2-3.63-.65-7.33-.91-11.36-1.38a9.2,9.2,0,0,0-8.53-5.44c-.33,0-.81.14-1,0-3.74-4.19-9.91-1-13.87-4.6-.69-.62-1.7-.88-2.41-1.49-2.07-1.79-4.06-3.68-6.49-5.9l3.48-4.48-6.59-5.24c.3-1.8.61-3.63.9-5.45,0-.15-.16-.39-.1-.46a82.86,82.86,0,0,1,5.74-6.24,5.45,5.45,0,0,1,3.55-1c2.52.1,3.86-.91,4.57-3.3.59-2,1.11-4,3.93-4.25.87-.08,1.58-1.94,2.84-3.64,2.17-.38,5-2.37,8.34-.25.88.56,2.73-.21,4-.64a4.48,4.48,0,0,0,1.74-1.65c2.45-3.29,5.34-4.58,8.83-2.19a39.14,39.14,0,0,0,4-2c1.89-1.2,4.11-2.32,4.39-4.85.36-3.15,2.46-3.34,4.88-3.37,3.49,0,7-.19,11.5-.32l2.2,2.06c3.17-.66,5.92-1.6,8.7-1.7,3.3-.12,5.31-1.56,7-4.2,2-3.08,4.28-5.94,6.9-9.51l-4.42-6.15,4-1.83-.55-1.08-5.41-1.86a31.78,31.78,0,0,1,2.68-3.82c1.87-1.92,1.53-3.91.14-5.68-3.4-4.35-3.33-9.37-3.19-14.46a10.49,10.49,0,0,0-.39-4.05c-1.8-4.61-1.1-8.12,2.47-12.19a28,28,0,0,0,3.57-5.08c1.84-3.41,4.44-5.37,8.4-5.46a9.69,9.69,0,0,0,8-4l3.62,4.93c5.14.36,9.6,2.83,13.43,6.42a10.48,10.48,0,0,0,6.37,3.06,21.79,21.79,0,0,1,9.47,3.32,44.46,44.46,0,0,0,6.18,2.71c.59.25,1.4.4,1.7.87,3.8,5.87,10.08,9.71,13.13,16.29,1.16,2.49,3.5,4.54,5.6,6.45,1.49,1.36,2.68,2.51,2.92,4.71a8.74,8.74,0,0,0,7.13,7.65c4.29.8,7.54,3.29,11.35,4.79,3.56,1.41,6.85,3.21,10.8,3.93,3.28.6,6.19,3.26,9.26,5,1.92,1.11,3.77,2.39,5.78,3.31,2.76,1.27,5,2.93,5.94,6,.73,2.28,1.67,4.5,2.38,6.8a3.25,3.25,0,0,1-.14,2.26,74.22,74.22,0,0,1-5.67,9.46,14.93,14.93,0,0,1-11.84,5.58A16.17,16.17,0,0,0,437,219.9c-3,1.81-6.11,1.69-9.33,1.57a23.75,23.75,0,0,0-5.65,0c-4.14.87-8.24,2-12.3,3.22-1.43.43-2.91.85-2.45,3.33.19,1-1.95,2.67-3.26,3.75-2.19,1.82-3.17,3.83-2.59,6.76.55,2.77,2,5.14,4.46,5.5,8.67,1.26,16.1,5.3,23.34,9.88,2.29,1.44,5,2.19,6.57,4.73a7.46,7.46,0,0,1,1,7.19c-1.45,3.88-2.39,7.95-3.55,11.93-.86,2.95-3.33,4.14-5.78,5.43-1.67.88-3.26,1.91-4.85,2.93-2.15,1.38-4.27,2.32-6.7.6-5-3.58-12.88-.9-16.38,2.56-3.06,3-4.85,7.3-9.08,9.18a1.46,1.46,0,0,0-.49,1.23c.34,2.91-2,3.35-3.84,4.24-4.07,2-8.15,3.8-11.5,7.13a32.26,32.26,0,0,1-8.38,5.48c-2.87,1.44-4.75,3.25-4.92,6.8,1.26,0,2.59.31,3.71-.05q10.51-3.4,21-7.06c6.67-2.34,13.24-5,20-7.12,2.7-.86,5.7-.83,8.58-1,4.34-.31,8.69-.64,13-.65a37,37,0,0,1,9,.83c5.92,1.46,11.77,3.28,17.59,5.11A6.09,6.09,0,0,1,458.6,318c.77,3,2.54,5.56,4.57,8.12,4.05,5.11,8.22,10.49,8.06,17.6A7,7,0,0,1,469.8,348c-3,3.15-6.28,6-9.46,9-.12.11-.25.27-.39.28-5.13.26-8.68,4-13,6-1.28.59-2.52,1.28-3.76,1.95-.28.15-.49.46-.78.57-7,2.7-13.37,6.7-20.68,8.82a87.66,87.66,0,0,0-17.83,6.9c-4.49,2.47-9.55,3.86-14.25,6-8.37,3.78-16.73,7.6-24.93,11.74-2.56,1.29-4.58,3.65-7.46,6a18.84,18.84,0,0,0,3.09,0q17.75-3.75,35.48-7.57c16.07-3.45,32.08-7.23,48.22-10.29,10.14-1.93,20.46-2.89,30.73-4.09a18.7,18.7,0,0,1,6.23.67c7.84,1.83,15.71,3.55,23.43,5.79A21.8,21.8,0,0,1,516.57,398a12.61,12.61,0,0,0,2.54,2.2c1.93,1.56,3.62,2.92,2.37,6.06-.5,1.26,1,3.32,1.63,5-.69,3.71-1.88,7.61-2,11.55-.3,8.07-3.86,13.7-11.45,17.26-.66-2.94-2.76-3.17-5.38-3.1-3.2.07-6.43-.2-8.86-3-.7-.8-2.62-1.47-3.43-1.08-2.47,1.21-3.94-.31-5.47-1.44-2.88,1-5.73,1.57-6.78,4.92-.27.87-1.67,1.43-2.63,2-2.46,1.53-4.93,3.06-7.47,4.46-.59.33-1.48.14-3.22.24l9.75-11.49-4.47-1.8c.92-3.59,1.89-7.4,3-11.82a27.15,27.15,0,0,0-3.92-1.24,88.8,88.8,0,0,0-32.25,1c-10.39,2.23-20.93,3.81-31.39,5.76-7.66,1.42-14.65,4.76-21.69,7.91l-7.27,3.25,2.35,3.48a27.66,27.66,0,0,1-3.14.79c-.7.09-2-.37-2.1-.13-1.54,3.09-5.39,2.88-7.48,5.55-1.71,2.2-5,3.15-7.67,4.68.82,2.25,2,2.95,4.37,2.49,8.22-1.62,16.49-3,24.74-4.48,6-1.06,12.12-1.72,18-3.28,3-.8,5.37,0,7.86,1,3.3,1.27,6.52,2.74,9.73,4.21,1.84.84,4.1,1.32,3.84,4.22,0,.51.72,1.25,1.28,1.64,1.44,1,3,1.9,4.49,2.85,3.34,2.12,6.66,4.26,10.29,6.59-2.9,3.53-8.35,4.59-6.79,10.54l7.26,1.69c-1.32,2.11-3.29,1.25-4.92,1.51a50.8,50.8,0,0,0-5.13.85,4.42,4.42,0,0,0-3.67,4.49c0,1.12-.8,2.22-1.29,3.46l4.49,1,.06.8a28,28,0,0,1-3.29.24c-9.14-.42-17.48,2.46-25.44,6.46-2.5,1.25-4.54,3.61-6.53,5.7a103.81,103.81,0,0,1-29.4,21.75,9,9,0,0,1-4.12,1,17.84,17.84,0,0,0-8.85,1.85c-2.84,1.4-6,2.07-9,3.23a54.11,54.11,0,0,0-5,2.49l.08,1.15a23.87,23.87,0,0,0,4.2,1.22c3.2.31,6.43.32,9.64.56,10.08.72,20-.39,29.9-2.25,5.41-1,6.06-1.75,5.85-7.5s1-10.66,4.9-14.87a4.83,4.83,0,0,0,.75-1.23c2-4.42,2.63-4.58,7.14-3.78,5.12.9,9,3.86,12.12,7.52,3.7,4.3,8.6,6.67,13.09,9.74,2,1.36,3.92,2.79,5.79,4.3q8.26,6.69,16.45,13.46c2.46,2,5.23,3.75,6.09,7.26.26,1.08,2,1.73,2.49,2.83a79.1,79.1,0,0,1,3.76,10.71c.47,1.86-2,4.42-4.06,3.82-3.6-1.07-5.73,1.21-8.38,2.46-.56.26-1.12.55-1.54.75l-6.56-4.15c-1.93,1.16-2.21,2.43-1.13,4.16,1.5,2.38,2.88,4.83,4.42,7.45-2.22,1.3-3.87.48-5.56-.51q-4.29-2.5-8.64-4.93a45.21,45.21,0,0,1-11.91-10c-.58-.66-1.38-1.59-2.08-1.59-6.23,0-12.52,0-17.92,3.76-1.14.79-1.76,2.32-3.2,4.3l7.07-.43.17,1c-1.1.24-2.21.47-3.31.72-1.84.42-3.3,1.23-3.6,3.36-.79,5.55-1.07,11.18-3.61,16.42-.65,1.35.16,3.4.31,5.35,6.31.75,11.44,3.62,16.08,7.46,4.43,3.65,8.81,7.35,12.91,10.77-.21,5.39-4.36,6-7.44,7.73a12,12,0,0,1-4.45,1.42,7.64,7.64,0,0,0-6.33,4.66,18.16,18.16,0,0,1-8.82,8.65,5,5,0,0,0-3.08,5c0,4.59.45,9.18.69,13.78a35.34,35.34,0,0,1,.08,3.85c-.3,5.29-.66,10.58-1.06,16.81,4.54-2,8.41-3.47,12-5.4,10.53-5.61,20.87-11.58,31.45-17.08,6.72-3.49,10.77-8.49,11.39-16.13a14.24,14.24,0,0,1,.79-2.74c5.28.73,6.63,2.17,5.19,7.11-1.28,4.39-1,8.9-.81,13.09.22,4.84,1.46,10.1,4.92,14.21,1.24,1.47,2.38,3,3.65,4.65,1.14.12,2.42.18,3.68.39,3.08.51,4.66,3,2.92,5.42-2.77,3.88-3.45,9-7.59,12.1-1.09.82-1.11,3.07-1.71,4.95l-4-.58c.46,1.09.76,1.81,1.24,2.93l-4.12,1.67,3.52,1-5.62,4.08-4.61-.41.81,2.38a18.31,18.31,0,0,1-2.3,1.62c-3.82,2-8.39,2-11.83,5.1a5.4,5.4,0,0,1-4.61.59,7.5,7.5,0,0,0-6.31.8c-5.72,3.53-12.38,3.37-18.49,5.1-6.37,1.8-13.08,2.92-19.6,4.49-4.5,1.09-8.84,2.82-13.29,4.13a57.08,57.08,0,0,1-6.08,1c1.15-1.49,1.47-2.39,2.05-2.59q6.78-2.39,13.67-4.53c3.92-1.21,7.88-3.11,11.84-3.16,5.27-.06,9.23-4.76,14.68-3.38.66.16,1.53-.39,2.27-.7,4.73-2,4.79-2,9.61-.58,2.9-2.74,2.94-3,.94-5.48,1.68-.69,3.3-1.35,4.92-2l3.38-1.32c-1.77-.75-3.31-1-3.24,1.49-2.81-1-5.38.1-8,.92l-6.22,2,2.77,1.82c-4.48,1.67-8.5,2.43-12.92,1.65l7-2.06-.22-1-10,2.2.88,2.48c-5.43,2.07-10.76,4-16.62,3.56l.84-2.1-4.95,1.47Zm25-379a21.47,21.47,0,0,0-3.34.41c-6.18,1.77-12.43,3.35-18.48,5.5-5.57,2-11.23,4.1-16.26,7.13-4.86,2.94-11.05,4.59-13.41,10.77a.71.71,0,0,1-.36.32c-2.5,1.23-2.56,3.68-3.55,6.47,2.62-.53,4.77-.64,6.64-1.41,5.35-2.21,10.59-4.69,15.88-7,6.66-3,13-7.23,21-4.67a5,5,0,0,0,5.66-1.84C403.91,348.18,407,343.5,407,337.15ZM335.66,642.82l0,1.45a61.27,61.27,0,0,0,5.43,2.87,30.75,30.75,0,0,0,9.89,2.72c3.75.25,3.74.91,4.45-2.6a26,26,0,0,0,.25-3.24c-5.49-.74-10.68-1.55-15.89-2.09C338.48,641.79,337.05,642.5,335.66,642.82Zm46.43-220.35,0,1c1.93.23,4.74,1.39,5.63.53,2.54-2.42,5.75-2.75,8.65-3.9a30,30,0,0,1,9.29-2.45,29.8,29.8,0,0,0,9.82-2.56A101.18,101.18,0,0,0,382.09,422.47ZM352.45,676.64c-2.35,2.31-4.3,3.81-5.35,6.85l9.68-1.83Zm33.78,37.17c3.07-.22,6.12-.22,8.88-2C390.94,708.44,388.91,712.59,386.23,713.81ZM340.35,329.2l.18,1.29c1.57-.11,3.31.57,5.34-2.36ZM365,559.52l.05.7h4.46l0-.7Zm12.47-129.21-.55-.78L374.5,431l.41.7ZM429,706.54a11.21,11.21,0,0,0-2.8-.19,6.13,6.13,0,0,0-1.5,1l.3.44Z"/><path class="cls-1" d="M824.7,640.75c.75-1.59,1.16-2.47,1.8-3.86l6.21,5.91.52-.26c-.56-1-1.16-2.06-1.69-3.12-1.21-2.41-4.43-3.95-3.13-7.48.11-.31-1-1.57-1.38-1.48-2.25.55-2.62-1.25-3.43-2.5-1.59-2.47-3.34-4.87-4.68-7.47a18.64,18.64,0,0,1-1.58-5.44c-.68-4.06-1.28-8.14-1.69-12.23a59.2,59.2,0,0,1-.14-7.88c.16-4.7.28-9.4.77-14.07a20.79,20.79,0,0,1,2.74-8.09c.21,4.12.43,8.25.63,12.13,2.25.77,3.26.28,3.44-1.44a13.06,13.06,0,0,0,.23-4.29c-1.52-6.3.92-12.25,1.47-18.35.26-3,.64-3,4.27-4.3,0,2.34-.06,4.59,0,6.84s.42,4.71.4,7.06c0,4.19.33,8.38,2.26,12.07,3.82,7.31,7.74,14.54,15.65,18.57,5.62,2.86,10.76,6.68,16.43,9.43a84.62,84.62,0,0,0,14.54,5.09,112.77,112.77,0,0,0,15.12,3c10.23,1.32,20.37.77,29.73-4,2.9-1.49,5.25-4.12,7.7-6.4a59.66,59.66,0,0,0,5.32-5.8c2.49-3,4.83-6.22,7.65-9.89h-2.63a13.17,13.17,0,0,1,.33-2.53c1.61-4.72,3.25-9.44,4.95-14.12.61-1.67.73-3.7,3-4.42.48-.15.8-1.06,1-1.69.9-2.43,1.2-5.1,3.31-7a2.7,2.7,0,0,0,.59-2.43c-1.16-2.6.21-4.88.57-7.29.85-5.66,1.74-11.32,2.35-17,.8-7.42-2.26-12.59-9.43-15.13a24,24,0,0,1-2.48-1.38l4.43.42c-.14-.45-.14-.74-.28-.86-4-3.09-8.36-4.91-13.51-4.54-3.66.26-7.33.43-11,.66a4.37,4.37,0,0,0-1.31.18c-2.19.84-3.62,3.12-6.43,2.78l.15,1a13.05,13.05,0,0,0,2.53.31c6.6-.48,13.2-1.05,19.81-1.5a6.85,6.85,0,0,1,4.3,1.08c-.87,0-1.75.06-2.62,0a62.49,62.49,0,0,0-29,5c-5.42,2.25-10.47,5.39-15.68,8.15-2.47,1.3-5,2.57-7.38,4a15.74,15.74,0,0,0-2.57,2.21c-2.49,2.34-5,2.32-7.59,0a8.18,8.18,0,0,0-2.14-1.52c-5.37-2.37-6.06-6.94-5.74-12a5,5,0,0,1,.32-1.74c1.29-2.74.4-5.14-1.08-7.46-.39-.62-.72-1.27-.89-1.57.39-2,.67-3.74,1-5.42.62-2.84.4-6,2.87-8.16-.06-6.07,5.17-6.36,9-8,2.45-1.05,4.39-2.33,5.37-5-3.87-2.31-7.32-5.45-12.37-5.18-1.08.06-2.36-.95-3.31-1.76a33.67,33.67,0,0,1-3.22-3.73c1.52-.65,2.88-1.62,4.31-1.75,3.31-.3,5.74-2.2,8.27-3.94,7.52-5.19,15-10.48,22.5-15.67,2.19-1.51,4.31-2.93,5.71-5.38a7.58,7.58,0,0,1,5.77-3.7c2.33-.32,4.64-.75,7.26-1.18.46-2.42.92-4.81,1.56-8.13-3.25,1.19-5.78,2.11-8.3,3.06-.41.15-.75.52-1.17.61-6.12,1.35-10.58,6-16.28,8.18-5.93,2.3-11.8,4.7-18.35,3.33a10.29,10.29,0,0,1-4.08-1.43c-4.41-3.36-8.69-6.9-13-10.42a6.84,6.84,0,0,1-2.6-7c.25-1.27.33-2.57.56-4.42a76.21,76.21,0,0,1,9.38,1,13,13,0,0,0,9-1c6.18-3.11,12.41-6.15,18.45-9.52a115.67,115.67,0,0,1,26.2-10.53,43.63,43.63,0,0,1,21.89-.55,22.62,22.62,0,0,1,11.69,7.6c1.53,1.78,1.67,4.88,2.13,7.43a6,6,0,0,1-2.63,6.53c-1.28.88-2.09,2.42-3.12,3.66-5.44-.93-6.07-.41-8.39,4.5-1.3,2.77-2.25,5.83-5.09,7.79-1.13.78-1.17,3.14-2.3,3.91-3.77,2.56-3.79,7-6.18,10.57l2.49,1.65c-1.78,1.51.59,3.44,0,4.41-.88,1.42-1.07,3.07-1.9,4.25-1,1.47-3,2.28-4.53,3.42s-2.63,2.42-4.18,3.09-3.56.75-6.14,1.23c-2.34,4-7.12,6.34-11.89,8.66A21,21,0,0,0,896,496.86c1.54.17,2.67.36,3.81.4,5.59.18,11.18.26,16.77.5,5,.21,10,.48,15,.91,9.62.83,18.95,2.89,27.3,7.92,3.22,1.94,6,4.69,8.81,7.19s5.37,5.06,8.14,7.49c9.83,8.62,15.66,19.68,19.52,31.94a19.3,19.3,0,0,1-.09,10.94c-2,7.51-3.85,15.14-6.76,22.32-2.67,6.56-4.78,13.39-8.8,19.48-2.13,3.22-2.69,7.65-3.3,11.63-.33,2.12-1,3.66-2.59,4.76-1.35.92-1.38,2.09-1.79,3.53a11.47,11.47,0,0,1-5.35,7.07,3,3,0,0,0-2,2.7c-.24,1.81-2.79,3.51-4.62,4.86a65.41,65.41,0,0,0-7.83,6.63c-3.79,3.84-7.26,8.57-13.09,10-1.4.35-2.55,1.21-4.13.42a3.39,3.39,0,0,0-2.46.35,74.44,74.44,0,0,1-22.17,6.65c-4.17.49-8.29,1.58-12.47,1.86-6.82.45-13.64,1.43-20.52-.37-3.9-1-8.16-.59-12.1-1.48a75.59,75.59,0,0,1-25.8-11.16c-4.72-3.18-9-7-13.42-10.63A6.81,6.81,0,0,1,824.7,640.75Zm11.72-1.4c0,.8-.1.95,0,1a6.16,6.16,0,0,0,.77,1c8.64,8,19.29,11.46,30.64,13,5.47.76,11.06.65,16.53,1.42,8.83,1.24,17.16-1.19,25.6-2.9a11.23,11.23,0,0,0,2.4-1.15c-3.5-.1-7-.08-10.06,1-3.74,1.29-6.75-1.47-10.2-1-.59.09-1.18.12-1.77.17-3.66.29-7.32.89-11,.82-8.17-.16-15.76-3.63-23.89-4.5-3.67-.39-7-3.34-10.6-5.07C842.12,642,839.37,640.72,836.42,639.35Zm109-128.77c-7.05-4.83-27.34-6.39-32.78-2.17C923.9,508.65,934.67,508.48,945.44,510.58Zm-48.39,122.5a28.84,28.84,0,0,0-16-2.77C885.89,634.26,891.5,633.64,897.05,633.08Zm-7.11,5.17-20.24-2.91-.32.81c1.33.62,2.63,1.65,4,1.79,5.14.55,10.31.81,15.48,1.14C889.08,639.1,889.31,638.76,889.94,638.25Zm-66.66-47.41-1.12,0c-1.41,1.87-.08,3.1,1.66,5.13C823.58,593.74,823.43,592.29,823.28,590.84Z"/><path class="cls-1" d="M787.59,257.48c3.55,1.28,6.77,2.55,10.07,3.59,3.05,1,6.18,1.63,8.73,3.8,1,.87,1.87,1.46,2,3.11a14.52,14.52,0,0,0,1.79,5.36c1.44,2.8,1.63,5.26-.79,7.65a28.39,28.39,0,0,0-2.77,3.87c.94.55,1.93,1.11,2.89,1.71,2,1.25,4,2.5,5.91,3.8,1.35.9,2.51,2.19,4,2.77,3.93,1.58,6.32,4.55,8.47,8a50.81,50.81,0,0,0,5.49,6.88c2.65,2.93,3.53,6,1.59,9.67A11.2,11.2,0,0,0,834,322c-.26,3.25-1.57,5.47-4.88,6.51a55.15,55.15,0,0,0-6.36,2.81c-1.17-.79-2.44-2-3.95-2.5-.67-.2-1.82,1.2-3.12,2.14-1.64-1.31-3.4-2.87-5.32-4.19a2.81,2.81,0,0,0-3.63.25c-4.16,3.25-8.41,6.37-12.7,9.43a39.8,39.8,0,0,1-4.58,2.47l-4.08,6.06-1.64-.39c-.3,2-.47,4.15-3.28,4.33-.48,0-1.11.8-1.31,1.36-.95,2.66-3,4.25-5.26,5.66-4.48,2.75-9.07,5.37-13.32,8.45a63.66,63.66,0,0,0-8.4,7.7c-3.18,3.32-7.3,3.33-11.35,3.61-.62,0-1.62-.83-1.91-1.51a38.43,38.43,0,0,1-2.61-7.46A48,48,0,0,1,735.15,354c.26-3.51-1-7.3-2.23-10.7-.86-2.29-.11-3.63,1.15-5,5.95-6.46,12.6-12.28,17.61-19.59,1.48-2.16,3-4.31,4.67-6.76l-3.73-.6c1-.95,1.82-1.63,2.94-2.65-1.79-.71-3.09-1.22-4.42-.05-1.53,1.36-3.23,1.1-5,.7a10.14,10.14,0,0,0-3-.33c-3.43.29-4.94-2.33-6.56-4.47a13.6,13.6,0,0,1-1.95-5c-.4-1.67-.89-3.56-.49-5.14a51.56,51.56,0,0,0,1-17.89c-.18-1.91-.23-3.82-.42-5.73-.78-7.6,3.61-12.26,9.66-15.14,3.28-1.56,4.88-3.92,6.55-6.62a23.46,23.46,0,0,1,2-3.34c8.29-9.21,16.37-18.65,25.08-27.45,5.88-6,12.66-11,19.09-16.44,2.14-1.8,4.45-3.42,6.66-5.14a4.39,4.39,0,0,1,4.88-.59,13.67,13.67,0,0,1,8.81,10.13,72,72,0,0,1,1.94,9.43c.5,5-2,9.16-2.54,13.82a26.67,26.67,0,0,0-.63,3.47c.14,5.29-3.17,8.21-7.43,9.81-3.85,1.45-6.85,4-10.08,6.21-2.78,1.93-5.55,3.87-8.25,5.89A31.71,31.71,0,0,0,787.59,257.48Zm-12.12,61.84.52.79c.9-.38,1.83-.69,2.69-1.14,6.4-3.32,12.82-6.59,19.16-10s7.71-8,4.41-15.4C791.34,300.25,782.92,309.29,775.47,319.32Z"/><path class="cls-1" d="M891.45,262c2.62-.21,4.63-.4,6.65-.52,6.44-.41,12.15,1.62,17.58,4.94a25.16,25.16,0,0,0,6.49,2.56c3.29.9,6.19,2.07,7,5.84,1.12,5.17,0,8.54-3.81,11.09-.48.32-1.27.74-1.27,1.11,0,4.06-4,5.14-5.81,7.9-1.06,1.65-3.92,2.14-6.17,3.26,2.59,1.73,5.06-1,7.48-.18s4.85,2.27,7.39,2.77a11.81,11.81,0,0,1,7,3.66c-.54,2.14-.67,4.5-1.74,6.29a9.15,9.15,0,0,1-4.4,3.3c-5,1.93-9.71,4.11-13,8.54a3.55,3.55,0,0,1-1.4,1.05,19.52,19.52,0,0,0-5.53,4.08,22.22,22.22,0,0,1-9,5c-4.21,1.22-7.56,3.61-11.12,5.87s-6.76,5.1-11,6.26c-7.59,2.07-13.26-2-13.38-9.85,0-2.65-.23-5.29-.26-7.94a13.39,13.39,0,0,1,3-9,18.05,18.05,0,0,0,3.44-7.9c1-5.77,4.73-7.22,9.77-7.47,2.91-.15,2.9-.31,5.28-3.94-1.11-1-2.27-2-3.45-3-4.36-3.7-9.13-7-13-11.18-3.61-3.93-7-8.29-8.09-13.91-.28-1.41-1.66-2.67-2.73-3.82a6,6,0,0,0-2.35-1.18c-2.61-.93-5.53-1.36-7.79-2.83-2.08-1.36-3.32-4-5.21-5.72a13.52,13.52,0,0,0-4.26-2.18c-3.22-1.25-5.87-2.86-7.77-6.08-1.25-2.12-3.92-3.43-6-5.05-1.53-1.19-3.25-2.24-2.52-4.63a5.12,5.12,0,0,1,4.45-3.76c9-1.49,17.44-4.84,25.54-9.05,4.15-2.16,8.43-4.1,12.74-5.91a4.38,4.38,0,0,0,3.06-4.78c-.17-2.65-.32-5.31-.75-7.92-.67-4.1-1.55-8.16-2.4-12.22a3.67,3.67,0,0,0-1-1.87c-4.15-3.81-5.75-9.12-8.57-14.15,8.12-3.24,16.28-5.21,24.45-2,4.54,1.8,8.48,5.22,12.53,8.12a112.83,112.83,0,0,1,8.83,7.21c2.29,2,4.57,4,6.09,6.85,1.92,3.65,5.94,4.17,9.64,4.34,2.56.11,4.62.14,6.57,2.45,1.37,1.62,4.05,2.32,6.28,3,3.81,1.11,6.56,3.13,8,7,.6,1.63,1.68,3.07,2.41,4.66.91,2-.12,5.8-1.91,7.18-4,3.06-8.06,6-12,9.15-4.74,3.82-9.3,7.87-14,11.72-1.93,1.57-4.07,2.89-6.13,4.31a33.31,33.31,0,0,0-3.58,2.46c-1.8,1.65-3.57,3.07-6.25,2.61C893.4,258.16,892.68,259.72,891.45,262Zm-2.19.41c-2.75-.87-2.75-.87-4.88.45Z"/><path class="cls-1" d="M615.59,786.72q.84-6.88,1.67-13.78c1.37-11.4,2-22.84.63-34.26-1.73-14.92-3.57-29.84-5.85-44.69-2.15-14-.9-27.62,2.4-41.19,1.42-5.84,3.25-11.57,4.89-17.36a1.69,1.69,0,0,0,.14-.86c-1.19-3.56,1.56-5.82,2.71-8.63,1.66-4.06,3-8.24,4.54-12.36a22.9,22.9,0,0,1,1.29-3.25q2.52-4.58,5.21-9c.74-1.22,1.7-2.31,2.54-3.47A8.27,8.27,0,0,0,637,596c3.78-10,8.89-17.29,15.77-26.11,5.87-7.52,13-13.64,19.74-20.22,3.46-3.39,6.72-7.35,11.38-9.46.45-.21.7-.89,1-1.36,5.21-7.54,9.24-15.71,13.09-24,4.41-9.52,9.08-18.92,13.69-28.35a12,12,0,0,1,1.88-2.36c.48-.55,1.49-1.09,1.45-1.57-.31-3.65,2.9-5.7,3.81-8.77s2.74-6.07,2.79-9.55c0-.83,1-1.65,2-2.36.14,8.4-3,16.31-2.89,24.87l3.84-7.79a3.33,3.33,0,0,1,1.17,3.29c-.23,1.41-.43,2.82-.66,4.23q-1.16,7.38-2.34,14.75a29.89,29.89,0,0,0-.65,3.45c-.41,9-3.53,17.39-6.17,25.9-1.08,3.52-1.2,7.33-1.78,11-.14.83-.43,1.62-.55,2.45-.31,2.15-2.48,3.25-2.72,5.75-.17,1.67-1.81,3.53-2.32,5.62-.37,1.5-1.63,2.76-2.38,4.19A118,118,0,0,1,693.82,579a10,10,0,0,0-1.71,3.57c-2,7.28-5.77,13.81-8.93,20.56-2.61,5.56-6.36,10.59-9.56,15.88-1.59,2.63-3,5.4-4.66,8-2,3.08-4.25,6-6.41,9-.7.95-1.75,1.72-2.19,2.77-2,4.7-5.68,8.17-8.54,12.22-3.38,4.78-5.75,10-8.31,15.24-1.1,2.24-1.78,4.7-3.07,6.82a5.72,5.72,0,0,0-1,4.09,3.52,3.52,0,0,1-.55,2.49c-3.1,3.88-2.94,8.83-4.54,13.16-3.26,8.79-2.54,17.94-3,27-.13,2.39-2.49,4.44-.89,7-1.76,4.3-1,8.86-1.4,13.29a67,67,0,0,1-2.13,11.42c-.58,2.1-1.48,3.94-.42,6.14a2.63,2.63,0,0,1-.47,2.07c-3.13,4.57-3.88,9.85-4.95,15.12-.77,3.8-2.39,7.44-3.67,11.13a5.26,5.26,0,0,1-.89,1.2Z"/><path class="cls-1" d="M985.82,258.74c3.2,0,5-.82,6.41-3.79,1-2,3.77-3.6,6.09-4.47,4.13-1.53,8.44-2.25,12.89-.4,2.11.89,4.61.92,6.95,1.2,6,.7,8.95,4,9,10.18a19.92,19.92,0,0,1-.37,2.71c16.28,3.31,31,9.8,43.5,21.71-3.11,2.45-6,4.05-7.92,6.4-2.42,3-5,5.16-8.84,5.5-3.24,3.76-5.62.87-8.94-.38-6.27-2.36-9.17-6.89-11.28-13.51-1.24,2.44-2,4.12-2.93,5.65a38.35,38.35,0,0,1-3.21,4.21,35.93,35.93,0,0,1-4.45,4.91q-9.72,8-19.67,15.72c-4.77,3.72-9.64,7.32-14.56,10.82C986,327,983.59,329,980.55,329c-1.66-4.07-3.46-7.86-4.75-11.82s-2-7.85-3-12.32c6-5.24,6.14-13.59,9.7-21-2.27.21-3.38,1.35-4.59,2.62-3.52,3.73-8.09,5.74-12.84,7.35a3.62,3.62,0,0,1-1.55-.15c-.31-.39-.62-.59-.65-.84-.68-5-3.21-8.87-6.65-12.58-3-3.2-4.12-7.71-4.85-12-.18-1.06.72-2.34,1.25-3.46,1.38-2.89,3-5.67,4.2-8.64,1.67-4.25,2.82-8.7,4.54-12.92.86-2.14,2.49-4,3.77-5.93s2.76-4.14,4.1-6.24c.31-.49.75-1.19.61-1.63-1.68-5.21,1.78-9.07,3.82-13,3.9-7.56,7.71-15.21,13.12-21.93,1.37-1.7,1.78-4.29,2.29-6.55.8-3.56,2.42-4.62,6-3.56a52.17,52.17,0,0,0,5.5,1.41,6.92,6.92,0,0,1,5.23,3.69c2,4.2,5.86,5.84,9.64,7.8a22.23,22.23,0,0,1,5.79,4.47c2.12,2.22,1.72,9.81-.69,11.39-4.42,2.91-7,7.54-10.76,11-2.46,2.25-4.13,5.31-7.76,6.29-1.21.33-3.17,1.6-1.28,3.61-1,1.57-1.67,3.47-3,4.63A37.5,37.5,0,0,0,985.82,258.74Zm34.42,11c-.52.5-1.39,1.23-2.16,2.06-3,3.32-5.39,7.37-10.13,8.77-.71.21-1.24,1.19-1.73,1.9-.91,1.32-1.71,2.71-2.59,4.05-1.49,2.26-3,4.5-4.51,6.75a19.67,19.67,0,0,0,10.48-5.48c1.57-1.55,3.26-3,4.88-4.48a9.49,9.49,0,0,1,9.35-2.53,19,19,0,0,0,2.88.25Z"/><path class="cls-1" d="M1321,346.12c-4.89.24-4.89.24-7.39,2,21.8-1.94,42.28-8.23,63.55-8.86l.07-1.05-11.63-2.26c1.38-.89,2.5-1.68,3.68-2.34,2-1.1,3.33-2.51,2.88-5-.13-.73,0-1.84-.4-2.1-.58-.37-2-.47-2.3-.07-1.35,1.53-2.84,1.12-4.47.88a7.77,7.77,0,0,0-3,.14,6.39,6.39,0,0,1-5.47-.89,4,4,0,0,0-2.34-.84c-4.5.67-9,1.29-13.1,3.62a94.1,94.1,0,0,1-9.44,4.81c-1.11.48-2.6.08-4.64.08,5-7.68,12.88-11.15,18.47-17.87l-11.1-10.81c2.21-3.53-.42-6.89-.69-11a37.36,37.36,0,0,1,5.86,1.56,35.43,35.43,0,0,0,17,3.22c4.73-.27,10.32-.82,14.62,3.12a4,4,0,0,0,3.69.19c.88-.47,1.49-2,1.64-3.19.66-5.11,1.12-10.25,1.69-15.76-4.53-2.58-5.82,2.4-8.88,4.53-.18-1.18-.3-1.95-.41-2.69h-2.69l2-3.1c-3.63.23-6.74-4.32-10.15.45a49.63,49.63,0,0,0-4.24-5,11.75,11.75,0,0,1-3.4-4.91,7.54,7.54,0,0,0-2.33-3.15c-3.49-2.78-4.45-6.56-4.18-10.68a18.8,18.8,0,0,0-.78-7.81c-.37-1,.15-2.33.32-4.07l11.16,4.13c.41.15,1.08.26,1.18.55,1.53,4.47,5.51,3.32,8.64,3.57a40,40,0,0,1,14.95,3.68c2.58-2.36,3-5.48,3.72-8.4,1.13-4.55,1.62-9.3,3.21-13.66,1.76-4.81,1.85-9.11-1-13.5-7.33-1.49-14.57.38-21.85,1.35-7.09.94-14.39.85-21,4.56-.24-.33-.49-.65-.74-1a25.13,25.13,0,0,1,2.11-4.4c6.07-8.11,14.3-13.05,23.93-15.81,4.38-1.25,8.85-2.25,13.16-3.7,4.89-1.64,9.7-.3,14.44.22a113.78,113.78,0,0,1,16.36,3.42,8.56,8.56,0,0,1,6.13,5.79,334.33,334.33,0,0,1,10.6,35.85,36.34,36.34,0,0,1-2,22.64c-1.47,3.61-1.85,7.69-2.57,11.58-.67,3.6-1,7.27-1.75,10.86a26.08,26.08,0,0,1-2.1,5.77c-.73,1.56-1.91,2.63-.5,4.72.57.86.33,3.69-1.66,5a14.75,14.75,0,0,0-2.38,2.28c0,2.05,0,3.51,0,5,0,.72-.28,1.44-.25,2.16.07,2.1.52,4.2-.83,6.15a3.28,3.28,0,0,0-.35,2.11c.2,1.65,1.21,3.18-.36,4.91-.5.55.4,2.37.7,3.82,4.71-.39,9.15-.53,13.5-1.23,1.75-.29,3.45-1.63,4.88-2.83,3.57-3,7.67-3,11.95-2.66a55.84,55.84,0,0,0,6.59.24c4-.13,7.79-.09,11.59,1.77,3.6,1.76,7.67,2.56,11.5,3.87,4.73,1.61,9.47,3.23,14.12,5.06,1.19.47,2,1.78,3.74,3.35l-6.35.41a26.67,26.67,0,0,0,1.51,3c.4.58,1.25.86,1.63,1.44a2.87,2.87,0,0,1,.51,2.06c-1.18,3.34,2.66,7.35-1.54,10.33a8.63,8.63,0,0,0-3.45,5.5,4.57,4.57,0,0,1-1.88,2.24,61.84,61.84,0,0,1-5.85,3.89c-5.37,3.08-10.52,6.39-14.65,11.14-1.19,1.37-2.83,2.7-5.35,1.59l5.63-7-.66-.7a14,14,0,0,0-1.73,1.31c-3.48,3.52-6.92,7.08-10.41,10.58a10.38,10.38,0,0,1-2.22,1.25c-.35-3.15,2.77-4.19,3.17-6.6-4.27-2-2.6,4.45-6,4,.15-1.27.3-2.58.49-4.11l-4.3,2v-5.25l-2.47-.73c.33-1.7.65-3.25.92-4.81s1.56-3.2-.75-4.49c-.44-.25-.09-1.92-.08-2.94,0-3.35.19-6.7.1-10a2.23,2.23,0,0,0-2.63-2.34,17.14,17.14,0,0,1-2.27-.16l.5-2.73c-1.94,0-3.81.08-5.67,0s-3.73-.43-5.6-.61a13.67,13.67,0,0,0-3.06-.08c-5.51.8-11,1.67-16.51,2.51-3-2.31-5.46,1-8.22.89s-5.55-.64-8.31-.56c-5,.14-10,.59-15,.93a42.42,42.42,0,0,1-6.13.39c-5.33-.45-10,1.84-14.92,3.16a40.7,40.7,0,0,1-4.24,1.21c-11.13,1.68-21.71,5.32-32.25,9-4.68,1.65-9.19,3.75-14,5.73l1.86,1.55c-1.18,3.72-5.36.94-6.89,4.13-.77-1.53-1.19-2.37-1.84-3.64-3.64,3.4-8.87,3.82-11.53,8.22a5.31,5.31,0,0,1-2.57,1.63c-5,2-10.13,3.68-15.05,5.86-3.94,1.74-7.56,4.18-11.47,6-3.7,1.72-7.58,3-11.39,4.54a15.31,15.31,0,0,0-2.77,1.22c-2.09,1.38-4.19,2-6.61.89-.61-.27-1.79-.44-2.07-.12-2.31,2.77-5.56.85-8.19,1.77s-5.14,2.45-7.84,2.95c-5.06.95-10.23,1.3-15.34,2q-7.23,1-14.44,2.13c-3.2.51-6.39,1.09-9.55,1.8-5.3,1.21-10.53,2.7-15.86,3.78a155.76,155.76,0,0,1-17,2.77,35.77,35.77,0,0,0-11.44,3.13c-2.22,1-3.47,2.92-4.58,5.45-2,4.48-.4,8.79-.85,13.13a3.58,3.58,0,0,0,.78,2.49,13.85,13.85,0,0,1,3.23,8.11c.42,3.63,2.88,5.34,5.37,7.4,1.5,1.22,2.2,3.42,3.42,5.44l2.45-1.25c.35,1,.63,1.94,1.06,2.83a3.13,3.13,0,0,0,1.25,1.52,65.47,65.47,0,0,0,7.21,2.62c2.87.78,2.9.65,2.55,3.94l-6.88,1.47c2.31,2,3.84,3.26,5.62,4.79a21,21,0,0,1-2,1.51c-1.13.69-3.07.46-2.86,2.62,0,.1-.15.29-.27.33-3,1-6,2.49-9,2.82-2.26.24-4.67-1.05-7.83-1.86a11.16,11.16,0,0,1-1.47,1.22,2.28,2.28,0,0,1-3.16-.21c-2.55-2.21-5.09-4.06-9.06-3-1.79.46-4.15-1.09-6.18-1.91a35.59,35.59,0,0,1-6-2.9c-3-2-6.32-2.21-10-1.76a4.88,4.88,0,0,1-.27-1.87c.94-3.62-1.22-6.17-3-8.78-1.26-1.8-2.94-3.32-4.26-5.09a24.7,24.7,0,0,1-5-12.49c-.28-2.61-1.36-5.13-1.72-7.74a32.51,32.51,0,0,1-.19-7.44c.18-2,1.57-3.46,2.8-5.13a66.18,66.18,0,0,0,7.11-13.12c1.72-4,3.44-7.44,8.46-7.43a14.66,14.66,0,0,0,1.54-.18c-.61,2.38.57,3.86,1.93,5.54,3.09,3.84,6.3,7.24,11.12,9.06,2.29.86,4.1,3,6.54,4.82,1.1-1.7,2.62-3.39,3.37-5.38a16.2,16.2,0,0,1,5.21-7.5,4.73,4.73,0,0,0,1.45-1.64c2.22-4.82,6.6-7,11-9a216.66,216.66,0,0,1,39.19-13.67,24.06,24.06,0,0,0,3-1.17c-1.45-1.6-2.76-2.86-4.74-1.92-1.79.85-3.09.15-4.51-.76-3-1.9-6-3.67-9-5.62a14.3,14.3,0,0,1-4-3.38,102.19,102.19,0,0,0-13.31-15.23,13.36,13.36,0,0,1-3.78-8.22,41,41,0,0,0-1.31-6.4,146.49,146.49,0,0,1-5.7-30.64c-.69-8.2-1.65-16.42-1.6-24.63,0-4.21.35-8.52.67-12.73.66-8.45,1.12-17,4.1-25.22,2.29-6.32.32-12.78-1.12-19.12-.58-2.59-2.54-3.28-4.47-3.92-.11-5.16.43-5.66,4.94-5.72,6-.08,11.09,2.34,16.14,5.09,1,.56,2.05,1.14,3.08,1.69,3.11,1.64,5.14,1.58,7.58-.86a80.35,80.35,0,0,0,7.92-8.9c4.45-6,8.57-12.31,12.88-18.45.75-1.06,1.85-1.88,2.66-2.92,1.15-1.49,2.25-3,3.26-4.64,3-4.7,5.75-9.49,8.79-14.13,1.12-1.72,6.92-2.23,9.54-.77a37.45,37.45,0,0,1,5.47,4.24c.56.47.9,1.22,1.48,1.62,5.25,3.63,5.24,9.76,7.06,15,.74,2.13.66,4.55.84,6.86a3.84,3.84,0,0,1-.42,2.11c-3.52,6.17-5,13.15-7.78,19.59a18.68,18.68,0,0,1-4,6.28c-3.84,3.54-7.58,7.48-13.39,8.29-2-2.88-4.86-2.93-8.07-1.86-3.49,1.16-7.06,2.11-10.57,3.23-1.33.43-2.58.87-3.61-.45-1.13-1.47-.45-2.7.5-4s1.67-2.7,2.47-4c-4-2.76-8.88-2-13,1.83a156.38,156.38,0,0,1,14.48,32.51,9.68,9.68,0,0,0,1.26-2.8c.25-2.39,1.83-3.33,3.79-3.71,4.48-.88,8.93-2,13.54-.35a13.45,13.45,0,0,0,5.26.49c5-.33,9.8,1,14.17,2.81,4.07,1.63,7.4,5.11,11,7.81.33.24.42.95.74,1,3.3,1,2,2.8,1.41,5.12-1,3.9-1.85,8.06.71,12.31a10,10,0,0,0,1.66-1.91c4.44-9.07,6.76-18.72,8.06-28.69.73-5.69,1.82-11.34,3-17a7,7,0,0,0-1.62-6.21l1.49-2.79a6,6,0,0,0-.6-1.07c-2.7-3.09-3.05-4.58-1.09-7.63,3.7-5.74,10.1-10.27,18-8.58,3.14.68,6.41.7,9.6,1.21a45,45,0,0,1,8.6,1.87c2.16.81,3.27.2,4.5-1.35q8.09-10.18,16.25-20.29c4.25-5.25,8.56-10.45,12.89-15.73,3.74,1.14,7.39,1.9,9.74,5,2.91,3.89,6.34,7.7,6.69,12.76.3,4.41-.37,8.86-4.72,11.57a10.5,10.5,0,0,0-4.68,6.63c-1.63,6-4.64,11.13-10.44,14.17a6.29,6.29,0,0,0-1.89,1.82c-1.22,1.63-2.34,3.33-3.6,5.14,1.31,5.48,6.36,8.24,10.29,12.36l-3.2,2.14a3.33,3.33,0,0,0-.21.87c.09,2.82,0,5.66.36,8.45s-2.53,2.06-3,2.86c.9,2.5,1.93,4.43,2.25,6.47.36,2.32-.59,3-2.72,2.1a80.47,80.47,0,0,1-10.12-5.09c-3.74-2.31-7.2-5.08-10.81-7.59a16.85,16.85,0,0,0-2.54-1.2c-.86.92-1.68,1.73-2.43,2.6-.39.43-.65,1.37-1,1.38-4.57.25-4.85,4.39-6.15,7.19a91.69,91.69,0,0,0-4.56,13.22c-.67,2.34-1.24,4.45-3.78,5.44-.54.21-.82,1.08-1.45,2,3.5.76,6.65,1.27,9.67,2.18,1.06.32,1.82,1.63,3.11,2.88,1.15-1.24,2.4-2.41,3.42-3.75a34.86,34.86,0,0,0,2.23-3.79c1.68-2.95,3.16-5.75,7.53-5.52,2.12.11,4.33-1.61,6.52-2.5l9.36,4.93c1-1.69,2.26-3.73,3.92-6.45.89,3,2.8,4.93,1.3,7.78-1.65,3.1-3,6.38-4.51,9.53-.93,1.9-1.91,3.67,1.43,4.35-.93,2-1.75,3.71-2.51,5.45a37.13,37.13,0,0,0-2.3,5.7c-.38,1.51-.68,4.22,0,4.62,4.48,2.58,4.77,8.59,9.5,10.95C1317.22,339.64,1318.36,343,1321,346.12Zm-134.13-21.23a20,20,0,0,0,0,2.62c.93,4.91,1.84,9.81,2.87,14.7,1.23,5.87,2.39,11.74,4.7,17.37,1.13,2.77,1.21,6,1.4,9.1.26,4.11.17,8.24.22,12.35,0,1.31,0,2.62,0,3.87a20.28,20.28,0,0,1-2.23,1.18c-1.57.59-2.7,1.58-2,3.3s2.11,1.1,3.47.9c11-1.61,21.53-5,31.83-9,10.72-4.09,21.13-9,31.67-13.55,2.77-1.2,5.49-2.51,8.42-3.86-1.1-2.19-2.28-3.79-2.74-5.57a96.9,96.9,0,0,1-2.51-12.49c-.42-3.59-.84-7.26,1.35-10.71s3.71-6.9,5.62-10.55a14.28,14.28,0,0,0-2.21-1.23c-4-1.27-8-2.71-12.15-3.64-3.37-.77-5.7-2.19-6.26-5.8a5.38,5.38,0,0,0-.6-1.26c-3.12.84-2.34,4.11-3.83,5.92s-2.36,4-3.77,6.47l3-.25c-.76,8.81-6.83,14.93-11.39,21.8-.74,1.12-2.33,1.78-3.66,2.36s-3.2.73-4.63,1.45c-6.84,3.41-11.85.7-16.14-4.63a7.13,7.13,0,0,0-.79-1.06c-2-1.53-3.77-3.38-6-4.44-5.13-2.48-8.88-5.94-10.47-11.6C1189.74,327.48,1188.37,326.59,1186.89,324.89Zm20.59-30.75c.08-3.86-2.65-5.1-5.18-6.65-4.41-2.69-8.58-1.37-9.89,3.63-.92,3.47-2.35,6.87-1.72,10.7.27,1.6-.59,3.39-1,5.09q-1.37,6.39-2.75,12.79c2-1.58,3.27-3.81,6.07-3.25a4.63,4.63,0,0,0,5-1.92,2.56,2.56,0,0,1,1.44-.9c2.72-.53,5.45-1,8.19-1.41a2.49,2.49,0,0,1,1.66.15c3.33,2.43,7.27,1.57,10.94,2.17a2.41,2.41,0,0,0,1.69-.26c3.81-2.93,7.25-6.18,9.76-11.62l-12,1.49C1216.89,299.56,1213.71,295.34,1207.48,294.14Zm50.36,7c-.12-2.7-.37-5-.29-7.27.11-2.94.48-5.87.74-8.8.41-4.69.4-9.46,1.34-14s2.85-9.17,4.33-13.75a30.24,30.24,0,0,0,1.12-3.78,5.27,5.27,0,0,0-.11-3c-2.71-5.26-10.49-7.4-14.34-2.84a12.19,12.19,0,0,0-3.31,7.9c0,1.84-.33,4.17.62,5.4,1.49,1.9,1.49,3.74,1.35,5.76-.26,3.81-1,7.62-.88,11.4a69,69,0,0,1-1.65,18.15,14.69,14.69,0,0,0,1.06,9.15C1252,305.71,1253.16,299.94,1257.84,301.18Zm49.79,49.8c-4.27-2.17-8.34-4.26-12.43-6.3-2.36-1.18-3.71-.58-5.09,1.57s-2.92,4.79-5,6.45-2.38,3.32-2,6.08Zm-124.82-55.34c.61-.15.85-.14.88-.22.37-1.09.74-2.18,1-3.29.81-2.87.8-2.87-3.08-5.08Zm226,31.68,1.13.39c.2-.79.41-1.57.61-2.36l-.73-.26Z"/><path class="cls-1" d="M1511.07,520.17l3.6,1.79c0,.33-.06.67-.08,1-4.94.86-8.34,4.76-13.53,5.67-3.93.7-7.43,3.75-11.11,5.77-.39.21-.69.62-1.08.75-7,2.32-12.44,7.49-19.24,10.35-4.55,1.92-8.12,6.19-12.24,9.5l1.7,1.57c-3.28,6.74-9.12,11.14-14.42,16.08a82.88,82.88,0,0,1-9.81,7.43c-4.6,3.18-9.86,4.61-14.91,6.5a143.09,143.09,0,0,1-19.85,5.89c-9.31,2-18.45,5-28.19,5-5.92,0-11.84,1.22-17.76,1.87-3.46.38-6.93.72-10.58,1.1a55,55,0,0,1,0,6.72c-.66,5.21-1.51,10.39-2.34,15.58-.37,2.32-.79,4.64-1.29,6.93-.65,3-1.29,6-2.12,8.92q-3.48,12.25-7.15,24.46a55.87,55.87,0,0,1-2.39,6.1c-1.78,4.1-3.65,8.17-5.45,12.26-.52,1.19-.71,2.61-1.47,3.6-2.34,3-4.89,5.78-5.56,9.82-.22,1.27-1.63,2.39-2.58,3.5-2.38,2.77-4.32,6.32-7.31,8-4.93,2.86-7.49,7.64-11.17,11.47s-6.66,8.23-10,12.38c-2.35,3-4.21,6.72-7.24,8.6-2.64,1.64-4.27,4.7-7.93,5.25-2.06.31-4.34,2.44-5.56,4.36-1.68,2.64-4,4.34-6.23,6.35s-4.91,3.42-7,5.81-5.18,3.66-7.3,6.17-4.28,4.85-6.55,7.14a12.51,12.51,0,0,1-2.8,1.65l.11.11c.23-.94.19-2.09.72-2.8,4.41-5.87,9-11.64,13.4-17.49,1.2-1.57,2.17-3.32,3.7-5.7-8.13,3.8-11.81,10.54-16.08,16.62-3.38,4.8-6.26,9.94-9.43,14.89a37.16,37.16,0,0,1-2.77,3.35c-.82-4.57,1.57-7.61,3.4-10.61,5.11-8.38,10.91-16.36,15.77-24.87,5.79-10.12,12.14-19.92,16.66-30.78,4-9.73,8.67-19.25,13.48-28.64a178,178,0,0,1,10.66-17.58,79.59,79.59,0,0,0,10.62-21.56c2.08-7,4.61-14,6.19-21.08,1.37-6.16,1.72-12.55,2.44-18.85.44-3.8.73-7.62,1.15-12.1a44.1,44.1,0,0,0-6-1.85c-10.63-1.7-21.24-3.7-31.94-4.76-13.76-1.37-27.31-.25-40.36,5.21-6.2,2.59-12.73,4.55-19.76,3.92-4.4-.39-8.86,0-13.29-.06a38.52,38.52,0,0,1-13.43-2.22c-2.34-.89-4.81-1.43-7.21-2.15a18.83,18.83,0,0,1-3.36-1.08c-4.76-2.48-9.47-5.06-14.88-8,1.76-.75,3.09-1.69,4.52-1.87,6.77-.86,12.66-3.95,18.29-7.41a182.83,182.83,0,0,1,21.52-11.07,165.63,165.63,0,0,1,46.72-12.69c14.32-1.81,28.79-3,43.3-1.58a70.57,70.57,0,0,0,15.07.12c-.93-5.54-1.84-10.71-2.65-15.9-1.15-7.32-3.38-14.14-7.91-20.18-1.86-2.48-3.07-5.45-4.59-8.23.84-.36,1.21-.64,1.33-.56,9.57,6.62,19.19,13.16,28.63,19.94a22.09,22.09,0,0,1,9.2,15.45,7.13,7.13,0,0,0,.31,1.29c1.93,5.9,2.4,6.26,8.56,5,5.9-1.25,11.74-2.76,17.62-4.11,1.71-.4,3.46-.62,5.18-.92l-2,1,.73,1.18,5.19-.82a2.8,2.8,0,0,0-2-.82c-.7-.12-1.38-.33-2.07-.5,6-2.23,12.29-2.59,18.54-3.18a13.8,13.8,0,0,1,2.56.42c1.15.11,2.64.62,3.4.11,5.3-3.56,11.6-2.48,17.35-3.89,11-2.68,22.12-4.84,33.24-7,4.55-.88,8.84-3.36,13.72-2.44a1.54,1.54,0,0,0,.84-.21c9.47-4.29,19.65-6,29.75-7.74,6.77-1.16,13.75-1.13,20.65-1.56,1.56-.09,2.75.42.94,3.14,4.16-1.32,8-.22,11.36-2.41Z"/><path class="cls-1" d="M1324.51,483.56a21.45,21.45,0,0,1,2.88-3.56,3.12,3.12,0,0,0,1-4.23c-3.37-.53-6.21.11-8.64,2.76-1,1.11-2.74,1.58-4.14,2.34,1.44,2.78.24,5.08-3.06,5.63a14.82,14.82,0,0,0-2.62.26,9.85,9.85,0,0,0-2.13,1.52c-1.85-.32-2.59-3.14-5-2-2.55,1.17-5.14,2.14-6.58,4.88-1.88,3.57-3.94,7-6.09,10.84l-3.09-2.46,6.29-14.9c.22-.53.77-1.25.6-1.55-1.74-3,.85-5.44,1-8.21.29-6.34,1-12.66,1.56-19-7.84,2.2-15.34,4.11-22.72,6.44-6.91,2.18-13.63,2.2-20.24-.75q-6.25-2.77-12.25-6.13a36,36,0,0,1-5-3.95c-.16-2.46-.41-4.73-.42-7,0-3.36.17-3.59,3.43-4.68,5.66-1.89,11.51-3.35,17-5.74,4.93-2.16,9.45-5.29,14.12-8,7.72-4.54,15.29-9.35,23.18-13.56,3.57-1.9,7.76-2.62,11.68-3.86,3.07-1,6.32-1.57,9.18-3,5.44-2.7,10.79-2.19,16.29-.57,2.38.69,4.8,1.26,7.22,1.78,3.17.68,6.23,1.38,9,3.4,2.56,1.89,5.62,3.1,8.34,4.8,1.14.71,2.59,1.77,2.86,2.92,1.45,6.13,2.71,12.23-.83,18.31a10.46,10.46,0,0,0-1.27,8.52c.62,2,.07,3.69-1.35,5.58-2.8,3.71-4.92,7.93-7.38,11.9-.61,1-1.55,1.78-2.2,2.75a62.47,62.47,0,0,0-3.89,6.33,6.47,6.47,0,0,1-3.67,3.2c-2.51,1.16-4.55,3.55-6.48,5.69-1.67,1.86-3.28,3.55-5.67,4.21Z"/><path class="cls-1" d="M888.05,402.11,882.88,401c-.79,1.18-1.5,2.25-2.3,3.47l-3-1.63c-.59,2.2-1.12,4.21-1.61,6.07-2.64.68-4-.85-5.39-2.08-3.54-3.08-7.14-6.1-10.53-9.34A22,22,0,0,1,852.83,381c0-3.5-.65-7-.76-10.5a38.44,38.44,0,0,1,2-14.7c.71-1.91,2.06-2.48,4.21-2.19a16.65,16.65,0,0,1,11,5.65c2.75,3.17,4.38,3.38,8.17,1.18,6.87-4,13.53-8.36,20.37-12.42,5.19-3.08,10.44-6,15.13-9.9,2.22-1.86,5.58-2.35,8.43-3.44.41-.16,1,0,1.28-.29,3.23-3.24,7.33-2.2,11.2-2.41a29.54,29.54,0,0,1,11.36,1.23,32.07,32.07,0,0,0,4.33.74c3,.56,3.71,1.51,3.35,4.53-.58,4.78-1.41,9.54-1.75,14.34a15.27,15.27,0,0,0,.87,7.33c1.53,3.27,1.26,6.2.17,9.34-.77,2.23-1.66,4.43-2.23,6.71a10.8,10.8,0,0,1-7.49,8c-4.31,1.5-8.63,3-12.89,4.57a52.87,52.87,0,0,0-20.18,13.18,43.8,43.8,0,0,1-4.65,4.05C897.45,411.85,891.83,410.56,888.05,402.11ZM911.69,361c-1.38.71-2.77,1.41-4.14,2.13-5.56,2.88-10.68,6.73-17.32,7.13a3.55,3.55,0,0,0-3.59,3.73,8.07,8.07,0,0,1,4.4,4.53,2.86,2.86,0,0,0,2.65.8,128.46,128.46,0,0,0,12.48-7.18C909.72,369.73,910.56,365.42,911.69,361Z"/><path class="cls-1" d="M691.79,351.18c-2-1.9-3.81-2.32-3.9-4.81-.07-2-3.64-4-5.86-3.3-1.71.51-3.09.63-4.56-.39a1.9,1.9,0,0,0-1.29-.24c-5.13.82-8.44-1.85-11.8-5.34-4.06-4.23-8.87-7.72-13.13-11.77-6.23-5.91-11.2-12.87-15.83-20.06-4-6.19-7.78-12.5-11.91-18.59-1.72-2.54-4.12-4.6-6.14-6.93-2.28-2.63-4.48-5.33-6.73-8-.46-.54-.91-1.26-1.52-1.5-4.26-1.65-8.45-3.66-12.87-4.65a20,20,0,0,1-11.73-7.08,10.32,10.32,0,0,1-2-5.12c-.09-.87,1.24-2.26,2.25-2.82,6.91-3.76,13.87-1.91,20.75.2,2.64.81,5.08,2.47,7.76,3,4.33.79,7.65,4.27,12.39,4.12,1.52,0,3.16,1.86,4.65,3,2.89,2.21,5.73,4.48,8.55,6.79,1,.83,1.81,1.93,2.84,2.74,3.46,2.68,7.21,5,10.43,8,6.15,5.58,13.57,9.72,18.51,16.73,1.79,2.54,4.77,4.21,7,6.5,4.89,5,9.63,10.25,14.42,15.39a2.18,2.18,0,0,1,.5.72c1.88,5.55,3.49,11.08,1.36,17a6.7,6.7,0,0,0,.11,4.22c.91,2.46,1.59,4.56-.42,6.92C692.61,347,692.53,348.8,691.79,351.18Z"/><path class="cls-1" d="M585.36,395.38c3.79.3,7.6.4,11.35.93,5.39.76,10.78,1.61,16.09,2.81,13.43,3,26.91,6.06,39.22,12.52,8.46,4.45,15.18,11.06,21,18.58a7.53,7.53,0,0,1,1.24,2.34c1.8,6.18,3.55,12.38,5.34,18.68a10.81,10.81,0,0,1-2.6,1.83c-3.33,1-4.15,3.69-4.08,6.54a9.11,9.11,0,0,1-1,5,4.71,4.71,0,0,0-.36,2.93c1.16,6.2,2.35,12.4,3.69,18.56.68,3.17.64,6.5,2.49,9.45.54.87-.22,2.54-.39,3.84l-1.18.29c-.84-1.39-2.17-2.69-2.43-4.18-.79-4.5-3.32-7.69-6.63-10.58a50.26,50.26,0,0,1-7.34-7.39c-2.91-3.85-5.36-8.07-7.88-12.2a35.66,35.66,0,0,1-2.94-5.94c-3.71-9.8-11.11-16.53-19-22.71-8.47-6.6-17.3-12.75-25.74-19.39a40.57,40.57,0,0,1-9.77-10.67c-2.38-3.9-4.9-8-9.3-10.22Z"/><path class="cls-1" d="M766.11,422l3.41,2.15a10,10,0,0,1-6.95,6.14c-2.67.72-5.31,1.53-8,2.28a9,9,0,0,1-1.72.28,9.52,9.52,0,0,0-2.2,0c-5.69,1.75-11.14.89-16.77-.71-3.43-1-7.42,0-10.87-.95a127.93,127.93,0,0,1-16.9-6.16c-2.87-1.24-2.79-4-.28-5.9a11.82,11.82,0,0,1,1.15-.66c4-2.4,7.38-5,6.29-10.68-.42-2.16.76-4.53-.24-6.91-.3-.72.47-2.24,1.19-3a54.65,54.65,0,0,1,5-4.13c.94,1,1.93,2,2.91,3,1.94,2,3.59,4.42,5.87,5.89,5.07,3.26,10.37,2.71,15.9.47a30.32,30.32,0,0,0,11.91-8.61q-2.05,4.95-4.11,9.92c2.19,3,5.64,1.29,8.25,2.56,2.41,1.17,5.26,1.44,7.67,2.05C768.88,413.84,771.83,418.32,766.11,422Z"/><path class="cls-1" d="M790.21,412.51c-2.15-2.72-5-2.19-7.73-2-.83.07-2.31.24-2.41,0-.89-2.35-2.77-2-4.67-2.28-3.34-.44-3.11-3.7-4.29-5.92-1.27-2.38-.67-5.69-3.67-7.25a2.46,2.46,0,0,1-.6-2.33c1.69-2.61-.17-4.73-.61-7.2-1-.26-2-.85-2.93-.69-2.3.42-2.73-1.23-3.36-2.67s.29-2.46,1.45-3.27a8.43,8.43,0,0,0,2.42-1.86c2.61-4,6.33-3.78,10.17-2.7s7.77,1.76,11.75.46a2.1,2.1,0,0,1,1.28-.17c3.54,1.45,7.06,2.95,10.58,4.46.4.17.73.61,1.12.66,7.52.89,8.81,6.83,10.39,12.62a15.09,15.09,0,0,0,1.39,3c-.61,2.59-1.13,4.46-1.47,6.36a4.39,4.39,0,0,1-4,3.78c-1.28.23-2.92.34-3.69,1.16C798.34,409.87,794.27,410.78,790.21,412.51Z"/><path class="cls-1" d="M836.49,350c1.38,1.62.49,4.39,3.15,5.17.41.11.69,1.22.75,1.89.48,5-5.5,13.59-10.28,14.59-2.14.45-4.4.28-6.6.53a21.45,21.45,0,0,1-10.83-1.63c-2.09-.89-3.56-3.32-5.22-5.14a19.55,19.55,0,0,1-4.85-12.61,12.06,12.06,0,0,1,1.33-5.39c2.35-5.09,9.91-8.18,14.35-5.24a8.7,8.7,0,0,0,4.55,1.32c2.51,0,4.65,1,5.59,3,1.44,3,3.61,3.54,6.45,3.33A7.06,7.06,0,0,1,836.49,350Z"/><path class="cls-1" d="M983.07,329.25a50.27,50.27,0,0,1,17.32,14.87c4.35,5.92,8.82,11.57,11.6,19.23-3.59.49-6.71,1.22-9.84,1.25-3,0-5.52.54-7.66,2.88-2.59-.67-5.66-2.71-6.53,1.78l-4.3-.27c-2.33-4.37-1-9.3-1.5-14-.25-2.44-.93-4.85-1.12-7.29a39.6,39.6,0,0,1,0-7.85C981.43,336.5,982.28,333.25,983.07,329.25Z"/><path class="cls-1" d="M1078.39,333.21c-2.33,1.59-5,3.22-7.4,5.11-1.48,1.15-2.6,2.75-4,4-1.14,1.07-2.42,2.79-3.64,2.8-2.21,0-3,1.27-3.61,2.63a27.94,27.94,0,0,1-4.53-2.87,19.83,19.83,0,0,1-3.35-4.45c-1.16-2-1.67-4.54-3.19-6.17-1.69-1.8-4.2-2.84-6.43-4.27l-4.47-9.06c4.32-1.73,8.61-3,13.7-2.38,7.07.86,12.63,5.23,19.17,7.19a6.71,6.71,0,0,1,2.42,1.87C1074.89,329.47,1076.63,331.36,1078.39,333.21Z"/><path class="cls-1" d="M1012.34,321.08c7.46,1.53,14.53,2.46,19.91,8a30.94,30.94,0,0,0,5.87,4.63c3.55,2.2,5,5.86,7,9.48-.84.27-1.6.55-2.38.75-.55.13-1.49-.05-1.64.23-1.73,3.35-5.92,3.54-8,6.35-1.1,1.47-2.49,1.65-4.27,1.51s-3.55.42-6,.77a13.51,13.51,0,0,1-1.27-3.33c-.79-5.18-3.29-9.66-5.42-14.33C1014.25,330.94,1012.26,326.68,1012.34,321.08Z"/><path class="cls-1" d="M874.92,672.77c-2.27.44-4.53,1-6.82,1.26-.73.08-1.55-.67-2.61-1.17,3.13-3.29,6.29-.89,9.3-1Z"/><path class="cls-1" d="M843.73,662.73l6.11,3.37c-3.67,1.76-4.78-1.28-6.72-2.73Z"/><path class="cls-1" d="M890.13,674.92c-1.91-.23-3.49,1.34-5.17-.27C887.47,672.57,888,672.57,890.13,674.92Z"/><path class="cls-1" d="M891.47,674.36l3.9-2.21c.23,1.09.39,1.83.55,2.58l-4.23.53Z"/><path class="cls-1" d="M859.33,671.88,854.56,670C857,668.32,857.35,668.41,859.33,671.88Z"/><path class="cls-1" d="M1221.78,798.33a5.85,5.85,0,0,1-2.62,4.5c-.55-2.76,1.19-3.51,2.73-4.39Z"/><path class="cls-1" d="M901.2,671.88c1,2.86,1,2.86-2,2.88Z"/><path class="cls-1" d="M913.83,669.18c.57-1.25.86-1.87,1.15-2.52l2.88,1Z"/><path class="cls-1" d="M1498.89,542.83h-2.64c1.19-1.17,1.19-1.17,2.5.11Z"/><path class="cls-1" d="M469.77,529.13l2.65-1.2c.13.3.26.6.38.9l-2.71,1.06Z"/><path class="cls-1" d="M916.74,612.82l2.39-.25c0,.29.11.58.17.87l-2.5.5Z"/><path class="cls-1" d="M722.49,753.6c-.26-.61-.49-1.11-.69-1.61-.44-1.16.28-2.27.14-3.42a7.37,7.37,0,0,1,0-1.15c0-.74.09-1.47.11-2.21s0-1.71,0-2.57c0-.41.14-.83.14-1.24,0-1.46,0-2.93-.09-4.39-.18-2.84.12-5.72-.76-8.5a3,3,0,0,1,1-3.17c.23.36.44.74.7,1.09a1.5,1.5,0,0,0,1.58.72,2,2,0,0,1,2.07,2c0,2-.24,3.92-.22,5.88,0,1.37.3,2.75.44,4.12a5.78,5.78,0,0,1,0,1.1c-.17,2.45-.36,4.91-.53,7.36a1.2,1.2,0,0,0,0,.33c.29,1.28.68,2.53.14,3.85a1.59,1.59,0,0,0,.09,1.09,3.89,3.89,0,0,1-.35,3.72,14.4,14.4,0,0,0-.73,1.9l-2-1.16s-.17.05-.28.21a1.42,1.42,0,0,1-2.25.27,4,4,0,0,0-3.07-1.5c-.29,0-.78-.23-.81-.42-.24-1.54-1.64-2.06-2.58-3-.31-.31-.77-.38-.53-1,.06-.14-.22-.51-.43-.65-2.15-1.41-3.54-3.51-5.09-5.47-.9-1.15-1.91-2.2-2.82-3.33-.21-.26-.22-.67-.41-1a7.06,7.06,0,0,0-.79-.86c-.22.31-.64.61-.63.91.05,1.64.21,3.27.34,4.91a8.58,8.58,0,0,1,.1.87c0,2-.09,4-.18,6a9.06,9.06,0,0,1-.26,2,3,3,0,0,0,.63,3c.14.17,0,.64-.09.93a15.25,15.25,0,0,1-.88,1.93,8.57,8.57,0,0,1-.79,1c-.41-.35-.67-.59-.94-.8-.56-.45-1.25-.68-1.13-1.73.09-.75-.48-1.56-.54-2.35a25.68,25.68,0,0,1,.12-3.16c0-.11.05-.24,0-.33-.65-1.5-.12-3-.12-4.55a21.54,21.54,0,0,1,.24-4,46.49,46.49,0,0,0,.3-6.15c.06-1.27.22-2.54.28-3.81a1.86,1.86,0,0,0-.21-1.14c-1.24-1.57-1.48-3.68-2.84-5.19-.39-.43.3-1.47,1.12-1.94a10.21,10.21,0,0,0,1.08-.91c.3-.24.65-.63,1-.62s.5.53.67.87q.53,1.05,1,2.16c.39,1,.68,2,1.11,2.95a10.65,10.65,0,0,0,1,1.4c1.69,2.45,3.4,4.9,5,7.39,1.07,1.61,1.92,3.37,3.07,4.92a45.25,45.25,0,0,0,3.83,4.36c.92,1,2,1.78,3,2.67a1.3,1.3,0,0,1,.4.51C720.59,753.78,721.43,753.78,722.49,753.6Z"/><path class="cls-1" d="M1009.42,727.55l-1.31-.63c1.26-1.58,1.26-1.58,2.83-1a5.58,5.58,0,0,0,.83.2,1.45,1.45,0,0,1,1.32,1.4c0,1,.13,2.06.2,3.09,0,.29-.06.64.07.86.78,1.31.12,2.67.19,4,.05,1,0,2,0,3,.06.79.87,1,1.73.43a19.38,19.38,0,0,0,2.31-2c1.9-1.84,3.8-3.67,5.63-5.56,1.27-1.31,2.42-2.73,3.63-4.1l.54-.6a15,15,0,0,1,1.43,2.45c.75,2.17-.36,3.81-1.79,5.27-2.48,2.52-5,5-7.46,7.53-1.13,1.15-1,1.53.39,2.38a47.57,47.57,0,0,1,4,3.12c.09.06.16.16.25.22,1.13.84,2.28,1.65,3.41,2.5.61.47,1.15,1,1.77,1.46s1.12.5,1.58.87a14.62,14.62,0,0,1,1.72,1.71c1,1.12,2,2.28,3,3.41a.8.8,0,0,0,.48.23c1,.09,1.31.69,1.17,1.62a1.33,1.33,0,0,0,0,.44c.09.44.37,1.2.26,1.26a5.92,5.92,0,0,1-2.13.76,5.45,5.45,0,0,1-2.17-.36,2.48,2.48,0,0,1-1-.92c-.41-.57-.66-1.26-1.11-1.78a1.32,1.32,0,0,0-1.12-.41c-.89.35-1.44-.06-1.43-.8,0-2.31-1.74-3.55-3-5.05-.93-1.12-2.11-2-3.15-3-.8-.79-1.53-1.66-2.35-2.42a10.79,10.79,0,0,0-2-1.6c-1.32-.75-3.64.5-3.7,2a35.76,35.76,0,0,0,.15,4.63,7.31,7.31,0,0,0,.72,2.59c.9,1.81-.13,3.48-.29,5.2,0,.49-.71,1-1.19,1.35-.13.1-.81-.16-.86-.35-.32-1.32-1-1.42-2-.6-.6-.89.15-2.52-1.61-2.59a2.34,2.34,0,0,0-.61-2.74,2,2,0,0,1-.41-1.45c0-1.37.12-2.74.18-4.1.05-1.1.15-2.19.11-3.29-.07-1.64-.33-3.29-.34-4.93,0-1.95.14-3.91.28-5.85.15-2.17.37-4.32.58-6.48C1009.23,728.4,1009.34,728,1009.42,727.55Z"/><path class="cls-1" d="M861.5,760.82a5,5,0,0,0-1-.28,31.44,31.44,0,0,1-3.37-.12c-.75-.12-1.4-.76-2.14-.93-1.44-.31-2-1.74-3.27-2.32-.59-.28-.87-1.16-1.42-1.59a4.21,4.21,0,0,1-1.5-3.08c-.24-1.51-1.15-2.91-1.58-4.41a6.06,6.06,0,0,1,.32-5c.47-.85.24-2.11.32-3.18,0-.75.06-1.5.17-2.25a5.1,5.1,0,0,1,.5-2.18,15,15,0,0,0,2-3.14c2.58-.6,3.18-3.11,4.58-4.83.47-.57.92-.71,1.51-.29,1.66,1.15,1.74,1.15,3.26-.21a1.71,1.71,0,0,1,.44-.32,2.39,2.39,0,0,1,.45-.14l.43,1.44a4.87,4.87,0,0,1,1.24-.08c.44.08,1.09.22,1.23.53a5.87,5.87,0,0,0,2.5,2.31,10.18,10.18,0,0,1,2.35,3.05c.13.19-.18.65-.06.93.11.51.46,1.16.27,1.51-.44.81-1.47.78-2.31.45-1.78-.7-3.11-2-4.63-3.11s-2.31-.78-4.07,0a13.78,13.78,0,0,0-4.23,3.3,8.15,8.15,0,0,0-2.66,7.53,5.94,5.94,0,0,1,0,1.52c-.08.75-.23,1.49-.34,2.23,0,.11,0,.29.06.32,1.25.63,1.2,2.15,2.08,3a13.86,13.86,0,0,1,1.06,1.6,8.88,8.88,0,0,0,1.89,2.42c1.68,1.05,3.33,2.21,5.6,2a3.51,3.51,0,0,0,2.12-.5c.63-.45,1.78-.25,2.68-.19,1.15.07,1.73-.7,2.37-1.39s1-1.2,1.42-1.8c.37-.45.71-.55,1,.1,0,.1.07.21.12.31,1.28,2.2,1.28,2.19-.6,3.92a6.05,6.05,0,0,1-3.77,1.42A27.09,27.09,0,0,0,861.5,760.82Z"/><path class="cls-1" d="M1150.31,729.11c1.49-1.13,2.61-.79,3.1.95a23.77,23.77,0,0,1,1,4.29c.22,2.53.19,5.1.26,7.65a1.76,1.76,0,0,0,0,.46c.75,2.31,1.54,4.61,2.25,6.94a9.86,9.86,0,0,0,4.21,5.24,29.34,29.34,0,0,0,3,1.48c2.31,1.26,4-.06,5.58-1.65a19,19,0,0,0,3.16-4.63c.63-1.18,1.26-2.38,1.88-3.58.07-.14.21-.28.22-.42a8,8,0,0,1,1.8-4.18,2.93,2.93,0,0,0,.36-1.15c.2-1.39.33-2.8.56-4.19.27-1.63.61-3.24.92-4.86,0-.16.1-.39,0-.47-1.42-1.9,1-2.31,1.21-3.55,0-.11.32-.2.49-.21a4.6,4.6,0,0,1,2.47,1.91c.38.93.89,1.81,1.19,2.78a14.71,14.71,0,0,1,.52,2.89c.09.94,0,1.9.06,2.85a2.07,2.07,0,0,0-1.8,2c.15,2-.66,3.65-1.41,5.35-.31.69-.55,1.42-.82,2.13-.64,1.67-1.17,3.4-2,5a11.36,11.36,0,0,1-2,2.24c-.59.65-1.17,1.33-1.77,2-.39.43-.8.84-1.19,1.27s-.52.6-.8.87-.48.55-.74.59c-1.72.24-3.45.46-5.18.61a8.5,8.5,0,0,1-3,0,11.72,11.72,0,0,1-3.46-1.78,28.4,28.4,0,0,1-4.53-3.95,25.69,25.69,0,0,1-2.85-4.66c-.68-1.26-1.2-2.62-1.79-3.94a1.09,1.09,0,0,1-.12-.46c.19-3.56,0-7.13.66-10.68A5.31,5.31,0,0,0,1150.31,729.11Z"/></svg>