<?xml version="1.0" encoding="UTF-8"?><svg xmlns="http://www.w3.org/2000/svg" viewBox="0 0 1307.23 579.59"><defs><style>.cls-1{isolation:isolate;}.cls-2{fill:#4b6268;stroke-width:0px;}</style></defs><g class="cls-1"><g id="_文字"><path class="cls-2" d="M321.16,108.87c-1.78,0,4.45-.89,17.79,5.34,7.12,3.56,10.23,2.67,15.56,6.23,5.34,3.11,21.35,13.79,39.58,35.58,12.01,13.34,4.45,8,8.45,12.45-1.33,3.11-1.33,6.23-1.78,10.23-.89.89-9.34,4-14.23,3.11-3.56-2.67-5.34-2.22-15.12.89l-.44-.45c-2.22,1.33-4,1.78-5.78,2.22l-1.33-.89-4,1.33c-1.33.44-1.33-.45-17.34,11.56,0-3.11.44-1.78,1.33-4h-1.78l-.44-.89.44-.89c-.44,0,0-1.33-5.78,2.67-5.78,3.56-8,4-12.01,6.23h1.33l-2.22.89.44.89h.89l-1.33,1.78-1.33.89h3.56l-2.22.89,1.78.45c1.78,2.67,1.78,2.22,2.67,4l-2.67,4.89,1.78,3.11c1.78-4.45,1.33-3.11,4-11.56l.89.89-6.67,18.23h.44l.89-1.78.45,1.33c1.78,0,2.22.44,8,.44l-.44.45c1.78.44,3.56.44,4.89,0v1.33l1.33-1.33v.89l6.23.89-.44,1.78,1.33.44-1.33,1.78-.44-1.78-1.33.45,4.89,6.67c-1.33-2.22-1.78-3.11-1.78-3.56,16.01,18.68,8.89,19.57,11.12,21.79l-1.33.45h.89l-1.78,2.67c-1.33.89-2.22,1.78-3.56,2.22l-1.33-.89-2.22.89v-.89c-.89-.89-2.22.45-8.89,1.78l.45-1.33c-.45.44-4,.89-10.67,2.22-12.9,2.22-10.23,3.11-11.56,3.56-.89,6.67-1.33,5.34-.45,7.12l-.89.89.89,1.78.45-.89c1.78-1.78,4-2.22,5.34-2.22l1.78,2.22c.89-2.22,1.33-2.67,1.33-5.34,1.33,2.22,2.22,4,2.22,4.45l1.78-2.22,3.56-.44v.89l2.67,1.78.89.89c2.22,0,4.45,0,4,.89l-.45.44.89.44.45-.44v.89c2.22.89,4.45,1.33,9.78,0v-.89h.89c-.44-.44-.89-.89-.89-1.78h1.78l-.89-.45c7.12-.89,7.56-1.78,12.01-2.22l.89.89c.45-.44,1.33-.89,1.78-.89v-1.33c2.67.89,2.67.45,4.45,2.22.89-.44,1.78-.44,2.67,0l.89-1.33.89-.44c.45.44,1.33.44,2.22.44,0,.44,0,.89-.44,1.33l1.33-.44.44-.89,1.33-.89c1.78,1.78,4-.44,5.34.89l4-2.22.45.89c4-1.78,4.45-2.22,4.89-2.22,1.33,0,.44.44,2.67,1.33v1.33l.89-.44h1.33l-.44.44,5.78,4.89,1.33-.44-.45-.89.45-.44.89.89.89-.89,2.67,1.78c.89.89,4.45,5.78,4.45,10.67l-1.33,1.33-4,5.34-1.33,1.33c-3.11,8.45-6.23,17.34-8.89,25.79l.44.44q1.78-4.89,2.67-5.78c-2.22,8.89-4,13.79-4.45,15.12l-2.22,4.89.44-1.78-.89-.89c.44-.44.89-1.33.44-2.67l-.44.89-.45.44-.44,1.33-.89.44-.44,1.33h-.89c-.44,1.33-1.33,2.22-2.22,2.67-4.89,3.56-8.89,5.34-10.67,5.34v-.44c-7.12,3.56-6.67,2.67-12.45,4.45l-.45-.45,2.22-2.22-7.56,3.11,4.45-2.67,2.67-2.67c-1.33.89-.89,0-9.34,2.67v-.89l-5.78.44,6.67,2.67c.44,0-5.78,0-12.45-.89,16.45,9.78,14.68,6.23,18.68,8l-.89.89c1.78,0,3.56.45,5.34,1.33v.89c5.34,0,5.34,3.56,16.45,2.67h-.44l.44.44-4.89.44c1.78,0,3.56,1.78,8.89,2.67l-.44.45q5.78,0,5.78-.89l4.89.44c-.44.45-.44.89-.44,1.33l6.67.89c-1.33.45-2.67.89-4,.89l4,.45h-4l.45.44c.44,0-1.78-.44,11.12,1.78l-2.67.45,5.34,1.33c-1.78.44-8,0-10.23,0l16.01,5.34.45-.44c4,2.22,6.67,3.11,16.01,6.23,14.23,4,11.56,2.67,12.9,2.67h-2.22c4.89,1.33,8,1.33,8.89,1.78l-.45.44-3.56,2.22-.44.89-.89.89c5.34,1.78,5.34,1.33,10.67,4.89l3.11,3.11c-2.22-.89-3.11.45-8.45,1.33l-.45.44-1.33-.44-.44,1.78c-3.56,0-7.56.89-9.34,0l.89,2.67c-.45.45-.89.45-1.33,0-.45.45-.89.89-.89,1.33l-.89.45-.44-.45c-2.22-2.67-11.56-3.11-19.57-2.22l2.67,1.33-4-.45s-4,1.78-5.34,2.22l.44.89,3.56.44v.89l-4.89,2.22-.89,1.33h7.56v.44c-2.22.89-3.56.89-9.34,4.45-4.89,2.22-3.56.45-7.12,2.22v.44c-.44.45-.89,1.33-5.78,1.33l.89.44c-2.22,0-5.78,2.67-14.23,3.56-6.23-.89-9.34,5.34-14.67,5.78-4.45.44-8.45,2.22-10.23,0-.44.44-.89.44-1.78.44-6.67-4.89-5.78-4.89-8.89-5.78l1.33-.44-8-4.45.44-.89,1.78.45-.89-.89-1.78-.44-.44-.89-.44.89-2.22-.45v-.89l-3.56-.45.89-.44.89-.89-2.67-.44v-.45s2.22-.44,3.56,1.33l-.89-1.33-3.11-2.22.89.89-.44.89-1.33-1.33.89-.45-.45-.44-3.56-1.78.45.44h-.45l-.44-.89c-1.78-1.78-4-1.78-4.45-3.11h.44l5.78,3.56c-9.34-8.45-8.89-7.12-10.67-8.45l-.89-1.78h-.89l-.89-1.33c-.89.44-1.33,0-1.78-.45l-1.33-2.22q-5.34-4.45-8.45-5.34c-3.56-2.67-7.56-8-8.45-6.23h.89c-2.22-.89-.89-.89-2.67-1.78l.44-.44-2.67-.44,9.78,7.56-.44.44-6.23-4.45c-7.12-5.78-6.23-4.45-6.67-4.45l.44.89,3.56,3.11,1.33,1.33c.45.45,1.33.45,2.67,1.78l3.11,3.11q-2.22-.89-3.11-.89c-.89-.45,0,0-4-4l-3.56-1.78h.89l-3.56-1.78c-5.34,10.67-4.89,8.45-5.78,11.56,0,1.78,0-2.22-1.78,5.78-.89,8-.89,4.89-.89,6.67l.89.44-1.33,2.22.44.44,1.78-1.78v.89l-1.33,2.67v1.33l-.44.44c.44,1.33-.44,4.89-.89,8l1.33-1.33-.44,2.22h-1.33c0,1.78.44.89-1.33,3.56l.44.44-.44,1.33.89.45v.89l-2.22.45c-1.33,2.22-1.33,6.23-2.67,10.23l1.33.89v.89c-8.89.44,2.67.44-19.12,3.56-14.23,1.78-14.67,4.45-18.23,8-3.11,3.56-4.89,3.11-7.12,3.11-2.67-2.67-4,0-13.34-6.23v-.89l.44-.89-3.11-3.11c-.44-1.33-3.11-2.67-3.11-7.12,0-3.11-5.78-8.89-5.78-12.45s-.89-4-1.33-5.78l.44-.89-.89-2.67-.89.89c0-2.22.44-6.23-.89-12.45l-.44.89-.45.45v-.89h-.89c.45-.44,0,2.67,2.22-11.12l-10.67-5.34,9.78,3.11v-.45c-6.23-2.22-6.67-2.67-10.67-3.56h1.78l-6.67-4.45,7.12,3.11-.44-.89c-8-4-14.23-7.56-19.12-11.56-8.89-7.56-8.89-6.23-10.67-6.67v1.33l-2.67-2.22,1.33-1.33-.89-1.33,1.33-.89-4.45-5.34-1.33.89v-3.56c.89.44,1.78.44,2.67.44l-.45-.89v-2.22l-.89-.45-.44-3.56.44.89h1.33l-.45-.45.45-.44-.89-.89,4.89,1.33v-.44h2.22c-.45-.44-.89-1.33-.89-3.11l1.33.44v-1.33l8,4-4.89-3.11-1.33-1.78c4.89,4,14.23,6.23,21.35,1.33l.89.89,7.56-4-.45.89,5.78-3.56v.45l-1.33,1.33c1.78,0,14.68-8,16.9-8.89-.89.45-1.78.89-3.11.89l2.67-2.22-1.33-1.33v-.89h-1.78l1.78-.44,1.33,1.78h.89l-2.22-3.11-1.33.44.89-.89c-2.22-1.78-3.56-4-4.89-6.23l-.44.44.44-.89c-.44-.45-.89-1.33-.44-2.67h-.89c0-2.22-.44-.45-.44-12.45l-2.22-2.22.89,1.33c-1.78-.44-10.23-4.89-12.45-5.78-4-4-12.01-6.67-13.79-7.56l-4,7.12,3.56-7.12-.89-.44-1.78,1.78,2.67-4.45-1.33-1.33c-.44.45-.89.45-1.33.45l.89.44-1.78,1.33h1.33l-1.33,1.33-1.33,1.78h.44l-.89.44,1.78.44-2.67,1.33h.44l-1.33,1.33.89.44c-.89,0-.89-.44-2.67,1.33l.44.89-.89.89s-.89,2.22-1.33,2.67l1.33.89h-1.33c-1.33,1.33-1.78,2.22-1.78,3.56h.89l-1.78.89h.89l-1.33.45v.89l-.89.89h.44l-.89.89h.44v.89l.44-.44.89.44v.89l-1.33.44-.44,1.78h1.33c-1.33,1.33-2.67,1.78-4.45,2.22h1.78l-.44,1.78-1.78-.44.89.89-1.33.45h.89l-1.78,1.33-2.22,2.22h3.11l-.89-.45.45-.89.89.45-2.67,1.33-1.33,1.33.89.89,1.33-.44-2.22,2.22h1.78l-.89,1.33-.89.45.45.89h-1.33l.45.44-.89,1.33h.89l-2.22.89.89-2.67c-4.45,4.45-5.78,7.12-5.78,9.78l-.45.44-1.78,3.56h.89c-1.33,1.33-2.22,4-2.67,4.45l-.44.89v1.78l-.89.45-2.22,4.89.45-.45v.45l-.45.44v1.33l-.44-.44-3.11,6.23h.45l2.67-4.45.44.45-.44.44h.89l2.67-3.11,1.78-.44-.44.89h1.33v.44c-.89.45-1.78,1.33-2.67,2.22l1.78-.44c-.44.89-.89,1.78-.89,3.11l-.89.45-.44.89-.89.89-.89-.44.45-.45-1.33.45-.44.89,2.22.44-.89,1.33.89.45c-.89,1.33-1.78,2.67-2.22,4l.44.89-2.67,5.78.89-1.33.89-.44,2.67-5.78h1.78l-1.78.89-1.33,2.67,4-1.78c-2.22,3.11-4,6.23-5.34,9.34l-.89.44-1.33,3.11,1.33-.44,2.22-4c-1.78,4.89-5.78,10.67-7.12,14.23l-1.33-.45-.45-.89-.89-.45-4.45,3.56-.89,1.33-3.11.89h.89l.44.44-.89.89c-3.11-.44-10.23,8-10.67,6.23.44,1.33,0,2.22-.45,2.67v-.45l-2.22,1.33-.44-.89-6.23,4.89-.45.44h-1.33v.89h.89l.44.44-1.33.89h-.89l-1.78,5.78,1.78-1.78-1.78,4c-.44.44-1.33.89-2.67.89l.89-.45-.89-.44-.89.44c0-1.33-.44-.44.44-2.67l-2.22,1.78-.89.44,1.33.44-1.33.45-.44,2.67h-.89c-.45-1.33-.89-1.78-2.22-3.11l1.33-.44-1.33-.89c.44-.44,1.33-.44,2.22,0l-1.78-.89-1.33,1.78-.89.44,1.78-1.78-.45-.89c-2.22,2.22-.44.44-4,1.78l1.33-.89-1.33-.89h1.33v1.33l2.22-1.78.89.89c.89-2.22.44-.89.44-3.11l-1.33,1.78-4.45,1.33c.89-.89,1.78-1.78,2.67-2.22l-1.33-.44c-2.67,2.67-2.67,1.78-4.45,2.67-1.33-.89-2.67-1.78-4-3.11v-1.33l2.22.44.45-1.33-1.33-1.78-1.33-2.67,2.22.89,2.22-2.22c-1.33-2.22-1.33-1.33-1.33-4.89h.89v-1.33l1.33-.89c-.89-1.78,7.12-8.89,5.34-9.78l2.22-1.78c10.23-27.57,11.56-27.13,10.67-28.02l1.33-.89.89-1.78c.44-.44.44-1.33.89-3.11.44-1.78,3.11-8,8-19.12l-.89,1.33c8-17.34,11.56-25.35,11.56-24.9l.44.89.44-.45c0-.89,0-.44.89-4l.89.89.89-1.78h-.89v-.44l.89-.45,1.33-1.78-1.33,1.33v-1.78l1.33.45c3.11-6.67,4.89-7.12,5.34-8.89l.89-.44-.89,2.67-.89.45-.44.44.44.44,2.67-3.56v1.33l-.89.45.44.89h-.89l-.45,2.22-1.33,1.33.44-1.33-1.78.45-.89,2.67.89-.44v.89l-.44.45c0,.44-.89,2.22-.89,2.67h-.44l-.89,1.78h-.45l2.22-4.45h-.89v.44l-1.33,1.33.45.45-.45.44-1.78,4-.89.45c0,1.33-.89,1.33-1.78,5.34l3.11-5.34.89-.45v.89l-1.33,1.33h.89l-.89,1.78v-1.78l-1.33,2.22h.89v1.78h-2.22l-.89-.45c0,.45.44,0-3.11,8.89,0,0,.89-3.11,4-8l.89,2.22,1.33-2.22c0,.89-.44,0-.44,2.67h-1.33c1.33,0,.44,1.78,0,3.11l-.89.44-2.22,6.23c-1.78,5.78-1.33,5.34-.89,5.78l-1.33.45c-.44.89-.89,1.78-.44,2.67l.89-.44c-.45.44-.45.89,0,1.33l1.78-3.56c-.44,2.22-1.33,5.34-1.33,6.67l1.78-4.45c.89,2.22.89,1.78-1.78,7.12h-.89c.89-1.78,1.33-1.78.45-2.67-2.67,7.56-3.11,6.67-3.11,8.89l.45-.89.89.44c-.89,3.56-1.33,4.89-1.33,7.56l2.22-2.67-2.22,7.56.89.89c3.11-6.23,4.45-8,4.45-9.34l-2.67,3.56c1.78-5.34.45-1.33,6.23-12.45l-.45-.89,1.33-1.33.89-1.78.89-.44v-1.78h.89l-.89-.44c-.44,1.33-1.33,2.22-2.22,2.67l.44-1.33-1.33,1.33c2.67-5.78,2.67-4,2.67-6.23l.89-.89-2.22,5.34,2.67-4,.44.89c1.78-3.56,5.78-10.67,6.23-12.9.89-4,1.33-3.11,2.22-5.78h.45l.44-1.33-.44-.44c1.33-4,1.78-3.11,1.78-5.34l.89-.89.44-.89,1.33-.89c1.33-3.56,6.23-13.79,6.67-15.56v-.89h.89l-.45-.89.89-.44v.44l1.33-3.11v.89l1.78-3.56h-.89v-.44l1.33-.44c1.78-4,3.56-8.45,4.89-13.34l-1.78,2.67-1.33.89c2.22-3.56,2.67-3.11,8-14.23l-.89-.44c2.22-4,3.56-5.78,3.56-7.12l-.89,1.78-1.78,1.78v-2.22l3.56-2.67c.89-2.22,2.67-5.78,4-7.12h-1.78c0-1.33,0-1.78,1.33-4,.45-1.78,3.56-4,4.89-7.12,1.33-3.56,2.22-4,7.56-14.68-3.56-1.78-10.23-4.89-10.23-4.89l-4.45-4.89c.89,0,0,0,3.11.89l-.89-2.22h.89c-3.11-14.23-4.89-16.01-4.89-19.57-.89-5.78-2.67-7.56-1.78-8l1.78-.44c-5.34-9.34,1.78-10.23-1.33-15.56,3.56-3.56,2.67-4,3.56-4.89l.89-.45,4-4.45,7.12-7.12c15.12-23.12,16.45-21.79,16.01-24.01,1.33,0,.45,0,3.11-1.78l1.78,1.33.89,4c.45,1.33,0,9.34-1.33,24.9h1.78c.44,0,6.67-2.22,17.79-7.12l29.35-13.34c8.45-4.45,12.9-6.67,13.34-6.67h.89l-5.78,3.11c3.11-.44,6.67-1.78,9.78-3.11l1.33-1.78,6.23-3.56-1.33,1.33c3.56-1.33,2.22.45,13.34-4.89l-.89-.44c2.67-1.78,1.33,0,8-1.78,7.56-2.67,4.45-2.22,10.23-4-1.33-.45-.44-.89-7.12.89-6.67,1.78-9.34,2.67-15.12,4.89,4-1.78,4.89-2.67,9.78-4.45,4.89-1.78,15.12-3.56,16.9-4h-3.56l.89-.89,6.23-.44ZM126.82,328.55c-3.56,7.56-6.67,15.12-9.78,22.68l1.33-.89,4.89-12.45.44.89h.89l-.44-.44,3.11-7.56,1.33-1.33-.89.44-.45-1.33h-.44ZM124.15,344.11l.44,2.22-.89.89-.89.45h.44l-.44,1.78h.44l2.67-6.23-1.78.89ZM149.5,362.79l.44.89h.89l-3.11,3.56-.89-.44,2.22-1.78-1.33.44,1.78-2.67ZM158.4,368.57c-.45,1.33.89-1.33-4.89,12.45-5.34,12.9-4.45,11.12-5.78,11.56l2.22-5.78-.44-.89,1.78-2.67,6.67-14.68h.45ZM161.95,345.89l-1.78,3.11h.89c-.89.89-1.78,1.78-2.22,3.11l.44.44c-.89,2.67-2.67,4.45-2.67,6.23l2.67-4,.45-.45c-1.33,4-1.78,4.45-3.11,5.78-2.22,4.45-3.11,4.89-3.56,6.23l.44.44,1.78-2.22-1.33,3.11h-1.78l2.67-7.12,1.33-.45c0-3.56.44-3.56,2.22-6.23v-.89c1.78-6.23,2.22-6.23,3.11-7.12h.44ZM156.17,311.21l-2.22,2.67.44.45,1.78-1.78.44-.44-.89,1.33c-.89.89-.44,1.78-1.78,4l-.89.89.44.44-.44.45.89.44c.89-2.67,2.22-5.34,3.56-7.56l-.89-.45.44-.44.45-1.33-1.33,1.33ZM158.84,340.11l-1.78,1.78c-.44,2.22-1.33,4-2.67,6.23l-.44.45c1.78-6.23,2.67-5.34,2.67-7.56,1.33-1.33,1.78-1.78,2.22-1.78v.89ZM157.95,345c-.44.44-.44,1.33-.44,1.78l1.33-1.33,1.33-.44-1.33,1.33c0,.89-.44,1.78-.89,2.22l-.89.44v-.89l-.89-.44c1.78-1.78,1.33-2.22,1.33-3.11l.44.45ZM162.84,330.33l.45.45-1.33.89-.89,1.78.89.44-.89.45h-.45c-.44.44-.89,1.33-.89,1.78l-.89-.44,2.67-4.89,1.78-.89-.45.44ZM166.84,270.29l-1.33.89h1.33l-1.33,1.78h-1.33.89v-.89l.89-2.22.89.45ZM177.52,301.42c2.22.44,4,.44,4.45.44l-1.33.45,1.33.44-1.78.44-.44-1.33h-3.11l.89-.44ZM183.74,296.98l-.89,1.78.89.89-1.33.89c-.45.45-.89.45-1.33,0l-.45-.44.89-.45,1.78-3.11.45.44ZM190.41,279.19l-1.78,1.78v-1.33l-1.33,1.33v.89l1.33.89-.44-.89h3.56l-1.78-.89.44-1.33v-.45ZM227.77,250.73c-6.67,1.78-9.34,1.33-13.34,1.33l1.78-.44-3.56.44v-.89l-1.33.89-3.56,6.23,2.67-5.78-.44-.89c-1.33,2.67-2.67,3.56-4.89,8v.44h-.89c-.44,1.33-.89,2.67-1.78,4l-.45-.44c1.33-3.11.89-2.22,3.56-6.23v-.45l-1.78,2.22-4,3.56c0,1.33-1.78,3.11-2.22,4.45-.44-.44,3.11-4.89,1.78-4.89-1.33,2.22-2.67,4.45-4.45,6.23l.45.44c-.89.89-2.22,2.67-1.78,3.11l-1.33.45.44.44c-2.67,4.45-2.67,3.56-3.56,5.78l1.33-.89.45-.44c.89.89.44,1.33-.45,3.11h1.78l-.44-.44c2.22.44,4.89.44,7.12,0-1.78-.89-2.22-.44-4.89-2.22l-.45-.44.45-.45c3.56.45,5.34,2.22,8.45.89,6.67-3.11,12.01-6.23,10.23-4.89l-1.78,1.78v.45l17.34-9.34c3.11-6.67,4.45-10.67,4-11.12-.45-1.78,0-2.22.44-6.23,0,.45-1.78.89-4.89,2.22ZM196.19,270.29l-1.33,1.78c.89,0,1.78-.44,2.67-.44l-.89,1.33v-.89l-2.67,1.33,1.33-3.11h.89ZM208.65,402.82l1.33-.44v-2.67l.44,1.33c0-.89.89-.89,0-2.67-1.33,2.67-1.78,3.56-1.78,4.45ZM260.23,185.36q-3.11,1.78-4.89,2.22c.89.44,1.78,0,3.11-.44l-8.45,4.45.44-.44.45-.45-.89-.44-2.67,1.33c0,1.33,0,.45-1.78,2.22l-1.33.45.44-.45.45-.89-1.78,1.78-.89,1.33-.89.44c-1.78,4.89-2.22,3.56-2.22,5.78l3.11-2.22-1.33,1.78-.89.89h-.89c-7.56,9.34-7.12,9.34-10.23,13.34l.89.44c.44-.44.44-.89,2.67-.89l8-4c4-2.22,13.34-7.12,27.57-13.79l.89-1.33-.89.45v-.45l1.33-.44v-.89l.89-.89h-.89v-.89l-1.78,2.22c.44-1.33.89-3.11.89-4.89l.89-.44v-.44l-.89-.45,3.11-2.22,1.33-3.56,1.33.45c2.22-6.67,3.11-4.89,3.11-7.56-9.78,4.89-15.56,7.56-17.34,8.89ZM236.66,210.7l-2.22,1.33h1.33l-2.22,1.33-.89,1.78,1.78-3.56,1.33-1.33.89.44ZM238.44,206.7l-.89.44v.89l-.89.45.44.44-1.78,1.33,2.22-3.56,1.33-.44-.44.44ZM259.79,358.35l-1.33.89q0,.89-.89,1.78v-.89l-1.33,1.78h1.33l-1.78.44c-1.78,2.22-3.56,4-4.89,6.23l1.33.45-.89.44c-1.33,3.56-.44,1.33-4,7.12l-1.78.89.44.44v.89l-2.22,1.78v.89l1.33-.89-.45.89-1.78.89,1.33.44-1.78.89,1.33.45-.89,1.33-1.78,1.33-.44,1.33.44.44-.44.45,1.33.44.89,3.11c11.56-.89,13.34-.89,15.56-2.67l-.44.89h-.89l.44.45,1.78-.45,1.78-3.56v2.67c.44-.44,1.78-.89,3.11-1.33,1.78-.89,4.89-3.56,9.34-7.56,4.45-4,7.12-7.12,8.45-8.45l.44-.89-.89-.89,1.78-.44.89-1.33-1.78-1.33-1.33.44.44-.44-1.33-1.78c-2.22-.44-4-1.78-5.78-3.11l-1.78.89-.44-.44v.89l-1.78-.89-.44-.89c0,1.33-8.89-2.22-8-.44,0-.45-.45-1.33-1.78-3.56h-.44ZM273.57,282.75l-20.46,10.23c-.44.44-1.33.44-2.67.89-2.22,7.12-1.78,8-1.78,13.34l.44.89v.89l1.78-1.33.89-1.33,7.12-6.23,8.89-9.34,1.78-1.33,4-6.67ZM275.35,226.27v.45l-5.78,2.67-1.33,1.78c-2.22,0-1.33.44-3.11.44l1.33.44-1.33.89v-.89l-3.11,1.33-.45.89-1.33.45v.44h-.44v-.44l-1.33.89-.44.89-.45-.89-1.78.89-.89,1.33c-1.33.45-2.22,1.33-3.11,1.78l2.22,4-1.33.45-.44.89-.45.45c-.89,4-.89,2.67,0,8h.45l-1.33.89.89.44-1.33.89,5.78-1.78c1.78-.45,11.12-5.34,28.46-14.23.44-9.34.89-14.23.44-14.68,0-.89,0-1.78-.44-2.67l-9.34,4ZM276.24,275.63l-.89.89-1.78.89-.45.89-1.33.45v-.89l-.89.89.89.44-4.89,2.22v-.89l-1.33.45-1.33,1.78.89-.89c-1.78,0-4,.89-4.89,1.78l-.89.89-6.67,4c-.89.44-1.33,1.33-1.78,2.22l8.89-4c-1.33,1.33-4.45,2.67-6.67,4.89,15.12-6.67,8-5.34,11.12-5.34l1.33-1.78c.44,0,.89,0,1.33.44l.44-.89,7.56-3.56c2.22-4.45,1.78-2.22,1.78-4.89h-.44ZM279.35,267.18c-7.56,3.56-14.68,7.56-21.35,11.56l-1.33,1.78,21.79-9.78.89-2.67-.89-.45.89-.44ZM283.36,171.13c-1.33,0-3.56,1.33-4,2.22v-.89c-3.11,3.11,0-1.78-22.24,12.01h1.78c.45,0,7.56-3.11,21.35-9.78l.45-1.33-.45.89,1.78-.45,1.33-2.67ZM274.46,361.9l.45.44c-.45-1.33,11.56,7.56,9.34,5.78l-8.45-6.23-.44-.45-.89.45ZM277.58,176.91c.89,0,1.78,0,2.22-.45l-.44.89-1.33.89c0,.89,0,1.33-1.78,2.22h.89l-.89.89-.89,1.78,2.22-1.33c0-.89,2.22-3.11,4.45-7.56-4,1.78-2.67,1.78-4.45,2.67ZM275.8,361.01l.45.89c.44,0,1.33-.45,3.11,1.33l-.89-.44,6.23,4.45-.44-.89,2.22,1.33,1.33-.89h-1.33l-.45-1.78c-3.11-.89-5.78-2.22-8-4.45l-2.22.44ZM284.69,220.49c-2.22,1.33-4.89,2.22-7.12,3.11v.45c4,0,5.34-1.78,7.12-2.67v-.89ZM281.58,360.57l-.44.89,2.67,1.78,1.33-.44-3.56-1.33.45-.89h-.45ZM311.82,306.76l.89.89-1.78.45.89-.89c-1.33,0-.45-.45-2.67.44l.44-.44-1.78.44.89.45c-.44.44-1.33.44-2.22.89l-.89.89h3.11l.45-.89,1.33-.44-.45.44c.89,0,.45.45,4.89-1.33l-2.22-1.33-.89.44ZM315.38,313.43c-3.11,1.78-4.45.89-7.56,4l1.33.45.44-1.33,5.34-2.22.89-.89h-.44ZM349.62,305.43l-1.78-.44c-.44,1.33-1.33,2.22-1.78,3.11l.89.89c-3.11,1.78-7.56,4.45-14.67,4.89l-.44.89s-.45-.44-16.9,4.89l4-2.67c-4,.89-3.11,0-10.23,5.34h.45l3.11-.89c-.44,1.33-.89,2.22-2.22,3.11l1.78-.44.44.89c4.45,2.67,4.45,1.33,9.34,5.34,4.45-1.33-2.22,1.78,14.23-7.56l15.56-16.45c-.44-.44-.44-.89-.89-2.22l-.89,1.33ZM314.49,391.25l.89.89h-.44c-1.33-1.33-.89-1.33-2.22-1.33-.89-.44-1.33-1.33-1.78-2.22.44,0,3.56,2.22,3.56,2.67ZM318.49,303.65c-2.67,1.78-3.11,1.33-4,1.33l.89.89-3.11-.45,1.33.89,3.11-.89.44-.44,1.78-.45-.45-.89ZM314.04,393.92c.89.89.89-.44,5.78,4.45l.44.89-2.67-.89c-.45-.45-.45-1.33-.45-1.78l-3.11-1.78v-.89ZM327.38,256.51l-6.67,2.22s.89.89-.44,1.78l7.12-4ZM320.27,396.15c4.45,3.56,8.45,5.34,11.12,8-.44,0,1.33,1.33-9.34-6.23l-1.78-1.78ZM323.82,220.04l-2.67,6.67,1.33.44c.44-.44,1.33-4.89,2.67-6.67l-1.33-.45ZM330.05,248.95c-2.22,0-2.22.44-3.56.89l-.44.45-4,1.78-.89,3.11h2.22c-.89.44-1.78.44-2.22.44.44.45.44,1.33.44,1.78l4.89-1.33c-.44-.45-.89-.89-2.67,0,.44-.45.44-1.33.44-1.78l6.23-1.33,1.78-2.22c-.44-.44-.89-1.33-.89-1.78l-.44.89-4,.45,4-.89-.89-.44ZM326.94,246.73q-1.33,0-3.11.89h-.89l-.44.45.44.89,4.89-1.78-.89-.44ZM326.49,225.38v1.78l5.34-1.33-3.11-.44h-2.22ZM346.06,279.63h-2.22v.89l-.89.45,2.22.44c1.33,1.78,1.33,2.67,1.78,3.11l-1.78-2.22-.44.44,1.33,3.56-.45.45-.44-.45-.89-.44v-.89l-1.78.44.44-.89c-.89.44-1.78.44-2.22,0l1.78,1.78h1.33l.44.45.89,1.33c1.78.89,1.33,0,4,1.33l-.89.89,1.33-.44c0-.89,0-1.78.44-2.22l.45.45-.45,1.33.89.89-.89.45c2.67,3.11,3.11,4,3.11,5.78l.89.44c0,4,0,3.11-1.78,7.56,3.11-3.11,2.22-1.78,4.89-7.12-1.33-1.33.89-8,1.78-16.01l-3.56-.44-1.78,1.78.44-1.78-3.56-.89-.89.44-.45-.89c-1.78,0-1.78.44-2.67-.45l-.44.45ZM348.73,259.62v2.67l-4,1.33c.89-.89.44-1.33,0-1.33,2.67-1.78,2.22-1.33,3.56-1.33v-1.33h.44ZM430.55,404.59c8.45,1.78,8,1.33,13.34,4-8-2.22-12.01-3.11-12.45-3.11l-.89-.89Z"/><path class="cls-2" d="M637.79,219.6c2.67,1.78,3.11,6.23,3.11,5.78h2.22c0-2.22.89-2.22-.45-3.56.45-.45,1.33-.45,2.22-.45l.45.89h.89l.89,1.78c.89,0,6.67,0,9.78.89,4.45,1.33,6.23.45,12.45,5.34l.44-.44,3.56,2.22,2.22,2.67c2.67,0,2.22.44,5.34,2.22,3.11,3.11,4.89,6.67,7.56,13.34,1.33,2.22,1.78,7.12,1.78,13.79,0,9.34-.45,6.23-.45,8.45l.45.44c.89-2.67-1.78,10.67-3.11,11.56h-1.78l-.44,1.33-1.78,1.33-.45.89-.44.44c.44,0,.89,0,1.33.44l.89-.89.44-1.33,1.78-1.33v.89l-.89,1.33v.89l-1.33,2.67-1.33,1.33c0-.44,0-1.33-.45-1.78h-1.33l-1.33,2.67c-2.22,0-1.33-.44-2.67.45l-3.56-.45v.45c-3.11,0-3.11,1.78-4.45,1.78,0-.44,0-1.33-.44-1.78l-1.33.89v-.89c-.89.44-1.78.44-2.22,0-.44.44-1.33.89-2.22.44,0,.44-.45.89-1.33,1.33l-1.33-2.22-2.67.45-.44-.45-1.78.45c-2.22-1.33-1.33-1.33-2.22-1.33l-.89-1.78-3.11,1.33v-.89l-.44-.44h-.89c-.89,0-.89.44-3.11.44v-.44c-1.33-.89-2.67-1.33-4-1.78l-.44.45v-.89l-1.33.44-.89-.89h-.89l-1.33-1.78h-.45c-.89,1.78-4.89-3.56-6.67-.44l-.89-1.33-1.33.44c0-.89.89-1.33.89-3.11h-.89v-4.45l-.44.44v1.78l-.89.44c0-.89.89-.44,0-4.45l.89.44.44-.44v-3.56h.44c-.44-1.33-.44-2.67.89-4l1.78-5.34c1.78-5.34,0-6.23.45-8.45.89-2.67.44-6.67-.89-9.78-.89-4.45-1.78-4-1.78-5.78-.89-3.11-4.45-4.89-3.11-10.23l.89.89.44-.44.89-2.67.89.89.44-1.78,1.33.89v-1.78c.89.44,1.78.89,2.22.44q-.44-.44,0-.89l1.78,1.33c.44,0,1.33,0,1.78-.45l1.33.45,1.33-5.78ZM628,272.52h-.89c.45.89.45,1.33,0,1.78l.89-.89.44.45.89-.45-.89-2.67h-.44v1.78ZM644.46,220.49c-1.33,0,0,0-1.78-.89l.45-.89h.44l.89,1.78Z"/><path class="cls-2" d="M1006.44,92.41c8.45-.45,15.12,2.22,18.23,6.23l4.45,5.78c1.33,1.33,4,6.67,8,15.12,4,8.45,7.12,14.68,8.45,19.12,6.67,16.01,0,20.46-.89,22.68.45.44.89.89,2.67.89,3.56,2.67,3.11-.44,18.23,7.56l1.33-1.33c0-2.22,0-3.11,1.78-5.34,1.78-2.67,0-8.45,5.34-16.01,3.56-4.89,2.67-6.23,4-8,.44-.89.89-2.67.89-5.34,0-5.34-.44-4.45-.89-4.89.89,0,.44-.44,2.22-.44,3.56,5.78,1.78,28.91,5.34,28.02l-.44,1.33,1.33-.45.44.89h1.33c2.22-3.56,2.67-4.45,2.67-4.89l.45-.44v1.33c.89-1.33,1.78-3.11,2.22-4.89l1.33.89c-1.33,0,5.34-6.67,3.56-7.12l1.78-1.33.45-1.33.89-.89-1.33,2.67.45.44,3.11-3.11,7.56-8.89h-.89v-.44h.89c0-.45.44-1.33.89-1.78l1.33-.44,3.11-4.89-.89.44v-.89l2.22-4,.89-.45.44.45c1.33-1.33,6.23-6.23,9.78-6.67,7.12-2.22,10.67-.44,15.56-2.22v-.44c8.89-1.33,5.78-3.56,22.23,2.22,20.01,6.67,20.01,8.45,24.01,10.67v-1.33l7.12,6.67c0-1.78,0-1.33-1.33-3.56l1.33.45c.89,4,2.67,5.78,3.56,6.67l3.11,2.22-.89.44h1.33v-1.33h.44c-.44,1.33,0,2.22.89,2.67l.89.89v.45c.89,1.33,1.78,2.22,3.11,3.11v.89l-3.56,1.33v.89h-.89l-3.11,3.56-2.67,1.78,1.33.45-4,4.45h.45l-2.22,1.78.89.44-1.78.89-1.33,3.11h.89l-1.78,1.78,1.33-.44-.89.89-.89.44-.44.89.89-.45-1.33.89.89.89c-2.67,4-2.67,2.22-4.45,7.56l1.33-1.78h.89c-1.78,1.78-1.78,1.33-2.67,5.78l-.89.44v-.89l-.89-.44c1.78-1.78.89-.89,3.11-9.34l-1.78,4c0-1.33.45-1.33-.44-2.22-.44,2.67-2.22,5.78-4.45,15.12-.89,8.45-2.67,10.23-2.67,15.12l.89-3.11h.44l-.89,2.67.89.44c-.89.89-.89,1.78-.44,2.67-.45.89-2.22,9.78-1.78,11.56l.89-.44-1.33,1.33v1.33l.89-.89v1.78l-.89.89c.44.44-.44,4.89-.89,10.67l1.33-3.11h1.33v-5.78c0-7.12.45-7.12.89-8.89l-.44,5.78.89-3.56h.89l-.44,3.11.89.44v.45l-.89-.45v4.45l-1.33-.89-.45,4.45,1.33.89h.45c.89-5.78.89-5.34.89-6.67l.89.45-.89.89c0,.89.89,0,0,5.78l.44-2.22.89-.44.44,1.78-1.33,2.67c-.44.44,0,12.45.44,14.23l.89-.89.89.44v4c0,1.78-.44.44.44,4.45l.89.89c-.44,3.56.44,7.56.44,9.78.45.89,1.33,1.33,1.78,1.33,0,3.11-1.33,6.67-.89,8l.89-1.33h.89l.44.89c0,.44,0,3.56-.44,4l1.33.89.89,1.33-.89.45c0,3.56.44,2.22.44,3.56h.45c1.33,2.22.89,0,.89,5.34l-1.33,1.33v1.78c1.33-.45,2.22-.45,3.11,0l-.89,2.22,1.78.89c-2.22,0-.89,0-4.89,2.67l.45,1.33.89-.45v.45l-.45.44-.44,1.33h-.89v-1.33l-.44.45c-.89,0-.45-.45-3.56,2.67,0,0-.45.44.44,2.22l-2.22-.45-1.78,1.78-.45.89c-.89,0-2.22,1.33-3.11,1.33l.44,1.78c-7.12,8-14.23,16.01-21.79,23.57q-6.23,5.34-10.67,6.23l-.45-.89-2.67-.89,1.78-1.33-1.33-1.33-2.22,1.33c-5.34-4.45-5.34-2.67-7.12-4.45-2.22-1.78-4.89-.89-7.12-4.89l1.33.89.44-.45c-3.56-2.67-2.22-2.22-4.45-2.22l-1.78-2.22v.45l-6.67,6.23-.89,1.33c-1.78.89-.89.89-5.34,0l1.78-1.78c1.33,0,2.22-.45,3.56-1.33l1.33-1.33,4.45-3.11-1.33.44.45-.89-1.33-1.33-.44-1.33c-1.33,0-3.56.45-4.89.45l-.44-.89,2.22.44v-.89l-7.56-4.45c2.22,0,3.11.44,4.89,1.33-1.33-1.33-3.56-3.11-8.45-4.45l-1.33,2.22,1.33,4-2.22,1.78c-3.56,5.34-3.56,4-3.56,8l-.89.44v-1.78h-.89l-1.78,2.22c-5.78,7.12-8,3.56-11.12,8.45l-.45-1.33-2.67,1.33c.44-.89.89-1.78,1.78-2.22l-1.33-1.33c-2.67,1.78-2.22,1.78-3.56,1.78l1.33-3.11c0-1.33-7.12,4-8.89,4.89,0,1.78-1.78,4.45-2.67,10.23l.44.44h2.22v.45h1.78v.89c1.33.44,1.78.89,4.45,0v-.89h-1.33v-.45c-4.89-.89-3.56-.44-6.23-1.33,6.23,0,8.45.45,10.23-.44.44,0,1.33,1.78,1.33,2.22l3.11-1.33s.45.44,0,.89l4-1.33v.89c.89-.44,2.22-.89,3.56-.89l.89.89.89-.44,10.23,3.11.44.89.89-.44c1.78,2.67,1.78,2.22,1.78,3.56,1.33,0,.89-.89,7.12,3.56-1.78-5.78-1.78-4.89-7.12-10.23l-3.56-.89c-.89-3.11,9.78,4.45,10.23,5.34-.89-1.33-1.78-2.22-2.22-3.56l4.89,4.89h.45l1.33,1.78.89.45c3.56,7.56,5.78,11.56,4.45,15.12-3.11,2.22-3.11,1.78-5.34,1.78v-.89l-2.22,1.33c1.33-3.11,2.22-4.89,2.22-6.23l-.89,1.33-1.33.89v-.89h.44c0-1.33.45-2.22,1.78-3.11l-.45-1.33-.89,1.33-.45-.45v-2.22l.89-.89-1.33-1.78-.44.44.44.89-.44.45-2.67-.89.89.89.45.44c1.33,2.67.89.44.89,4.45l-.89.89v-1.33h-.45l-1.33,1.78c.44,0,.89,0,1.33.44l-.89,2.67,1.33.44.89,1.78c-.89.45-1.78.89-2.67.45l-.44.89,2.22,2.22-1.33-1.33-.89.45-.45-.89h-.89v-.45l-.89.89,1.78,2.22h-.89c1.33,1.33.89,1.78,1.33,2.22l-5.34-1.33v-.89c-.89,0-.44.45-2.22-1.33l-1.33,1.78v-.89l-1.33.44-.89,1.33-.89-.89-1.33.44.45.89,2.67,1.78,1.33-1.78v.44l-.89,1.33,2.22,2.22c.89.89-2.67,0-4.89-1.78l-.44.45c-4-3.11-3.11-2.22-5.34-2.22l.89.89-2.22-.45-.44.89c-11.12-4.89-8.89.89-16.01.89l1.33-.89-12.9,4-.45,1.33.45,1.33-.89.89.89-.44c0,.44-.89,3.11-1.33,8.45l-.44.89-.89,3.56.89-.44-.44,1.78c11.12-1.78,19.57-2.67,24.9-3.11,10.67-.45,24.9-5.34,30.68-3.11,9.78,1.78,5.78-1.33,12.9-.89,2.67,2.67,2.67,1.78,8,3.56l-.89-.89c5.78.89,4-.89,7.56,2.67.44,1.33,1.33,2.67,2.22,4v-1.78c.44,1.78,1.33,3.11,2.22,4.45l.44-.44,4,8v-.89l1.33,4,.45-.44.89,2.67.44-.89.89,1.33c-.45,1.33-.89,1.33,0,4l.44-.45v-.89,1.78l.89.45q0,2.22.89,3.11l.45-.44c-1.78,1.78,6.23,11.56,4,11.12l.45-.44c-2.22,5.78-2.67,5.78-6.23,11.56l-.44-.45c-.89,0-2.22-.89-5.34,0l-.44.89-2.67,1.33-.44-1.33c-5.34,2.22-5.34,4-10.23,5.34,0-1.33.44-2.22.89-3.11l-.45-.45.45-.89.89-2.22-1.33.44v-.44h-1.33l-.89-.89c-.44,1.78-.44,3.56,0,4.89l-1.78,1.78-1.78.89-.44-.89c2.22-4,2.22-3.11,2.22-6.23h-3.11v-.89h-.89l.45-1.33-.89.44.44-.89-.89-1.33-5.34,4.45,1.33-1.33-1.33.44-.44-2.22c-1.78,0-5.34,1.33-8,1.33l3.11-2.67,1.33-1.78-3.11.44,3.11-1.78-1.33-1.33-1.33-.44v-.89l-2.67-.89-.89-.89-1.78-.89-.44-1.33c-5.34,0-6.23-.44-22.68.89-8.45.44-15.57,1.33-21.79,2.22-12.45,1.78-12.01,0-13.79,1.33-.45,0-8.89,1.33-9.34.89-1.78-.89,0,.45-8.45,1.33-9.34,0-1.33-.45-20.01,1.33-20.9,1.78-21.79,4.45-36.47,8-13.79,6.23-15.12,6.23-24.46,11.12-3.11,2.22-6.67,3.56-11.12,4-8.45.44-10.23,0-16.01-1.33l.44-.44c-7.56-1.78-6.67-1.33-8.89-3.56,0-2.22-2.22-4.89-4.45-8.45h.44l.44.89.89-.89c0,1.33.44.45,1.33,2.67,1.78.44,2.67.44,3.11.44-.44-.44,0-1.33.44-1.78l.45.89,4.89,3.56,4-1.33,1.33-1.78c-2.22.44-4.45.44-6.67.44.44.45,1.78,0,3.56-.44-1.33-1.33-2.67.44-12.01-7.56l-2.67-3.11.89-2.22c-1.33-.44-2.22-1.33-4-2.67l-.89-.89-1.33-.89-1.78-2.22.45-.89,1.33,1.33c0-7.12.44-5.34,4-12.9,1.33-1.33,0-2.22.89-4.89,5.34-6.67,4-5.34,8-11.12l4.45-4,2.22-2.22.89-.89c-.44,8.45-.44,13.79,0,15.12s.44,3.11.89,5.78c1.33-.44,2.67-.44,4-.44s7.56-1.33,17.79-4.45l-.89.44c12.01-1.33,18.68-2.22,20.01-2.67,3.11-1.33,3.56-.89,7.56-.89l-1.33-1.33,4-1.33-4.45-.89,7.12-2.67c-1.33-1.33.45-.44-7.56-.44l2.22-1.33v-.89c-5.34,1.33-4.89,1.33-7.12.44l-1.33.89q-1.78.89-8.45-.89c4.45.89,4.45,1.33,8,.44l.45-.89-4.89-.89c1.33,0,2.67-.45,4-.89v-.44c-2.22.89-7.56-.89-12.01-3.11h.89c-4-4-1.33-.44-10.23-7.12-3.56-5.34-1.78-5.34-1.33-10.23l3.11-2.22,1.78-2.22.44-.45,4-5.34.89-.44c1.78,6.23,4.45,12.01,4.45,11.56l2.22,1.78c.44.44,1.78.44,4,0,2.22-.45,8.45-2.67,18.68-7.12l-.89.89h-.89l-.45.89c2.22-.89,4-1.33,4.89-1.33l2.67-1.33c1.33-.89,6.23-3.11,14.67-6.23.89-4,.89-3.56,0-4.45l-.44,1.33-.45-1.78-.44-.45-.45-.44-2.67,1.78v-3.56l-4.45.89-.89-.89.89-.44-.44-.44.44-.89-.89-.89c-1.33-1.78-12.01,5.78-13.34,1.78,2.22.89,7.12-.45,7.56-.89l.44-1.33h-2.67l3.56-1.78c-.44-.44,0-1.78-4.89-.44-4,1.33-4,.89-5.34.44,2.67,0,5.34-.44,8-1.33v-.44c-4.89,0-4.45.89-11.56-.89l.89,1.33h-.44c-10.67-4.89-12.45-1.33-16.01-.89-3.56,0-4.89-1.78-8.45-3.56l4.89.45-3.11-2.22c.44-1.78,8,3.56,10.67,2.22l-3.11-1.78-.44.89-3.56-2.22-.44-1.33,1.33.89-.44-.45h.44l-2.67-2.67c5.34,1.33,8.89,4,14.67,2.67l.89-.44c-3.56.89-3.11.44-4.89.44l3.11-.44c-7.56-2.67-6.23-1.33-11.12-6.23,3.11,2.22,6.67,3.56,10.67,4.45-2.67-1.33-5.34-2.67-7.56-4.45,4,1.78,8.45,4,12.45,1.78-.44,0-2.22,0-6.23-.89,1.33.44,2.22.44,3.56,0h-.89l.45-.45-1.78-.89v.45l-.44-.45c-2.22-.89-4.45-2.22-5.78-4,.44-.44-.44,0,5.78,3.11,6.67,1.78,8,0,12.9-4l.44.45,3.11-2.22-.45,1.33h-.89v1.33l1.33-1.33v.89l14.67-8.89v.45c1.33,0-2.22,1.78,11.56-7.12h-2.67l-.89,1.33c-1.78,0-1.78.89-6.67.89v.89c-5.78-.44,1.78.89-16.9,3.11l-18.68,1.33c-11.12.44-9.34,0-9.78-.44l-.89,1.33c-1.78,0-1.78.89-7.56,1.33-5.78,0-5.34-.45-5.78-.89l9.78-3.11c-.89,0-1.78,0-2.67-.44l-1.33-2.22.89-.44-.45.89h3.11l.89-1.33q-1.33,0-3.11-.89c4-.89,4.45,0,7.12-2.67v-.44c-1.78,1.33-3.56,1.78-5.78,1.78v-.89c6.23-.89,6.23-.45,8-2.22-1.78,0-2.67.44-7.12,1.33l-1.33-.89-.89.89h-.44l.89-1.33,3.56-.89v-.44c-1.33,0-2.67.44-4,.44l-.89.89h-.89l-.89,1.33,3.11.44v.89l-4-1.33.89-.44v-1.33c-2.22,0-1.33.89-3.11,0-.44.45-.44.89-.89.45l2.67-2.67-.89-.89c0,.44.44,1.33-1.33,2.22h-2.22l.89-.89c-.89-.44-1.78-1.33-2.22-2.22l1.33-1.33h-.89c0-1.33,0-.44-.89-1.33l-2.67-.89.44-.89-4-1.78c0-1.33-.44-1.33-.89-3.11-.44-1.33-5.34-8.89-3.56-10.67l-1.33.45.89-1.78h-1.33l1.33-1.33,2.67.89v1.33c.89,0,1.78.44,2.67.44l1.78-1.33c-.44-.44-1.33-4.45,0-6.67.44-1.33,1.33-2.22,2.67-3.56,3.11-3.11,2.67-5.78,14.68-28.46l-3.11,1.78c-.44,0,.44.89-15.12,11.12l-2.22,2.22c-10.23,8.89-16.01,13.79-17.79,14.68-1.33.44-3.11,1.78-5.34,3.11l-.45.89c-.89.89-8,4.89-12.01,4.89l.89.45.45.89c3.11,1.78,1.78,1.33,5.34,1.33l-1.33,1.33c.44-.44,1.33-.44,1.78-.44s6.67-4,17.79-12.45v.44l-1.78,3.11c-14.23,13.79-16.01,12.45-18.23,12.01l-7.12-4-.89-1.78.89-.44.45-.45-3.56.89v-.44c-6.67-2.67-5.34-1.33-7.56-3.56l-.45.89-2.22-2.67c-4-2.22-7.56-4.89-11.12-8l-3.11-7.12h-.89l-2.67-3.56-.89.45c0-1.33.44-.89-.45-4.45l-8.45-4.89c-1.78-3.56-1.78-1.78-2.67-7.56l1.33-1.78.89,1.33,1.33-.89v4c3.56,2.22,2.67,1.33,4.89,3.56v-.89h.89c-2.67-2.67-1.78-7.12,0-10.67.44.44,1.33.89,2.22.44,3.56-4.45,1.78-3.56,4-6.67l-1.78.44,2.67-3.56-2.22-1.78,1.33-1.33c3.11-4,2.22-3.11,3.11-5.78-5.34,3.56-4.89,3.11-8.89,4.89,16.9-15.12,11.56-10.23,14.67-11.56-.44-.44-.44-1.33,0-2.22,7.12-6.23,7.12-4.45,9.34-4.45.89,9.78,1.33,6.23.45,16.01,3.56,3.11,4,5.34,7.56,5.78,2.22,0,5.34-1.78,10.23-4.89,9.34-7.12,8.45-5.78,11.56-7.56v-.44l1.33-1.33.45.44,3.56-1.78-.44.44c9.34-7.12,11.12-5.34,14.67-8.45,3.56-3.11,4.89-3.11,8-4.89l.44-.45c1.33-1.33,2.22-1.78,4-2.67l-.44.44c1.78,0,0-.89,11.56-6.23,7.12-3.11,8.45-6.23,10.67-6.23,4.89-1.33,10.23-6.23,13.34-6.67l.44-.44c2.67-2.67,9.78-4,9.78-4,1.33-1.33.44-.44,3.11-1.33l1.33-1.78h.89l-.89.89,4-1.33,1.78-2.22,10.67-3.56-2.22,1.78,4-1.33v-.89c-6.67-1.33-11.12.45-12.01,1.78l-.89-1.78-2.22.89-2.67-1.33c-3.11,2.22-2.67,1.33-7.56,2.67l-2.67,2.67.44-1.78c-1.78,0-2.22,0-3.56.44-2.22,3.11.89-7.12-33.35,21.79l-.89-.45-.89.45,1.33-2.67-2.67.45,2.67-4,10.67-8c5.34-7.56,10.23-18.23,8-18.23l-.45.89c-2.22,1.33-10.67,4.45-16.45,4.45-9.78,0-15.12-2.67-16.01-3.56,0-.45,0-3.11,1.33-4.45l3.56-2.67-.44-.89.89-.44c2.22-3.56,3.56-3.11,8.45-17.34,5.34-14.23,2.67-19.12,4-20.9,2.67-4,2.22-9.78,6.67-14.23l4-1.78c2.22-1.78,14.67-1.78,19.57-4,10.23-4.89,12.01-.45,15.12-2.67,1.78,0,2.22.45,5.78.45ZM865.92,241.39h-1.33q0,3.56.89,4.45l.89-4.89-.44.44ZM905.5,419.71l1.78-.89.89,5.78-1.33-.89v-1.78l-.44.44-1.33.44c-.45-1.78,0-3.56,1.33-4.89l-.89,1.78ZM916.61,281.41l-8,6.23.89-.89,1.78-1.78v-.89l6.67-4.45-1.33,1.78ZM934.4,289.86l.45,1.33v-.44l.89-.45-.45,1.33-1.78.44,2.22.44c0-.89.44-.44.44-3.11-.44.44-1.33.44-1.78.44ZM945.08,384.14l.89-.89c-.89,1.78,0,.44.89,3.56l2.22,1.33v-.44l1.33-.45c0,.89.44,1.78.89,2.22v.89l1.78,2.67.44.45-.44.89-.89-1.78-.89-.45-2.67-3.11-2.67-2.22-1.78-3.56,1.33-.89-.45,1.78ZM965.98,313.87c-3.11,1.33-6.67,2.67-10.23,3.11l-.89.89.44.44s8-3.11,11.12-4l-.44-.45ZM961.53,346.78c1.33.89,2.22.89,2.67.89.89,0,.44-.45,4-.45-3.11,0-1.78,0-7.12-1.78l.44,1.33ZM961.97,342.34l.89,2.22.45-.89c1.33,1.33,4,1.33,6.67,1.33-1.33-.45-3.56-.89-7.56-2.67h-.44ZM1035.35,195.14c-1.78.89-2.67.89-3.56,1.78,5.34-1.78-1.33.44,12.01-2.67.89.44-5.34,1.78-9.34,4.89-4,2.67-12.01,5.34-16.01,7.56l-.44-.89c-2.22,1.78-4.89,3.11-7.12,4.45l.89-.44-.45.89h.89l.44-1.33c3.56-.89,11.12-5.34,12.01-4.89,1.78.44,6.23-2.22,7.12-2.67l.89-.89,4.89-1.33v.44c-8.45,3.56-12.9,5.34-12.9,5.34,0,0-4.45,2.22-13.79,7.12l-.45.44-.89.89s-6.23,3.56-19.12,10.67c0,3.56-1.78,5.78-.89,7.56l.89-.44c-.89,2.22-1.33,4.45-1.78,6.67l-2.22,1.33h1.78c-1.33,2.22-2.22,4.89-2.67,7.12,2.22-3.11,1.78-1.78,3.56-7.56-.44,4,0,5.34-3.11,9.34-3.11,5.34-.89,8-4.45,11.56l8.45-6.67c7.56-5.78,7.12-4.45,7.12-4.45l1.33-1.78,7.12-4.45.89-.89c2.67-1.78,2.22-1.78,4-2.67l2.22-2.67c1.33-.44,2.22-.89,3.11-1.78l.44-.89,1.33-.45,2.22-2.22,3.56-2.67h-1.78l4.89-3.11c.44-1.33,1.33-2.22,3.56-4l1.78-.89v.89c1.78-.89,1.33-.44,6.67-4.89l-.89-.44.45-.44-.45-.45c-.89.89,9.78-5.78,11.12-6.67,5.34-12.01,4-10.67,4-11.12l-1.33,1.78-1.78-1.33c0-.44-1.33-3.11-2.67-4.89l-.44.89c-1.78,0-1.33.45-4-1.33,1.78,0-4-.44-7.12,2.67ZM988.66,201.81v.44c1.78,0,1.33,0,4.89-2.67l-.44.44,1.78-.44.45-1.33-6.67,3.56ZM1023.34,184.47c-1.33.45-1.33,0-3.11,1.33-3.56,3.56-3.56.45-20.01,10.23l-.89,1.33c11.12-5.34,12.9-6.67,13.34-6.67l-.89,1.33-1.78,1.33c-.44.44-4.45,2.67-12.9,6.67l1.33-.44-4.89,3.56,2.22-.89c-1.78,2.22-4,3.56-6.23,4.89l.89,3.56c2.22-.89,4.89-1.78,7.56-2.22l-.44-.89c1.78,0,1.33-.89,4-.89v.89c.89-.89,1.33-.89,11.12-5.34,3.56-2.22,8.45-2.67,15.12-6.23,11.12-5.78,9.34-3.56,12.45-5.78l-.45-.89-3.11.89,1.33-1.33q-2.22,0-7.56,2.67v-.44l6.23-2.22-1.33-1.33c-2.67,1.33-2.22,0-5.34,1.33l-.44-1.78-4.89,3.56-.44-.89,4.89-3.11-.89-.44c-1.33,1.33-3.56,1.33-11.12,5.78l.44-.89h.45l-.89-.89,2.67-1.78-.44-.45,1.78-1.33-1.78.45,4-2.67ZM992.66,220.04l.44-.44-2.22.89-.44,1.33,1.33-.45.44-1.33,3.56-1.33-3.11,1.33ZM1073.59,409.49l1.78-.89c-12.9,3.11-12.9,2.67-14.23,4-.44.44-2.22.44-4.45,1.78-4.89,3.11-4.45,4-11.56,5.34l-.45-.89c-4,3.11-10.23-1.33-14.67,3.56,3.11,0,2.22,0,8.45-.89l-4,1.33c1.78-.44,4.45-.89,4.89-.89,2.67-1.33,8.89-.89,12.45-2.22l-1.33.89,13.34-1.78-3.11,2.22-1.78-.45-.44.45c-7.12,2.67-11.56,3.56-13.79,3.56v-.89l.89-1.78-6.67,2.22c1.33.45,2.22,0,3.56-.44l-.45.44h.89l.89-.89v.89l-1.33.89c-.89-.89-.89-.44-3.56.44h1.78l-3.11.89.89-1.33-1.78,1.33.44-.89h-1.78l1.33-.89-.89-.45,1.33-.89c-.44,0-1.33.44-3.56.44-.44-.44-3.56-.44-13.34,2.22l.44.89c-13.34,2.67-12.01,3.11-16.01,3.11-.45-.44-13.79,2.67-13.34,4,5.34,0,19.57-2.22,18.68-2.22-12.45,1.78-9.78,1.78-10.23,2.22,5.78-1.33,13.79-1.78,21.35-2.67,6.23-.89,20.9-1.78,21.35-1.78-5.78,1.33-9.78,1.78-11.56,1.78-1.33-.44-3.11,0-5.34.45l-23.12,3.56v.44c9.78-1.78,16.01-2.67,18.68-2.22,3.11,0,6.67-.44,10.67-1.78,4-1.33,27.57-3.56,70.71-7.12l-9.34.44,1.33-.89c-4.45,0-8.89.45-13.34,1.33l-.89-.89c4.89,0,7.56-1.33,8-1.33-19.57.89-12.9,2.22-16.01,1.33,4.89-1.33,6.67-1.78,10.23-1.33,6.67-.89,4-2.67,11.56-2.67-1.33-.44-1.78-1.33-5.34,0-5.78.89-4,0-8.45.89l2.67-.89.89.45.45-.89c-5.34.89-8.89.89-10.23.89,1.78.89-12.45,1.78-10.23,1.78l.44-1.33-.44-.44-3.56,1.78c1.78-1.78,3.11-1.78,5.78-3.11,1.33-1.33,4.89-.45,6.23-1.78,1.78-1.78,3.11.44,17.34-3.11l-.44-1.33h-.45c0-.44-2.22,0-6.23,1.33-4,1.33-6.23,1.78-6.67,1.78l-.45-.44c1.33-.45,0-.89,7.12-2.67,7.56-1.78,9.78-2.22,13.34-2.67l-1.78-.89,2.22-.89v-.45c-6.67,2.22-4.89-.44-9.78,2.22l-.89-1.33h-3.11l3.56-.89-.89-.89-2.67.89.89-.44-2.22-.44-7.56,1.78ZM996.22,403.26s-1.33.44-3.11.89l.44-.44-1.78,1.33h3.56l.89-1.78ZM1021.12,417.05c-.45,0-6.67.89-8,2.22-1.33.45-2.67.45-6.23,1.78l.44-.45-6.23,1.78h1.33c-7.12,2.67-7.56,2.67-8,2.67,1.33,0,1.33.44,6.67-.89,8.89-1.78,6.67-.44,9.34-1.78l-.44-.44.44-.89.45.89h1.78l-.44.44c1.78-.89,1.33,0,16.01-3.56,0,0-.89-.45-2.67-1.33-5.34,2.67-4.89,2.22-12.9,4l1.33-.89-.89-.44,2.22-.89-1.33.89,3.11-.44-.89-.45,3.11-.89-2.22.89h3.11v-.89l1.78-.89-.89-.45ZM1007.78,211.15c-.44.44-3.56,2.22-4.89,2.67,1.33,0,2.67,0,4-.44l.89-2.22ZM1027.79,197.81v.45c-12.9,5.78-10.67,4-11.12,4l-.45.89-.89.89-.45-.45.45-.44h-.89l-.44.89-4,2.67,19.57-8.45-1.33-.45h-.45ZM1126.96,250.28v-1.78h-2.22,1.33l-4,2.22-.89.89-.44-.89c-2.22,2.22-5.78,1.78-10.67,5.34l-.89,1.33-2.22.44h.89v1.33c-2.22,1.33-10.67,5.34-12.45,5.78-1.33,0-1.33.89-2.67,1.33l-.44.45c-1.33.44-5.34,1.78-7.56,1.78-3.11,0-3.11.89-9.78,0l1.78-.89h-4l-.44-.89-1.33.89.89-.44c-1.33-.89-1.33-1.33-4.45-1.33l-3.11-3.56-1.33.44c0,.45,0,1.33-.45,2.22-.44,1.78-.89,0-6.23,15.56h.89l.44-2.22,1.33-1.33-.89.89-.45,3.11.89.89-1.78,1.78-3.11,1.78c-.89,2.67-1.33,2.22-1.33,4.45-4,0-15.12,8.45-16.9,8l-2.22,3.11-1.78.44-.44-1.33c-2.22,1.33-2.22,0-5.78,2.22l-1.78-1.33-2.22,1.78h-3.56c-.89,4-.89.89-.89,7.12h-2.67c-1.33,1.33-2.22,3.11-2.67,4.89h3.11c.89-.44,8.45-4.89,22.24-13.79l2.22-2.67c2.67,0,4.45-.89,4.89-1.33v-1.78l.89.44-.44.89,1.78-.89.89.89c2.22-1.78,3.11-2.67,7.12-2.22,7.56-1.33,5.78-2.22,12.9-3.56v-.89c.44,0,12.01-.89,13.34,1.78l5.34-1.33-4.89-3.56-2.67-3.56,3.56,3.11-.89-1.33.44-.89-4.89-5.34,2.22,1.33-.44-.89,2.67.89-4.89-4.45,8.45,3.11-7.12-4.45c2.22,1.33,16.01,4.89,21.79,6.67,6.67,1.33,9.78,2.22,23.57.44l-.44-.89s0-.89-3.56.45c-4.89,1.33-5.34-1.33-10.23.44v-.44l1.33-.89h-.44l-3.11.44-.44-.89c-1.78.89-1.33.44-9.78-1.33.45-.44,2.22-.44,5.34,0,6.67,0,7.56,1.78,9.78,1.33,4-1.78,5.34,0,12.9-.89l.89-1.33h-.45l-.44-1.33c.44-1.33,2.22-3.56,2.67-4.89l-.44-1.33h.89l.89,1.33v-2.22l1.78.45v3.56h.89c.89-2.67.89-1.78,0-5.78l-.45.44.45-4,1.33,1.33c-2.67-18.23.44-10.23-.89-17.34l-4,2.67ZM1056.7,200.03l-1.78,4.45-.89.44-1.78,2.22.44-1.78c-1.78,2.22-2.22,1.78-8.89,10.67l-9.78,14.23c-6.67,9.34-4.89,9.34-6.23,11.56l1.33-.89c-10.23,22.24-8.45,16.9-9.78,21.35.89,0,.89-.89,2.22.44-2.22,4.45-2.22,7.56-2.22,8.45l-.44.45v.44c-3.56,8.45-4.45,6.23-4.45,9.78l1.78-1.33c.45-.44,5.34-4,13.79-11.12h.44l-4.45,5.78.44.44c-4.45,8.89-4,6.67-6.23,12.01l.89.45,3.11-2.67v1.33l-.44.44v1.33c2.22-.89,4-2.22,5.34-4l1.78-2.22,1.33-.45c1.78-3.56,1.78-2.22,1.78-3.56l-1.78.45-.45-.45,2.22-1.78,1.33-4h.44l.44.89.89-1.33v-.89c4-5.34.44.89,7.12-14.67-.44-.44-.89,1.78,1.33-9.34,3.11-11.12,7.12-22.68,12.01-47.14h-.89ZM1024.68,271.18h.45l-2.67,3.56-.89.45,2.67-3.56h-.89l.89-.89.44.44ZM1066.48,424.61h3.11c-3.11.44-4,1.33-8,1.33-1.78-.45-6.67,0-14.23,1.33-15.57,2.22-17.79,2.22-23.12,2.22l19.12-2.22v-1.33h3.11c-1.33.89-2.22.89-2.67.89,15.56-.89,12.01-2.67,15.12-1.78,2.22.89,3.56,0,8-1.78l-.44,1.33ZM1033.13,418.82c-3.11.89-5.78,1.78-8.45,2.22.45,0,4.45,0,8.89-1.33l-.44-.89ZM1028.68,425.49l.44.45-.89.44-.45-.89-1.78.89-.89-.44,6.23-1.33-2.67.89ZM1051.8,207.59c.45.44.89,4,.89,4l-.89-.44-1.33,2.67,1.33-6.23ZM1052.25,428.16c4,0,5.34-.89,9.78-1.78-2.22,1.33-9.34,2.22-9.78,1.78ZM1057.59,268.07l-1.33,2.67q.89,0-1.78,8.89l.89-.89,2.67-10.67h-.45ZM1079.82,425.49l-11.12,1.33-.45-.45-4.45.89c3.11-1.33,12.9-1.78,16.01-2.67v.89ZM1066.92,373.91l-.44,1.33-.45-.89-.89.45-.45,3.11,11.56-4h-2.22l5.34-2.22.44-.44h-4l.44-.45-9.34,3.11ZM1067.81,361.01l-1.33,1.78v-.45l-1.33.45v8.45l7.12-2.22c-.89,0-1.33,0-1.78-.45l-4.45,2.22c0-1.78-.44-1.33-.44-2.22l.44-.44v-1.78l.45,1.33c3.11.89,2.67.89,7.56-.89l.44-.89.45.45c3.11-1.33,3.56-1.33,9.34,0v-.89c-4,0-4.89-.89-5.34-1.33l-.89.44-1.33-.89-1.33.45.45-.89c-2.67,0-3.56-.44-4.89.89v-.45l1.33-.89-.45-.89-.89.89v-.89h-1.33l-.89,1.33h-.89l.89-1.33h-.89l.89-.89h-.89ZM1070.48,251.62l1.33,1.33.89-.89,3.11-.44c-1.33,0-2.22,0-3.11-.44l-.89.89-.89-1.33-.45.89ZM1077.15,235.16l.44.44-1.33.89-1.33,1.78,3.11-.89.89-4-1.78,1.78ZM1134.07,215.6l-.45,1.33-.44-.89-.89,4v-2.67l-1.33.44-1.33,3.56-.44-2.22q-1.78.45-8.89,4.45c-10.67,6.23-22.68,10.23-27.57,12.01l2.22-1.33c-6.67,3.56-3.11.89-12.45,5.34-1.33,2.22-2.22,4.45-3.11,6.67,3.56,0,10.23-1.78,17.34-5.78l.45.45-.45.89h-1.78l-.89.89h-.89l-.89,1.78-1.33,1.33c.45.44.45.89,3.56-.89,3.56-1.78,7.12-.89,28.91-9.34l.89-1.78.45.44-.89.89h1.78l-.45-.89c3.11-.89,2.22.45,3.56-.89v.89l2.67-.89v-1.78l-1.78-.44.44.44h-.89l-.45-1.33c.89,0,1.78.44,2.67.89v-.89l.89-.44.89-4.45.89-.45.44-9.34h-.44ZM1081.15,291.64c1.78.89,6.67,1.78,7.56,1.78l-3.11-2.22-4.45.45ZM1091.83,228.49c-2.22.45-4.89,1.33-7.12,2.67l-.44,2.22,2.22.89,2.22-2.22,3.11-1.78-.89-.44c.89-.45,1.78-.45,2.22-.89l-1.33-.45ZM1084.71,344.11c0,1.33.45,1.78.89,1.78l2.22-.44.89-.89-2.22-.44.44-.44-2.22.44ZM1090.94,342.78l6.67,1.78c-1.33-1.33,0,0-6.23-2.22l-.45.45ZM1112.73,267.63l-20.46,9.78-.89-.89c4-1.33,8.45-3.11,12.45-5.34l.45-.89,3.56-2.22v.89c2.22,0,1.33,0,4.89-1.78v.44ZM1131.41,161.34c-3.56,3.56-6.23,5.34-8,5.78l-3.56,4.45,1.78-3.56-5.34,4.89.44.44-.89,1.33-6.23,7.12.89-.89-2.67,4-1.78,1.33-2.67,3.56.89-.45-1.33,2.22.45.45c6.23-6.67,9.78-10.67,10.23-12.01l2.67-4.45-1.33,3.11,1.33-.89-10.23,12.01-2.67,5.34.89-1.33.89.45-1.33,1.33h1.33l-.89.89c0,.89.44.89.44,3.56-.89,0-4.89.89-6.67,2.67q1.33-.89,2.22,0-1.33,1.33-1.33,2.22c13.34-4,20.9-6.67,22.68-7.56l3.56-2.22c2.22-.89,2.67-.44,5.78.45v-.45h-.89v-.44h1.78q0-.89.89-2.67h-.45c.45-1.78.89,0,2.22-12.01l-1.78,2.67.44-1.78.89-.89-.89-.45c0-1.33.89-3.11,1.78-9.34,1.33-5.34,0-4.45,0-5.78l-1.33,1.78.45.44-1.33,1.33c-.45-.44.89-6.67.89-6.67h-.89l-1.33,4-.44.45c-.44-1.78,0-3.56,1.33-5.34l-.89.89ZM1098.5,175.13l.44-.44c1.78-3.11,3.56-6.23,4.89-9.34-4,5.78-3.56,3.11-5.34,9.78ZM1127.85,136.88l-3.56,4.89,2.22-4.45-2.22,1.78-4,5.78.89.89-.44.44-4,4-.44.45,2.22-4.45-2.67,2.22,2.67-5.78h-.45l-5.78,8h.45c-.45,1.33-.89,4-1.33,4.45l-1.33.45c-2.22,4.89-1.33,4.45-3.56,6.67h-.45l.89-2.22-.89.44c-.89,1.78-.89,2.22,0,3.11l-4.45,8,5.34-5.34-.89,1.33,2.22-1.78c-.89,2.22-1.33,1.33-1.33,2.67l-2.22,1.78-1.33,2.22-2.22,1.33-.89,2.22.89-.44,4.89-4.45-1.78,3.11,4.45-3.56-.89,1.33,2.67-2.22-.45-.45,4.45-5.78-2.67,4.89,5.34-4.89,12.01-15.12h-.89c-8,7.12-12.01,10.67-12.45,10.67h-.89l3.11-3.11,12.01-9.34-1.33,1.33,2.22-1.33c.89-4.45.89-3.11,0-6.23,0,1.33.44,1.33-2.22,4l1.33-.45-.89,1.33-.89-.44,1.33-5.34c-.89.45-1.78.45-2.67.45l1.33-.45.89-2.67h-1.33ZM1115.4,165.34l-10.67,11.56-1.33.44-2.67,4.89,4.89-4.89-.45,1.33,1.78-1.78,8.89-11.12-.44-.45ZM1131.41,155.56c-.44.44,0,0-4.89,4l-5.34,7.12,1.78-2.22-3.56,2.22-4,5.34,6.23-4.89,9.78-11.56ZM1124.74,247.61c-3.11,2.22-2.67.89-6.23,3.11,2.22-.44,4-.89,5.78-2.22l.45-.89ZM1123.4,264.96c-.45,1.33-.45,2.22-.45,3.56h.89c-.44,1.33,0,2.67.89,4l-2.22,1.33.44-.89-2.22-1.33,1.78-2.67-.89-1.78.89-.44.89-1.78ZM1128.29,113.76l.44-.45-2.22.45-.89,1.78c1.78.89,1.33.45,6.23-2.67l-3.56.89ZM1129.63,390.36c-1.33.89-2.67,1.33-4,1.78,4,0,3.11.89,4.45-.44l2.67.89-1.33-.45,1.33-.44-3.11-1.33ZM1132.3,156.01l-3.11,2.67h.89l-4,4.45,4.89-4,.89-1.33h-.89l1.33-1.33v-.45ZM1130.07,153.78c-4,4-2.67,3.56-3.56,4.45l2.22-1.33c.89-.44,1.33-1.33,1.78-2.67h.44l-.44,1.33,1.78-.89c0-3.11.45-2.22.45-3.11l-2.67,2.22ZM1133.63,261.84v2.67l-.44-2.22c-1.78-.45,1.33,7.12,0,8.45,1.33-1.33.89-2.22.89-8.89h-.45ZM1133.63,246.28l-.44,1.78.89.89c.44-.45-2.22,5.34.44,5.34l-.89.44v2.22c.89,0,1.78,0,2.67-.44-.89-7.56-.45-5.34-.45-10.23-1.33,0-.44.89-2.22,0ZM1134.07,241.83c0,1.33,0,2.67-.45,4,.45-.44.89,0,2.22,0-.44-.44-.44-1.33,0-1.78l-.44-.45.89-.44c-.45-.45-.89-1.33-.89-2.22l-1.33.89ZM1135.41,257.4l-.89,1.33h-.44c-.45.89-.45,1.78,0,2.67,0-.44.44-1.33.89-1.78,0,.44.89-2.22-.45,10.67l2.22-.89.44,3.11c1.78-4.89.89,4.45-.89-15.12h-.89ZM1141.63,331.66c-4.45,2.67-4,3.11-5.78,3.11l4.89-3.11.45-.89.44.89ZM1141.63,218.26c-.89,5.34,0,6.23-.89,7.56.45.44.45.89.45,1.33.44.45.44,2.67,0,7.12,0,4.45,0,7.12.44,7.56,1.33,4.45.45,2.67.89,12.01h.89c-1.33-11.56-1.78-23.12-1.78-35.13v-.44ZM1142.97,254.73c0,4-.44,3.11.45,5.34l.44-.44v-5.34l-.89.44ZM1144.75,218.26c0,.44-.45,1.33-.45,1.78.45.45-.89-.89-.44,12.9h.44l-.44.44c.44,2.22.44,4.89,0,7.12h.44c2.67-1.78.89-3.56,1.78-10.67l.89,2.67-.89-11.12v.89l-.89-4h-.44ZM1148.75,225.38c0,.44,0,3.56.45,9.34.44,5.78.89,8.45.89,8.89,2.22-3.56-.89-6.67,0-11.12,3.56-4.45-.89-10.23-.44-9.78l-.89,2.67ZM1151.86,199.59c-.45,1.33-1.33,1.78-1.78,5.34,0,4.45.45,2.67.45,5.78l.89-3.56.89.89.89-1.33c0,3.11-.89,3.56,0,6.23.89-3.56,0-2.67.89-6.67l-.89-.45-.45-.89,1.33-.89-.45-4h-.89l-.44-.44h-.44ZM1151.86,216.49c1.33.89-2.22,6.23-.45,12.01,1.33,1.33,1.78,4,1.33,8-.44,7.12,0,6.23.45,6.67-.45-4.89-.45-9.78,0-14.68,0,1.33.89,1.78.89,4.89l.89.45-1.33-10.67-.44-.44-.45-6.67-.89.44ZM1152.75,243.17l.45,9.78h.89l-.89-9.78h-.45ZM1154.09,261.4l1.78,9.78c-.89-5.78-1.78-12.01-2.22-17.79,0,.45-.89-.44.45,8ZM1159.87,197.81l-.89,5.78.44.45v.44l.89.44c.89-2.67.89-2.22,0-7.12h-.45ZM1161.2,221.38c-1.33,4.89-2.22,6.23-2.22,11.12h.89c0,12.45.45,10.23.45,12.01,1.33-14.67,0-8.89,1.78-15.12.45.89.45,1.33.45,1.78.44.44.44.89,0,2.22-.45.89.44,8.89,1.78,23.57v-.89c.45-.45.45-1.33,0-3.11-.44-2.22-.89-12.45-1.33-31.13-1.33,0-.89,6.23-.44,7.12l-.89-.45-.44-7.12ZM1160.76,213.82l-1.33,8,1.33-2.67v2.22c1.33-2.22.45-1.33.45-7.56h-.45ZM1162.09,248.95c0,3.11-.89,2.67-.89,4.45l-.45-.89-.44,2.67.89.89c0,.89-.45,1.33.44,3.56.89-3.11.89-2.22,0-4l.44.45c1.33,10.23,0,7.12,0,12.45l.89.44.45,2.67.44-.89.44,2.22c.45-1.33,1.33.44,0-7.12-.44-4-1.33-10.23-1.78-18.68-.45-8.45-.45-12.9-.45-13.34s0-.45-.44-.89c-1.78,13.79.89,12.9.44,16.01ZM1162.09,220.93l1.33-.89-.89-1.33c0-3.11,1.33-2.22,0-4.45-1.33,1.33-.45.45-.45,6.67ZM1164.31,191.58c-.44,2.22-1.33,4-1.78,5.78,0,1.33.44-.44-.45,6.23h.45c1.33-1.33.89,1.78,2.22-12.01h-.45ZM1166.98,193.36c-1.78,2.67-2.67,8-.89,8.45l.44-1.33c0,2.22.44.89-1.33,9.34l-.89.89c-.44,5.78-.44,7.12,0,10.23.45,2.22-1.33,3.11,0,21.35l.89-.44c-.44-1.78-.89-1.78-.44-3.11.44-.44.44-3.56.44-8.45s.89-16.9,2.67-36.02l-.89,2.67v-3.56ZM1164.31,256.95c1.33,12.9,1.33,11.56,1.33,13.34.45-1.78.89-.45-1.33-12.9v-.45ZM1165.2,243.61l-.44-.44v6.23c0-.44.44-1.33.89-1.78-.44-.44-.89-.89,0-4.45l-.44.44ZM1171.87,229.38v2.22l-.89-.44v-1.33l-.89,1.33.45.44-.89,1.78,1.78-.89c0,3.11.45,1.78,1.33,4,0-6.23-.44-6.23-.44-7.56l-.44.44ZM1172.32,213.37c0,1.78,1.33,2.22-.44,7.56,0,0-.45,6.23.44,7.12,0-3.56,1.33-3.11,1.33-7.12,0-5.78.44-6.67-.44-7.56h-.89ZM1173.21,206.26l-.89,6.67h1.33c1.33-4.45.44-6.23-.44-6.23v-.44ZM1175.43,219.6c0,5.78-.89,4.45-.89,6.23,0,.44.44,1.33.89,2.67l.44-3.56h.44v4.89h.45c0-10.23.44-7.56-.89-10.23h-.44ZM1175.43,209.82l.44.89-.89,2.67.89.89.89-3.11h.44c-.44,1.33-.44,2.22,0,3.56l.45-4.89c-.45-.45-.89-1.33-.89-2.22l-1.33,2.22ZM1177.66,228.49h1.78l-.44.45-1.78,4h.89c1.78-3.56.89-2.22,1.78-8.89-.89.89-.44.44-2.22,4.45ZM1178.1,235.61l.44,4.89c.89-1.33,1.33-2.22.89-3.56h-.89v-1.33h-.44ZM1180.32,252.51c-.45,1.33-1.33,2.67,0,5.34h.89l-.89-5.34ZM1182.1,192.03c0-4,1.33-8.45,2.22-10.23-.89,1.33.89,1.33-2.22,10.23ZM1183.44,208.93l.89-.44v.89l-.44.89.44.89-1.78,1.78v-1.33h.44c.89-2.22.44-1.33.44-2.67l-.89,2.22v-3.11l.89.89ZM1185.66,192.92v.89l.45.89-1.78,2.22h.89c0,.44-.89,2.22,0,3.11l-1.33,4v-2.67l-.89,1.78c0-8-.89-8.89.44-10.23v1.33l1.33-.45.89-1.33v.44ZM1185.66,180.02l1.33-.45-.44.89,1.33-.44c-1.78,4.45-.89,3.11-2.22,4.45.45-2.22,0-4,.45-5.34l-.45.89ZM1190.11,251.17l.44-.89.45,5.78.44-1.78.89,6.67c.44,1.33,3.11,11.12,7.12,28.46h.44l-4.89-20.9q.44,2.22,1.78,3.56c.44.45.89,2.22.89,5.34.45,5.34.89,4.89,1.33,5.34v.44q0,.45.44.89c.44.45,1.33,4.45,3.56,12.01h-.45l-.44-.89-3.56,2.22v-.89l-1.78-.45v.45l-.45-.89-1.33.89c0-.45,0-1.33.44-2.22h-.89c0-1.33,0-1.78,1.33-4,1.78-2.22-4.89-20.9-6.67-42.69l.89,3.56Z"/></g></g></svg>