<svg xmlns="http://www.w3.org/2000/svg" viewBox="0 0 509.42 84.92"><defs><style>.cls-1{fill:#2f2f2f;}</style></defs><g id="圖層_2" data-name="圖層 2"><g id="瞻望"><path class="cls-1" d="M474.66,55.18c-1.87.57-3.71,1.12-5.54,1.71a2.94,2.94,0,0,1-2.36-.14c-1.25-.65-1.31-1.35-.84-2.7.64-1.84,2-2.95,3.38-4.13s2.69-2.23,4-3.33c-.11-.62-.6-.38-.89-.53s-.82-.43-.8-.93c0-.69.63-.42,1-.49a4.2,4.2,0,0,0,1.77-1L477,41.5c0-.22-.21-.24-.38-.28-1.49-.34-1.61-.64-.83-2,.89-1.5,1.75-3,2.74-4.71A14.32,14.32,0,0,0,472.76,36c.55.76,1.09,1.42,1.52,2.14.64,1,.58,1.89-.06,2.35a1.88,1.88,0,0,1-2.7-.2,10.38,10.38,0,0,1-1.47-1.7c-.88-1.25-1.13-1.37-2.47-.64a20.92,20.92,0,0,0-3.19,1.56c-.29.24-.67.4-1,0a.8.8,0,0,1,0-1,12.64,12.64,0,0,1,2.65-2,4.64,4.64,0,0,1,1-.49c.83-.28,1.33-.68.86-1.64a2.55,2.55,0,0,1-.11-.74,1.17,1.17,0,0,1,.55-1.12c.44-.32.85-.1,1.2.17a4.54,4.54,0,0,1,.79.79.82.82,0,0,0,1.16.21c2.79-1.49,5.95-1.88,8.89-2.93,2-.7,2.05-.78,1.75-3a2.32,2.32,0,0,1,.13-1.4c1.59,0,2.23,1.32,3.06,2.31s.82,1.12,1.95.36a9.93,9.93,0,0,1,4.9-1.71,18.72,18.72,0,0,0,3.46-.82,5.19,5.19,0,0,1,4.5.47,4.82,4.82,0,0,0,1.72.71c3.95.78,6,3.49,6.88,7.1a18.71,18.71,0,0,1,.19,8.74,62.14,62.14,0,0,1-5.07,14.28,15.59,15.59,0,0,1-2.58,3.67,55.84,55.84,0,0,1-11.62,8.84c-1.7,1-3.49,2-5.23,3a8.3,8.3,0,0,1-7,.69c-1.12-.38-2.23-.83-3.33-1.26a1.46,1.46,0,0,1-1-1.41c0-.91.3-1.26,1.23-1.09,1.11.19,2.2.46,3.3.71a5.66,5.66,0,0,0,4.48-.89,104.51,104.51,0,0,0,14.45-11,7.87,7.87,0,0,0,2.08-3.08,41.28,41.28,0,0,1,2.36-5.3,12.86,12.86,0,0,0,1.48-5.75,4.74,4.74,0,0,1,.17-1.3,18.79,18.79,0,0,0,.33-7.43c-.07-.81-.08-1.62-.11-2.44a3.07,3.07,0,0,0-1.5-2.66c-1-.63-1.94-1.35-3-2a2.45,2.45,0,0,0-2.46-.2,34.77,34.77,0,0,1-5.39,1.51c-1.16.26-1.94,1.3-3.1,1.66a9.5,9.5,0,0,0-5.2,3.94,15.14,15.14,0,0,1-2.08,2.16,1,1,0,0,0-.24,1.36c.36.57.77.07,1.13,0,1.24-.4,2.07-.3,2.57.36.74,1,.93,3.08.3,3.87a14.37,14.37,0,0,1-1.45,1.47c-.43.4-.59.72-.07,1.23,1.34,1.29,2.72,2.41,4.77,2.14.59-.08,1.27-.21,1.46.71s-.43,1.11-.95,1.41A23.25,23.25,0,0,1,482,52.46c-2.15.59-2.13.52-2.49,2.74-.45,2.85-.89,5.69-1.5,8.5a32.36,32.36,0,0,1-1.54,4.54c-.15.4-.49.81-1,.65s-.41-.56-.4-1c.05-3.13-.39-6.23-.55-9.35C474.47,57.46,475.05,56.39,474.66,55.18Zm9.73-5.81c-1-.88-1.73-1.82-2.6-2.61-.29-.26-.51-.48-1-.24-.8.41-1.45,2.39-1,3.11.21.31.54.22.85.18C481.94,49.65,483.17,49.52,484.39,49.37Z"/><path class="cls-1" d="M128.32,47.4c-1.72.82-3.23,1.57-4.76,2.24-1.09.48-2.22.86-3.32,1.3a1.92,1.92,0,0,1-1.62-.08c-1.58-.75-1.75-1-1.52-2.74a23,23,0,0,1,5.39-11.91,31.39,31.39,0,0,0,4-5.05c.34-.63,1.51-.31,1.29-1.44-.14-.69.69-1.13.91-1.79s.85-1.22.91-2c0-.44.32-.71.76-.56a.7.7,0,0,1,.52.88,10.82,10.82,0,0,1-.75,1.91,60.37,60.37,0,0,1-6.68,9.73,22,22,0,0,0-3.55,6.74,4,4,0,0,0-.27,2.88c.54.26.86-.13,1.21-.33,2.63-1.45,5.23-2.95,7.87-4.38a2.9,2.9,0,0,0,1.55-2,19.94,19.94,0,0,1,1.59-4.2,1.57,1.57,0,0,1,1.64-1c.6,0,.92.24.68,1a29.86,29.86,0,0,0-.81,3.09c-.16.8.17,1,.93.69A25.76,25.76,0,0,1,138,38.71c.58-.17.51-.62.44-1.07-.65-4.12-.33-8.25-.21-12.38a2,2,0,0,1,.4-1.45,1.46,1.46,0,0,1,1.15,1.83c-.44,2.8.07,5.58.19,8.37a9.52,9.52,0,0,0,1,3.71,5.58,5.58,0,0,1,4.61-1.61c.69.09,1.42.15,1.6,1a2.1,2.1,0,0,1-.54,2.31A13.79,13.79,0,0,1,143.75,41c-.44.22-.91.37-1.36.55.79,3.78,4.3,13.27,5.73,15.47a37.91,37.91,0,0,0,7.14-7.12,20,20,0,0,1,2.42-2.62,3.66,3.66,0,0,1,3.43-1c0,.24,0,.48-.17.52a4.44,4.44,0,0,0-2.85,2.53,41.32,41.32,0,0,1-5.23,7.09c-.78.89-1.62,1.74-2.47,2.57a2,2,0,0,0-.51,2.53,10.94,10.94,0,0,1,.7,1.94c1.14,4,3.81,7,6.31,10.11a4.15,4.15,0,0,0,.66.54c.73-1.4,1.39-2.73,2.11-4,1.66-3,3.9-5.67,5.66-8.64a.91.91,0,0,1,1.27-.43,1.06,1.06,0,0,1,.69,1.2,6.37,6.37,0,0,1-.86,2.65,82.66,82.66,0,0,0-6.23,11.05c-1,2.06-2.79,2.45-4.56,1a14.55,14.55,0,0,1-2.35-2.42c-2.52-3.19-5.08-6.36-5.94-10.65A3.36,3.36,0,0,0,146,65.73c-.77,1.57-1.56,3.14-2.48,4.63a10.26,10.26,0,0,1-3.34,3.25A2,2,0,0,1,137,72.35c-.09-.57-.07-1.08.75-1.22,1.48-.25,2.26-1.34,3-2.58,1.23-2.11,2-4.47,3.39-6.48a8.18,8.18,0,0,1,.84-1.24,1.55,1.55,0,0,0,.22-2A66.73,66.73,0,0,1,141,47.13c-.37-1.26-.71-2.53-1-3.8-.18-.73-.49-.91-1.2-.55A54.29,54.29,0,0,1,133.46,45c-1.42.53-1.42.61-.79,2.19a1.17,1.17,0,0,1-.18,1.05c-1.55,3.06-1.27,6.27-.89,9.52a8.63,8.63,0,0,1-2.44,7.38A38.53,38.53,0,0,1,122.37,71a2.72,2.72,0,0,1-3.32,0,2.31,2.31,0,0,1-1.06-2,12.27,12.27,0,0,1,2.4-6.81,52.24,52.24,0,0,1,5.52-6.89,5.6,5.6,0,0,0,1.73-4A21,21,0,0,1,128.32,47.4Zm-6.86,20C122.85,66.16,124,65,125.35,64c2.29-1.72,2.51-3.94,1.85-6.52C124.21,60.37,121.85,64.39,121.46,67.4Z"/><path class="cls-1" d="M300.46,62.58a9.58,9.58,0,0,0,2.16-2.42q4.53-5.16,9.05-10.31A17.69,17.69,0,0,1,313.25,48a7.71,7.71,0,0,0,2.58-7.26,19.52,19.52,0,0,0-4.14,2.73,36.1,36.1,0,0,1-6.54,3.64,4.78,4.78,0,0,1-1.82.41,1.17,1.17,0,0,1-1.26-.91c-.21-.67.4-.79.85-1a25.43,25.43,0,0,0,6.36-3.94c2.13-1.65,4.27-3.28,6.55-4.72A1.94,1.94,0,0,0,317,35.6c.19-1.34.44-2.67.69-4.12-2.1.22-3.91,1-5.83,1.11s-3.65-.63-5.41-1.21a1.85,1.85,0,0,1-.69-.62c-.59-.71-.44-1.23.44-1.23,1.06,0,2.09-.3,3.18-.21a9.12,9.12,0,0,0,3.84-.7c1.47-.54,2.91-1.15,4.38-1.68a1.93,1.93,0,0,0,1.33-1.61c1-4.62,2-9.26,3.34-13.82,1.06-3.64,2.21-7.26,3.31-10.89.1-.33.29-.65.61-.62.47,0,.52.49.48.87-.12,1.24-.23,2.49-.43,3.72-.71,4.17-1.47,8.33-2.17,12.5-.32,1.91-.53,3.83-.8,5.74-.12.81.21,1.16,1,1.1a6.26,6.26,0,0,1,.75,0c.73,0,1.55-.2,1.9.76a2.36,2.36,0,0,1-.75,2.85c-.87.61-1.79,1.15-2.71,1.69a2,2,0,0,0-1.12,1.41c-.21,1.33-.38,2.67-.6,4.18,2.4-.48,4.7-.09,6.72-1.4.62-.4,2.76.51,3.13,1.15a1,1,0,0,1,0,.89,3.12,3.12,0,0,1-1.69,1.92,9.26,9.26,0,0,1-3.81.82,17.39,17.39,0,0,0-3.74.2c-1,.2-1.17.65-1.27,1.48a82,82,0,0,0-.29,14.27c.16,3.51-.11,7-.16,10.51a11.62,11.62,0,0,1-.88,3.63A2.37,2.37,0,0,1,317.48,70a16.48,16.48,0,0,1-2.81,0c-2.43-.17-4.86-.42-7.29-.61a13.9,13.9,0,0,1-5.19-1.53c-1.37-.68-1.52-.64-2.53.51-.74.85-1.43,1.74-2.22,2.54a13.59,13.59,0,0,1-5.64,3.54,3.17,3.17,0,0,1-3.57-1c-.37-.42-.54-.89.11-1.22s.88-1,1.64-.73a2.82,2.82,0,0,0,2.26-.65,22.09,22.09,0,0,0,5.51-5,1.1,1.1,0,0,0,.14-1.36,4.14,4.14,0,0,1-.05-2.94,5.19,5.19,0,0,1,.5-1c.3-.55.83-.41,1.31-.39.63,0,.58.54.65,1S300.15,62,300.46,62.58ZM303,64.52a25.4,25.4,0,0,1,3.73,1.28c2.43.76,5,.48,7.41.89,1.54.25,1.93-.12,2-1.67,0-1.18-.24-2.37-.2-3.55q.17-5.16-.12-10.31a4.78,4.78,0,0,0-.68-3.12C311.74,54.11,307,58.9,303,64.52Z"/><path class="cls-1" d="M360.76,55.77a.6.6,0,0,0-.62.34,55.32,55.32,0,0,1-5.32,6.31,23.43,23.43,0,0,1-8.39,6.19c-1.39.59-2.11.46-2.49-.3s0-1.3,1.22-2.16a59.06,59.06,0,0,0,6.44-5.47c1.61-1.48,3.13-3.06,4.74-4.54s2.84-3.64,4.25-5.47a2.37,2.37,0,0,0,.35-1.24c.21-1.43.22-2.87.3-4.3a123.06,123.06,0,0,0-.05-15c-1.67.41-5.77,4.24-8.07,7.56A4.65,4.65,0,0,0,356.45,39c.56,0,1.19,0,1.23.78s-.43,1.09-1.13,1.24a5.11,5.11,0,0,1-3.61-.66c-.86-.47-1.43-.43-1.92.54s-1.24,2-1.87,3a2.85,2.85,0,0,0-.58,1.74,2.28,2.28,0,0,1-.92,1.78,1.5,1.5,0,0,1-2,.2c-.72-.47-1.35-.92-1.07-1.94a5.89,5.89,0,0,1,.66-1.55c1.09-1.76,2.13-3.54,3.22-5.3a38.1,38.1,0,0,1,8.67-10.22l1.05-1a5.28,5.28,0,0,0-3,.17A22.21,22.21,0,0,1,348,29.58a6.22,6.22,0,0,1-3.94-.95c-.29-.17-.78-.24-.77-.72s.47-.48.8-.63a4.92,4.92,0,0,1,2.2-.37,7.84,7.84,0,0,0,3.27-.69,94.18,94.18,0,0,1,9.13-2.79c.37-.1.74-.17,1.09-.29,1.67-.57,1.6-.57,1.59-2.35a25.25,25.25,0,0,1,.94-6.11,12,12,0,0,0,.57-3c0-.69.35-1,1.06-1.21,0,3.76-.82,7.37-.67,11.15l5.51-1.43a10.69,10.69,0,0,1,3-.4,1.64,1.64,0,0,1,1.15,2.29,4.65,4.65,0,0,1-2.91,2.1c-2.46.47-4.28,2-6.16,3.41-.52.4-.37.89-.34,1.37.14,2.06.22,4.13.47,6.18a82.16,82.16,0,0,1,.25,9c0,.29-.12.63.23.86.51-.19.53-.8.91-1.1.19-.15.36-.39.63-.24s.53.51.37.78c-.48.82-.43,1.82-1,2.62A7.85,7.85,0,0,0,364.16,52c.08,4.45.61,8.86,1,13.28.52,5.57-4.06,9.17-7.7,9.86a4.09,4.09,0,0,1-3.55-.77,1.33,1.33,0,0,1-.48-1.66,1.06,1.06,0,0,1,1.58-.49,1.88,1.88,0,0,0,2.08-.39,12.54,12.54,0,0,0,4-4.43c.73-1.35.46-2.84.39-4.23-.1-2-.32-4-.41-6A2.28,2.28,0,0,0,360.76,55.77Z"/><path class="cls-1" d="M202.72,29.74a3.46,3.46,0,0,1,1.51-1.6c2-1,3.59-1,5,1.49.86,1.56.91,1.53,2.5.81.34-.15.71-.26,1.05-.39,2.2-.85,2.79-.87,4.68,1.25.16.19.29.41.22.32,1-.89,2-1.74,2.94-2.51a7.57,7.57,0,0,1,4.51-2,4.06,4.06,0,0,1,4,2.51,10.66,10.66,0,0,1,1,3.4,48.64,48.64,0,0,0,1.91,8,58.89,58.89,0,0,1,2.65,14.17,3.47,3.47,0,0,1-.58,2.27A34.05,34.05,0,0,1,228,64.25a11.73,11.73,0,0,1-8.36,3,22.37,22.37,0,0,0-7.89,1.37,4.18,4.18,0,0,1-2,.43c-.65-.1-1.27-.38-1.36-1.09-.08-.56.46-.8.91-1a40.68,40.68,0,0,1,8.71-3.4c.66-.17,1.32-.39,2-.52,3.63-.74,6-3.09,8.07-6a3.29,3.29,0,0,0,.58-1.92,46.16,46.16,0,0,0-.77-8.38,1.21,1.21,0,0,0-.05-.18c-.19-3.8-1.65-7.36-2-11.13-.08-.86-.07-1.74-.08-2.61,0-.24.12-.49.1-.73-.07-1.55-.84-2-2.23-1.13a10.08,10.08,0,0,0-2.29,1.94,7,7,0,0,1-1.72,1.44c-1.62.92-2.67.52-3.33-1.22-.85-2.29-1.4-2.47-3.5-1.16a10.19,10.19,0,0,0-2,1.89c-.34.36-.29.69-.12,1.16a15.1,15.1,0,0,1,.72,4.43,2.91,2.91,0,0,1-1.8,3.14c-2.16.74-4.38,1.08-6.46-.39a2.06,2.06,0,0,1-.94-2.71,7.94,7.94,0,0,1,2.28-3.38c1.07-1.05,2.17-2.07,3.25-3.11.81-.8.87-1.63.22-2.87a2.27,2.27,0,0,0-2.49-1.05ZM208,36.88c-.9.78-1.83,1.45-2.07,2.71C208.38,39.89,208.86,39.28,208,36.88Z"/><path class="cls-1" d="M36.41,39.41c1,.63,1,1.65,1.32,2.92,1.69-3.27,2.8-6.54,5.5-8.92a1.35,1.35,0,0,0-1.22.11,49.77,49.77,0,0,0-6.42,2.64c-.55.28-1.18.87-1.8,0-.5-.67-.44-1.38.37-2.13a13.47,13.47,0,0,1,2.08-1.59,61.54,61.54,0,0,0,6.3-4.72,4.78,4.78,0,0,1,.85-.73c2-1,2.68-2.7,3-4.7.2-1.22.38-2.44.57-3.73a4.27,4.27,0,0,0-2.84.87c-2.38,1.62-4.78,3.19-7.18,4.78a7.57,7.57,0,0,1-1.15.63c-.53.23-1.1.86-1.66.15s-1-1.35-.57-2.2a7.35,7.35,0,0,1,1.34-2,15.21,15.21,0,0,0,4.18-5.9,2.48,2.48,0,0,1,.37-.65c.3-.42.66-.78,1.25-.58a1.17,1.17,0,0,1,.83,1.14A7.66,7.66,0,0,1,41.16,17a7.86,7.86,0,0,0,2.37-1.29,4.43,4.43,0,0,1,3.07-.48,2.43,2.43,0,0,1,2.09,1.87,7.68,7.68,0,0,1,.3,3.14c-.36,2.32-.12,4.75-1.48,7.1a13.6,13.6,0,0,0,2.88-.76c1.51-.38,3-.44,4.24.72.88.8.91,1.6,0,2.35a9.12,9.12,0,0,1-2.81,1.48c-1.35.46-2.66,1.07-4,1.43-2.67.71-4.21,2.66-5.42,4.87a47.24,47.24,0,0,0-3.57,9.07,2.44,2.44,0,0,0-.07,1.11c.11.78.07,1.51-.86,1.83-.56.19-.59.77-.79,1.21-1.84,4.12-3.79,8.18-5.81,12.2A83.41,83.41,0,0,1,27,70.3c-2,3.18-3.23,6.76-4.86,10.13a13.39,13.39,0,0,1-2.18,3.49c-.4.43-.72,1-1.55.7S16.87,84,16.76,83a4.64,4.64,0,0,1,.07-1.85c.41-1.44.69-2.92,1-4.38.3-1.3.38-1.45,1.77-1.4.69,0,1-.13,1.27-.74a36.72,36.72,0,0,1,5.68-9.39,19.43,19.43,0,0,0,1.48-2.6c2.57-4.65,5-9.38,7.45-14.11a2.43,2.43,0,0,0-.13-2.13A8.6,8.6,0,0,1,36.41,39.41Z"/><path class="cls-1" d="M20,31.57c-4.34-.85-7.62,1.5-8.08,4.89-1.44-.24-1.65-.47-1.22-1.68,1-2.86,2.73-5.06,5.9-5.67,1.78-.34,3.57-.58,5.37-.8,1.27-.16,1.74.23,2.16,1.45a9.21,9.21,0,0,1,.31,4.07c-.32,3.18-.61,6.36-1,9.52a48.07,48.07,0,0,0,0,5.63,61,61,0,0,1-1,11.53,19.87,19.87,0,0,1-2.66,6.77c-.13.21-.24.5-.44.6-1.66.91-3.2,2.2-5.22,2.2a5,5,0,0,1-5.06-3.93c-.29-1.15-.39-2.34-.6-3.51-.16-.93.35-1.39,1.13-1.65s1.13.35,1.42.89a12.94,12.94,0,0,1,.51,1.4c.45,1.15,1,1.55,2.08,1.47a1.9,1.9,0,0,0,1.82-1.62,37.88,37.88,0,0,0,1.32-8.31c0-2.69.56-5.31.72-8a74.46,74.46,0,0,1,2.35-14.22C19.88,32.32,19.9,32,20,31.57Z"/><path class="cls-1" d="M266.13,28.76c-.35-1.59.91-2.26,1.82-3.1a1,1,0,0,1,1.23,0c.47.32.33.75.24,1.18a15.34,15.34,0,0,0-.85,3.6c0,1.66.24,1.88,1.85,1.56,2.81-.55,5.65-1,8.43-1.71a4,4,0,0,1,4.75,2.85,29.07,29.07,0,0,1,1.25,8.12,22.66,22.66,0,0,0,.58,5.39,34.3,34.3,0,0,1,.32,7.3c-.07,5-1.93,9.31-4.75,13.36-3.92,5.61-9.48,8.94-15.54,11.62A17.08,17.08,0,0,1,259.77,80a15.38,15.38,0,0,0-5.71,1.64,5.06,5.06,0,0,1-5.35,0,1.88,1.88,0,0,1-.94-1.32c-.18-1,.3-1.71,1.29-1.42a4.81,4.81,0,0,0,4.22-1,9.49,9.49,0,0,1,5.34-1.5A17.11,17.11,0,0,0,267.39,74C270,72.5,272.8,71.3,275,69.2a26.52,26.52,0,0,0,6.38-9.14c1.92-4.83,2.1-9.82,1.66-14.91a33.49,33.49,0,0,1,0-3.75,24.72,24.72,0,0,0-.93-6.85c-.46-1.87-1.44-2.41-3.31-1.87-2.47.71-5,.92-7.53,1.49a6.75,6.75,0,0,1-2.06,0A2.1,2.1,0,0,1,267,32.06a18.69,18.69,0,0,1,.1-3c.08-1.19-.53-.62-1-.33Z"/><path class="cls-1" d="M409.87,36.79a26,26,0,0,0,5.19-2.08c2.67-1.31,5.62-1.75,8.26-3,3.09-1.42,6.32-1.34,9.54-1.55a1.15,1.15,0,0,1,1.37,1c.2.92-.49,1-1.11,1.13-3.69.55-7,2.21-10.47,3.43a125,125,0,0,0-15,6.29,12,12,0,0,1-4.86,1.29c-1.38.06-2.12-.39-2.37-1.32a1.43,1.43,0,0,1,1.48-2,6.14,6.14,0,0,1,1.11.19c.65.13,1.11,0,1.27-.74.8-3.5,2.93-6.17,5.38-8.65.92-.93,1.77-1.94,2.71-2.86a20.52,20.52,0,0,0,5.09-9,6.41,6.41,0,0,0,.18-3.68c-.06-.23-.22-.48.05-.67a.72.72,0,0,1,.87.07,3.13,3.13,0,0,1,1.17,2.25c.42,2.58-.35,4.95-1.14,7.33A26.85,26.85,0,0,1,412.13,34C411.31,34.86,410.74,35.9,409.87,36.79Z"/><path class="cls-1" d="M76.72,47.8a14.05,14.05,0,0,0,6.34-6.57c.87-1.73,1.59-3.54,2.38-5.31.22-.49.28-1.14,1.15-.78.68.27,1.08.61.84,1.37-1.28,4.12-2.35,8.33-5.5,11.58a16.25,16.25,0,0,1-3.83,3,4.55,4.55,0,0,1-2,.58c-2.53.13-3.57-1-3.45-3.51a9.19,9.19,0,0,1,1.59-4.72c.41-.62.77-1.27,1.17-1.93-.55-.32-.88.07-1.23.26A28.14,28.14,0,0,1,69,43.82a3.09,3.09,0,0,1-1.67.16A1.66,1.66,0,0,1,66,42.65c-.07-.66.68-.79,1.23-.92.91-.21,1.57-.36,1.71-1.67.11-1,1.44-1.65,2.36-2.29a15.5,15.5,0,0,0,2.91-2.63,2.51,2.51,0,0,0,.31-3.1c-.62-1.22-1.76-2.14-2-3.59,1.08-.57,1.82.32,2.59.65a4.85,4.85,0,0,1,2.63,5.64,2.88,2.88,0,0,1-1.08,1.5,22.41,22.41,0,0,0-1.91,1.62,9.29,9.29,0,0,0,2.76-1.43c.85-.53,1.74-1,2.58-1.53,1.12-.7,2.3-.36,3.46-.25.51.05.67.43.69.94A2.82,2.82,0,0,1,83,37.85a30.78,30.78,0,0,0-5.86,8A2.16,2.16,0,0,0,76.72,47.8Z"/><path class="cls-1" d="M266.11,28.74c-3.87,3.26-5.68,7.82-7.74,12.22-.22.46,0,.85,0,1.28a12.22,12.22,0,0,1-1.51,7.23,3.81,3.81,0,0,1-4.69,2.1A1.29,1.29,0,0,1,251,50.15a3.78,3.78,0,0,1,.56-2.16,49.12,49.12,0,0,0,3.07-5.31c.34-.66.92-1.24.37-2a2.34,2.34,0,0,0-2.08-1.09,21.79,21.79,0,0,0-7,1.9,2,2,0,0,0-1,1.52,29,29,0,0,0-.66,5.57c-.1,1.57-.12,3.13-.17,4.7,0,.85-.25,1.7-1.12,2-2,.62-2.62.48-2.87-1.76a28.65,28.65,0,0,1,.79-8.93,85.28,85.28,0,0,1,4-13.46,34.81,34.81,0,0,0,1.56-3.4.85.85,0,0,1,1.21-.56c.57.23.39.72.28,1.14-.48,1.81-1,3.61-1.47,5.42-.42,1.62-.81,3.25-1.21,4.85a1.51,1.51,0,0,0,1.54,0,17.1,17.1,0,0,1,5.9-1,4.73,4.73,0,0,1,3.13.94c.78.66,1.1.54,1.52-.48.88-2.16,2.36-3.95,3.55-5.92.91-1.52,2.41-2.5,3.7-3.69.73-.67,1,.19,1.54.33Z"/><path class="cls-1" d="M479.32,13.82c.06,0,.12,0,.17,0,3.16-1.1,6.44-.71,9.68-.74a3.48,3.48,0,0,1,3.12,1.35,1.3,1.3,0,0,1-.66,2.18,17,17,0,0,1-5,.69,19.4,19.4,0,0,0-8.49,1.88A2.75,2.75,0,0,0,477,20.37a57.16,57.16,0,0,1-3.78,5.38,20.43,20.43,0,0,1-9,6.72c2.81-3.27,6.41-5.92,7.9-10.29a4.74,4.74,0,0,0-2.36.7,23,23,0,0,1-5.17,1.62,5.07,5.07,0,0,1-3.45-.59,2.11,2.11,0,0,1-1.05-1c-.42-.95-.05-1.55,1.08-1.54A9.36,9.36,0,0,0,466,20.22c2.26-1.32,4.78-2.12,6.93-3.64a2.19,2.19,0,0,1,.84-.41c1.74-.27,2.39-1.38,2.45-3a21.46,21.46,0,0,1,.34-2.23c.06-.43.14-.89-.23-1.23-.69-.64-.58-1.21.15-1.68a1.72,1.72,0,0,1,2.19.35,4.17,4.17,0,0,1,.61,2.69c0,.87-.06,1.74-.08,2.61C479.21,13.71,479.28,13.76,479.32,13.82Z"/><path class="cls-1" d="M86.2,75c2.66-.54,5.19-.89,7.72-1.15a2,2,0,0,0,1.82-1.34A4.92,4.92,0,0,1,98.6,70a1.82,1.82,0,0,1,2.06.44A3.39,3.39,0,0,1,101,73.2c-.46.59-1,1.13-1.4,1.76a5.21,5.21,0,0,1-5,2.41c-3.31-.06-6.62-.19-9.84.82A1.47,1.47,0,0,1,83.17,78c-.53-.59-.17-1.22.18-1.72,1.52-2.2,2.85-4.52,4.21-6.83a2.77,2.77,0,0,0,.53-1c-.24-.49-.73-.37-1.12-.45a7.31,7.31,0,0,1-4.68-3.75c-.86-1.41-.5-2.21,1.06-2.93A11.08,11.08,0,0,1,88,60c.85,0,1.09-.33,1.17-1.05a3,3,0,0,1,.31-1.45c.93-1.17.21-1.71-.65-2.4a17.52,17.52,0,0,1-2.55-2.47,1.25,1.25,0,0,1,.7-2.16.77.77,0,0,1,.86.17c1.25,1.62,3.1,2.2,4.89,2.88,1.44.55,2.35,2.45,1.43,3.7-1.62,2.22-1.92,4.73-2,7.29-.07,1.52-.28,2.85-1.78,3.63a1,1,0,0,0-.39.39C88.67,70.67,87.66,72.94,86.2,75ZM85.1,63.69c.9,1,1.63,1.69,2.86,1.33.74-.22.91-.67.8-1.4s-.63-.81-1.21-.74A8.55,8.55,0,0,0,85.1,63.69Z"/><path class="cls-1" d="M54.09,71.4a2.43,2.43,0,0,0-2.25.12C49,72.94,46,73.59,43,74.62a4.22,4.22,0,0,0-2.72,4.89c.12.44.44.48.77.67A2.72,2.72,0,0,1,42,83.77a1.94,1.94,0,0,1-3.14.59,4.76,4.76,0,0,1-1.89-5c.48-2.75,1.76-5.21,2.64-7.81a4.68,4.68,0,0,1,1.34-2.2.65.65,0,0,1,.84-.14c.25.16.19.44.13.67a18.88,18.88,0,0,0-.53,3.53c2.94-1.27,5.9-2,8.41-3.81a9,9,0,0,1,6.08-1.31c.9.06,1.39.73,1.63,1.6A8.41,8.41,0,0,1,57.58,74c-.13.61-.25,1.23-.36,1.85a.87.87,0,0,0,.55,1c1,.58,1.19,1.36.83,2.81-.24,1-1,.9-1.76,1-2.25.3-4.22,1.51-6.41,2a13,13,0,0,0-1.24.44,2,2,0,0,1-2.36-.6,2.39,2.39,0,0,1,0-2.8c.7-.83,1.19-1.9,2.42-2.26.46-.14.83-.73,1.17-1.17a4,4,0,0,1,1.83-1.56C54.07,74.23,54,72.83,54.09,71.4Z"/><path class="cls-1" d="M110.82,30.33c.3,3.66-.87,6.83-1.87,10-.52,1.66-1,3.34-1.58,5a32.91,32.91,0,0,1-2.68,4.88,4.46,4.46,0,0,1-2.85,2,2.79,2.79,0,0,1-3.18-1,9.67,9.67,0,0,1-1.43-2.83,1,1,0,0,1,.32-1.17c.43-.3.83,0,1.19.23a4.39,4.39,0,0,1,1,1.15c.73,1.14,1,1.17,2,.27a8.51,8.51,0,0,0,2.12-3.5,64.56,64.56,0,0,0,3.8-12.73,18.4,18.4,0,0,0,.16-3.55c-.06-1.41-.75-2-2.18-2a16.41,16.41,0,0,0-4,.91,7,7,0,0,1-4.94.16A3.33,3.33,0,0,1,94.56,26a15.55,15.55,0,0,1-.32-4.66.67.67,0,0,1,.44-.75c.45-.12.7.24.81.59a18.42,18.42,0,0,1,.61,2.17c.44,2.26,1.22,2.68,3.41,1.76a25.18,25.18,0,0,1,4.63-1.47c3.65-.79,6.47,1.32,6.69,5A5.68,5.68,0,0,1,110.82,30.33Z"/><path class="cls-1" d="M5,30.33c.6,1.15,1,2,0,2.78a1.57,1.57,0,0,0-.25,1.24c.36,2.75-.38,5.43-.5,8.15A24.64,24.64,0,0,0,4.57,47,44.5,44.5,0,0,1,5,52c0,.65.3,1.21.34,1.83.3,3.72,1.41,7.3,1.88,11a7.42,7.42,0,0,1,0,1.49C7,69,5.83,69.92,3.14,69.42a1.14,1.14,0,0,1-.76-.49A13.13,13.13,0,0,1,.07,64.68a2.24,2.24,0,0,1,1.14-2.54c.57-.28.49-.67.44-1.07a105.28,105.28,0,0,1-.49-11.78A42,42,0,0,1,2.3,37.78c.48-1.87,1-3.71,1.58-5.56C4.07,31.57,4.78,31.24,5,30.33Z"/><path class="cls-1" d="M437.14,50.2c-.05.61-.09,1.17-.13,1.74-.05.78-.87,1.82.9,1.91.68,0,.9,1.81.33,2.44a10.06,10.06,0,0,1-4,3c-1.89.66-3.8,1.25-5.68,1.91a9,9,0,0,1-3.53.36c-.53,0-1.22.18-1.39-.57a1.63,1.63,0,0,1,.64-1.82c.93-.62,1.84-1.29,2.82-1.83a6.72,6.72,0,0,0,2.84-3.12,19,19,0,0,1,1.58-2.32c.25-.36.5-.72.72-1.09a.6.6,0,0,0,0-.7.58.58,0,0,0-.69-.14c-.71.21-1.43.43-2.13.69a28.49,28.49,0,0,0-4.45,2c-.74.43-1.61.84-1.81,1.79s-.76.63-1.28.49c-.76-.21-.74-.82-.54-1.35a4.19,4.19,0,0,1,1.47-1.66,32.06,32.06,0,0,1,7.49-4.19A18.07,18.07,0,0,0,433,46.32a2.36,2.36,0,0,1,3.86,1.51A19.79,19.79,0,0,1,437.14,50.2Z"/><path class="cls-1" d="M189.93,59c-.08-5.93,2.29-11.09,5-16.14,1.36-2.54,2.68-5.09,3.87-7.71a7,7,0,0,1,1.75-2.42c.89-.78,1.68-.62,2.11.26.23.46.31.78-.26,1a2,2,0,0,0-1,1.33C200,39.84,197.58,44,196,48.44A40.52,40.52,0,0,0,194.12,58c-.09.87-.12,1.95,1,2.45.36.16.37.41.31.75-.08.49-.09,1-.16,1.49a2.42,2.42,0,0,1-2,2.36,2.87,2.87,0,0,1-2.8-1.81C189.82,61.83,190.06,60.37,189.93,59Z"/><path class="cls-1" d="M177.85,74c.18-3.12.79-6.19,1.25-9.28.75-5,1.71-10,3-14.88.74-2.95,1.38-5.94,3-8.63a16.8,16.8,0,0,0,1.39-3.64A16.67,16.67,0,0,1,187.87,35a.43.43,0,0,1,.62-.23.47.47,0,0,1,.17.65c-1.69,3.3-2.41,6.91-3.32,10.46a69.33,69.33,0,0,0-1.5,7.7c-.49,3.59-1.21,7.15-1.57,10.75-.34,3.36-.74,6.71-1.09,10.07-.08.85-.21,1.71.63,2.39.64.51.61,1.15,0,1.77-.83.8-1.51,1-2.3.27a4.83,4.83,0,0,1-1.63-3.28C177.81,75,177.85,74.53,177.85,74Z"/><path class="cls-1" d="M372.86,47.52a22.87,22.87,0,0,1,6,2,24.61,24.61,0,0,1,3.84,2.63c2.19,1.54,4.48,2.93,6.73,4.38.21.14.51.19.63.38,1,1.51,2.7,1.6,4.16,2.14A11.39,11.39,0,0,1,397,60.22a1.58,1.58,0,0,1,.81,1.84c-.29,1.36-.56,1.86-1.88,1.56C393,63,390,62.34,387.6,60.4c-1.51-1.22-3.11-2.31-4.7-3.43a18.2,18.2,0,0,1-3.63-3,16,16,0,0,0-6.16-4.16l-.69-.28c-.59-.25-1.21-.54-1.07-1.33S372.22,47.51,372.86,47.52Z"/><path class="cls-1" d="M456.37,38.71a7.39,7.39,0,0,1-1.15,2.69,9.77,9.77,0,0,0-.76,9,49.29,49.29,0,0,1,2.37,9.06,3.48,3.48,0,0,1-.44,2.52c-1,1.69-2.46,1.87-3.76.35a9,9,0,0,1-1.72-3.51,43.8,43.8,0,0,1-1.2-6.64c-.54-4.6,1.3-8.26,4.33-11.5.68-.73,1.3-1.5,1.95-2.25Z"/><path class="cls-1" d="M421.17,45.62A4.83,4.83,0,0,0,419,48.3c-.68,1.41-1.4,2.79-2.2,4.13a8.36,8.36,0,0,0-1.07,5.75,73.09,73.09,0,0,0,1.52,7.91c.48,1.87-.05,2.51-2,2.6s-2.24-.08-2.91-1.92a13,13,0,0,1-.93-5.5c.12-1.49,0-3,.13-4.49a8.16,8.16,0,0,1,1.59-4.34,85.36,85.36,0,0,1,5.54-6.61C419.57,44.85,420.05,44.84,421.17,45.62Z"/><path class="cls-1" d="M48.18,43.8a4.66,4.66,0,0,1,3.15,1.48c.46.58.88.47,1.45.28A7.07,7.07,0,0,1,57,45.17c1.67.45,1.91,1,1.09,2.47a2.34,2.34,0,0,1-2.49,1.49,5.31,5.31,0,0,0-3.16,1c-2.09,1.26-4.2,2.48-6.26,3.77a15.54,15.54,0,0,1-5.77,2.13c-.71.11-1.33,0-1.53-.66s.37-1,.91-1.25c2.87-1.06,5.1-3.07,7.42-4.94,1.49-1.2,1.37-2.63-.24-3.64-.6-.37-1.73-.45-1.38-1.42.3-.81,1.3-.48,2-.44A3.78,3.78,0,0,1,48.18,43.8Z"/><path class="cls-1" d="M189.33,19.86a12.87,12.87,0,0,1-1.78,5.39c-1.54,2.52-3.62,4.61-5.4,6.93-2,2.62-4.11,5.18-5.37,8.29-.41,1-.45.75-1.54.23-1.24-.6-.94-1.27-.69-2.19,1.17-4.23,4-7.28,7.09-10.14,2.73-2.53,5.22-5.19,6.35-8.86.11-.37.07-1,.69-.92S189.33,19.26,189.33,19.86Z"/><path class="cls-1" d="M436.62,23.58c1.77-.16,3.49,1,5.23,2.09a2.15,2.15,0,0,1,.95,1.56,6.23,6.23,0,0,1-.57,3.63c-.36.69-1.05,1.68-1.78,1.4-1-.36-2.41-.55-2.67-1.7-.35-1.5-1.43-2.11-2.48-2.85a2.77,2.77,0,0,1-.59-.47c-.45-.57-1.63-.66-1.2-1.81C434,24,434.74,23.53,436.62,23.58Z"/><path class="cls-1" d="M372,35.75a5.32,5.32,0,0,1,.79-.15,11.68,11.68,0,0,1,1.87,0c1.41.13,2.65,1.11,2.61,2,0,.73-2.11,2.08-3.12,2-1.67-.2-3.32-.54-5-.63-2.27-.12-3.87-3.43-1.91-5.17.66-.58.74-1.42,1.14-2.11.19-.33.32-.75.77-.68s.57.48.7.8a2.56,2.56,0,0,1-.09,1.66,10,10,0,0,0-.33,1.25c-.07.51,0,.86.6.91Z"/><path class="cls-1" d="M12.19,47c-1.69-.74-3.55-1.13-5-2.33-.58-.47-1.44-.95-.87-2A1.55,1.55,0,0,1,8.43,42a5.11,5.11,0,0,0,3.61.22c1.1-.34,2.05.31,3.05.62.11,0,.29.11.29.17a9,9,0,0,1,0,2.89,1.66,1.66,0,0,1-1.5,1C13.31,47,12.75,46.93,12.19,47Z"/><path class="cls-1" d="M8.93,55.27c-2-.3-2.25-.81-1-2.18a24.43,24.43,0,0,1,4.62-3.79c.71-.46,2.21.11,2.78.93A2.16,2.16,0,0,1,15,52.92c-1.43.8-2.69,2-4.4,2.24C10,55.25,9.38,55.76,8.93,55.27Z"/><path class="cls-1" d="M270.33,55.14c-.21.28,0,1.19-.54,1.09-.74-.13-1.2.85-2.15.11-1.69-1.32-1.87-3.06-2-4.9a10.13,10.13,0,0,0,.07-1.09,1.18,1.18,0,0,1,.88-1.58,1.65,1.65,0,0,1,2.12.63A12.36,12.36,0,0,1,270.33,55.14Z"/><path class="cls-1" d="M334.37,58.09a6,6,0,0,1-3.51-1.81c-1-1-1.81-2.21-2.91-3.14a1.21,1.21,0,0,1-.21-1.68c.4-.65,1-.31,1.5-.11a6.12,6.12,0,0,1,1.31.71c1.59,1.2,3.18,2.4,4.72,3.67.37.31,1.18.64.79,1.28A1.73,1.73,0,0,1,334.37,58.09Z"/><path class="cls-1" d="M150.46,21a2,2,0,0,1,1.22.4c1.32.91,2.66,1.79,3.93,2.76.93.71.85,1.44-.14,2.2-.19.15-.4.29-.6.44-1.13.86-1.38.88-2.34,0-1.28-1.2-2-2.81-3.11-4.17C148.84,21.93,149.49,21,150.46,21Z"/><path class="cls-1" d="M96.88,43.64a4.28,4.28,0,0,1-3-1.16c-.43-.37-.83-.78-.34-1.43.62-.84,1.16-1.06,1.88-.64a3.13,3.13,0,0,0,3.18-.14c.66-.34,1.3-.73,2-1.05s1,.1,1.17.72a1.61,1.61,0,0,1-.37,1.58C100.13,42.54,99,43.76,96.88,43.64Z"/><path class="cls-1" d="M42.61,64.48c-.31-.08-.8-.2-.8-.73s.47-.55.8-.67a50.34,50.34,0,0,1,6.25-1.85c1.14-.25,1.76,0,2,.72s-.32,1.61-1.36,1.91a15.28,15.28,0,0,1-2.93.54C45.32,64.5,44,64.46,42.61,64.48Z"/><path class="cls-1" d="M49.77,36.48c.11-.66.7-.81,1.22-.93a17.43,17.43,0,0,1,6.48.08c.81.12,1.13.81.93,1.72s-.76.68-1.32.58c-.92-.16-1.84-.32-2.75-.54-1.3-.33-2.55-.92-4-.57A.47.47,0,0,1,49.77,36.48Z"/><path class="cls-1" d="M219.5,38.09c1.22.57,2.77.94,3.78,2.23a.66.66,0,0,1,0,.87c-.67.5-1.29,1.22-2.19,1.21-1.19,0-2.91-1.87-2.86-3.06C218.22,38.66,218.49,38.12,219.5,38.09Z"/><path class="cls-1" d="M220.83,47.29c-.05.55.16,1.05-.42,1.26a1,1,0,0,1-1.2-.19c-.93-.93-1.92-1.79-2.82-2.74a1.19,1.19,0,0,1-.21-1.69,1.29,1.29,0,0,1,1.84-.16C219.35,44.7,220.91,45.42,220.83,47.29Z"/><path class="cls-1" d="M47.63,55.87c1.16.13,2,0,2.63.67.34.35.77.7.5,1.28s-.48,1.06-1.17,1a8.64,8.64,0,0,1-3.93-1,1.31,1.31,0,0,1-.57-1.62c.18-.64.76-.52,1.24-.5S47.44,55.85,47.63,55.87Z"/><path class="cls-1" d="M97.4,33.42a7.51,7.51,0,0,1,2.88.6c.72.44.94,1,.56,1.68s-1.06,1-1.67.45A4.65,4.65,0,0,0,96,35.27a2.69,2.69,0,0,1-1.28-.15c-.57-.31-.63-.73-.08-1.11A4.75,4.75,0,0,1,97.4,33.42Z"/></g></g></svg>